<svg width="13" height="12" viewBox="0 0 13 12" fill="none" xmlns="http://www.w3.org/2000/svg">
    <g clip-path="url(#clip0_448_2182)">
        <path d="M12.4181 5.74801C11.6897 4.79373 10.8149 3.96071 9.82611 3.27989L11.5172 1.58876C11.6875 1.42433 11.6922 1.15303 11.5278 0.982774C11.3634 0.812519 11.092 0.807798 10.9218 0.972227C10.9182 0.975668 10.9147 0.979183 10.9112 0.982774L9.0637 2.82861C8.27729 2.39579 7.39749 2.16047 6.50001 2.14289C3.24288 2.14289 0.689057 5.60058 0.581907 5.74798C0.472698 5.89823 0.472698 6.10173 0.581907 6.25197C1.31029 7.20625 2.18509 8.03927 3.17388 8.72009L1.48275 10.4112C1.3125 10.5756 1.30778 10.847 1.47221 11.0172C1.63664 11.1875 1.90794 11.1922 2.07819 11.0278C2.08176 11.0243 2.08528 11.0208 2.08874 11.0172L3.93629 9.17137C4.7227 9.60419 5.6025 9.83951 6.49998 9.85709C9.7571 9.85709 12.3109 6.3994 12.4181 6.25197C12.5273 6.10175 12.5273 5.89825 12.4181 5.74801ZM3.79702 8.09826C2.92397 7.51678 2.1414 6.80977 1.47462 6C2.10546 5.23586 4.15144 3.00002 6.50001 3.00002C7.1682 3.01353 7.82513 3.17452 8.42384 3.47144L7.67984 4.21544C6.69547 3.56191 5.36768 3.8301 4.71416 4.81447C4.2381 5.53152 4.2381 6.46406 4.71416 7.18112L3.79702 8.09826ZM7.65714 5.44928C7.74101 5.6208 7.78498 5.80908 7.78571 6C7.78571 6.71008 7.21008 7.28571 6.50001 7.28571C6.30908 7.28498 6.1208 7.24101 5.94929 7.15713L7.65714 5.44928ZM5.34287 6.55069C5.259 6.37918 5.21503 6.1909 5.2143 5.99998C5.2143 5.2899 5.78993 4.71427 6.50001 4.71427C6.69093 4.715 6.87921 4.75897 7.05072 4.84284L5.34287 6.55069ZM6.50001 8.99996C5.83182 8.98645 5.1749 8.82546 4.57617 8.52854L5.32017 7.78454C6.30454 8.43807 7.63233 8.16988 8.28585 7.18551C8.76191 6.46845 8.76191 5.53592 8.28585 4.81886L9.203 3.90172C10.076 4.4832 10.8586 5.19024 11.5254 5.99998C10.8945 6.76414 8.84855 8.99996 6.50001 8.99996Z" fill="white" />
    </g>
    <defs>
        <clipPath id="clip0_448_2182">
            <rect width="12" height="12" fill="white" transform="translate(0.5)" />
        </clipPath>
    </defs>
</svg>