<svg width="12" height="12" viewBox="0 0 12 12" fill="none" xmlns="http://www.w3.org/2000/svg">
    <g clip-path="url(#clip0_784_7067)">
        <path d="M6 0.75C3.1051 0.75 0.75 3.1051 0.75 6C0.75 8.8949 3.1051 11.25 6 11.25C8.8949 11.25 11.25 8.8949 11.25 6C11.25 3.1051 8.8949 0.75 6 0.75ZM6 10.5C3.51855 10.5 1.5 8.48145 1.5 6C1.5 3.51855 3.51855 1.5 6 1.5C8.48145 1.5 10.5 3.51855 10.5 6C10.5 8.48145 8.48145 10.5 6 10.5Z" fill="white" />
        <path d="M9.35667 5.21082C9.31236 5.07495 9.19517 4.97607 9.05382 4.95557L7.17589 4.68237L6.33617 2.98096C6.21019 2.72461 5.78978 2.72461 5.6638 2.98096L4.82408 4.68237L2.94615 4.95557C2.80479 4.97607 2.68761 5.07495 2.64329 5.21082C2.59935 5.34631 2.63597 5.49536 2.73814 5.59497L4.09715 6.91956L3.77635 8.78979C3.75218 8.93042 3.81004 9.07251 3.9254 9.15637C4.04149 9.2406 4.1942 9.25195 4.32054 9.18494L5.99998 8.302L7.67943 9.18494C7.73436 9.21387 7.79442 9.22815 7.85411 9.22815C7.93175 9.22815 8.00902 9.20398 8.07457 9.15637C8.18993 9.07251 8.24779 8.93042 8.22362 8.78979L7.90282 6.91956L9.26182 5.59497C9.364 5.49536 9.40062 5.34631 9.35667 5.21082ZM7.23814 6.52002C7.14989 6.60608 7.1096 6.73022 7.13048 6.85181L7.35606 8.1676L6.17467 7.54651C6.11973 7.51758 6.06004 7.5033 5.99998 7.5033C5.93993 7.5033 5.88023 7.51758 5.8253 7.54651L4.6439 8.1676L4.86949 6.85181C4.89036 6.73022 4.85008 6.60608 4.76182 6.52002L3.80601 5.58838L5.12694 5.39612C5.24925 5.37854 5.35472 5.30164 5.40929 5.19104L5.99998 3.99426L6.59068 5.19104C6.64525 5.30164 6.75072 5.37854 6.87303 5.39612L8.19395 5.58838L7.23814 6.52002Z" fill="white" />
    </g>
    <defs>
        <clipPath id="clip0_784_7067">
            <rect width="12" height="12" fill="white" />
        </clipPath>
    </defs>
</svg>