<svg width="13" height="12" viewBox="0 0 13 12" fill="none" xmlns="http://www.w3.org/2000/svg">
    <path d="M9.17352 4.52502L8.00352 8.29502C7.72352 9.19002 6.46852 9.20502 6.17352 8.31502L5.82352 7.28002C5.72852 6.99502 5.50352 6.76502 5.21852 6.67502L4.17852 6.32501C3.29352 6.03001 3.30852 4.76502 4.20352 4.49502L7.97352 3.32002C8.71352 3.09502 9.40852 3.79002 9.17352 4.52502Z" stroke="white" stroke-width="0.78125" stroke-linecap="round" stroke-linejoin="round" />
    <path d="M5 11H8C10.5 11 11.5 10 11.5 7.5V4.5C11.5 2 10.5 1 8 1H5C2.5 1 1.5 2 1.5 4.5V7.5C1.5 10 2.5 11 5 11Z" stroke="white" stroke-width="0.78125" stroke-linecap="round" stroke-linejoin="round" />
</svg>