<svg width="12" height="12" viewBox="0 0 12 12" fill="none" xmlns="http://www.w3.org/2000/svg">
    <path d="M5.91375 5.78045C6.70788 5.78045 7.39544 5.49563 7.95739 4.93368C8.51915 4.37182 8.80407 3.68435 8.80407 2.89013C8.80407 2.09619 8.51925 1.40863 7.9573 0.846587C7.39535 0.28482 6.70779 0 5.91375 0C5.11953 0 4.43207 0.28482 3.87021 0.846678C3.30835 1.40854 3.02344 2.0961 3.02344 2.89013C3.02344 3.68435 3.30835 4.37191 3.87021 4.93377C4.43225 5.49553 5.11981 5.78045 5.91375 5.78045ZM4.36752 1.3439C4.79864 0.912779 5.30438 0.703215 5.91375 0.703215C6.52303 0.703215 7.02886 0.912779 7.46007 1.3439C7.8912 1.77511 8.10085 2.28094 8.10085 2.89013C8.10085 3.49951 7.8912 4.00524 7.46007 4.43645C7.02886 4.86767 6.52303 5.07723 5.91375 5.07723C5.30456 5.07723 4.79882 4.86758 4.36752 4.43645C3.93631 4.00533 3.72665 3.49951 3.72665 2.89013C3.72665 2.28094 3.93631 1.77511 4.36752 1.3439Z" fill="white" />
    <path d="M10.9718 9.22738C10.9555 8.99355 10.9228 8.73849 10.8745 8.46914C10.8258 8.19778 10.7631 7.94125 10.688 7.70678C10.6104 7.46444 10.505 7.22513 10.3746 6.99579C10.2393 6.75775 10.0804 6.55047 9.90205 6.37991C9.71556 6.20148 9.48723 6.05801 9.22319 5.95337C8.96007 5.84927 8.66847 5.79654 8.35655 5.79654C8.23406 5.79654 8.11559 5.8468 7.8868 5.99576C7.74599 6.08758 7.58129 6.19379 7.39745 6.31125C7.24025 6.41141 7.0273 6.50525 6.76427 6.59021C6.50765 6.67325 6.24709 6.71536 5.98983 6.71536C5.73275 6.71536 5.47219 6.67325 5.21538 6.59021C4.95263 6.50534 4.73959 6.4115 4.58267 6.31134C4.40057 6.19498 4.23577 6.08878 4.09286 5.99567C3.86425 5.84671 3.74578 5.79645 3.62329 5.79645C3.31127 5.79645 3.01977 5.84927 2.75674 5.95346C2.49289 6.05792 2.26446 6.20138 2.07779 6.38C1.89944 6.55066 1.74051 6.75784 1.60538 6.99579C1.4751 7.22513 1.36963 7.46435 1.29199 7.70687C1.21701 7.94134 1.1543 8.19778 1.10559 8.46914C1.05725 8.73812 1.02457 8.99328 1.00836 9.22765C0.992432 9.45681 0.984375 9.69531 0.984375 9.93627C0.984375 10.5627 1.1835 11.0698 1.57617 11.4438C1.96399 11.8128 2.47705 12 3.10116 12H8.87923C9.50316 12 10.0162 11.8128 10.4041 11.4438C10.7969 11.0701 10.996 10.5628 10.996 9.93618C10.9959 9.69439 10.9878 9.4559 10.9718 9.22738ZM9.91926 10.9343C9.66301 11.1782 9.3228 11.2967 8.87914 11.2967H3.10116C2.65741 11.2967 2.3172 11.1782 2.06103 10.9344C1.80972 10.6952 1.68759 10.3686 1.68759 9.93627C1.68759 9.71142 1.69501 9.4894 1.70984 9.27627C1.7243 9.06716 1.75387 8.83746 1.79773 8.59338C1.84103 8.35232 1.89615 8.12609 1.9617 7.92129C2.0246 7.72491 2.11038 7.53045 2.21676 7.34314C2.3183 7.16461 2.43512 7.01144 2.56402 6.88803C2.6846 6.77258 2.83657 6.6781 3.01565 6.60724C3.18127 6.54169 3.3674 6.5058 3.56945 6.5004C3.59408 6.51349 3.63793 6.53848 3.70898 6.58481C3.85354 6.67901 4.02017 6.7865 4.20437 6.90414C4.41201 7.03653 4.67953 7.15609 4.99914 7.25927C5.32589 7.36493 5.65914 7.41858 5.98992 7.41858C6.3207 7.41858 6.65404 7.36493 6.98061 7.25937C7.30049 7.156 7.56792 7.03653 7.77584 6.90396C7.96434 6.78348 8.1263 6.67911 8.27086 6.58481C8.34191 6.53857 8.38576 6.51349 8.41039 6.5004C8.61253 6.5058 8.79866 6.54169 8.96437 6.60724C9.14336 6.6781 9.29533 6.77267 9.41591 6.88803C9.54481 7.01135 9.66164 7.16452 9.76317 7.34323C9.86964 7.53045 9.95552 7.725 10.0183 7.9212C10.084 8.12628 10.1392 8.35241 10.1824 8.59329C10.2261 8.83782 10.2558 9.06762 10.2703 9.27636V9.27654C10.2852 9.48885 10.2927 9.71078 10.2928 9.93627C10.2927 10.3687 10.1706 10.6952 9.91926 10.9343Z" fill="white" />
</svg>