<svg width="58" height="58" viewBox="0 0 58 58" fill="none" xmlns="http://www.w3.org/2000/svg">
<path d="M28.9997 14.5C27.6639 14.5 26.583 15.5809 26.583 16.9167V29C26.583 29.6419 26.8379 30.2555 27.291 30.7087L34.541 37.9587C35.013 38.4307 35.6313 38.6667 36.2497 38.6667C36.868 38.6667 37.4863 38.4307 37.9583 37.9587C38.9023 37.0146 38.9023 35.4854 37.9583 34.5413L31.4163 27.9993V16.9167C31.4163 15.5809 30.3354 14.5 28.9997 14.5Z" fill="url(#paint0_linear_1636_8284)"/>
<path d="M50.7497 26.5835C49.4139 26.5835 48.333 27.6644 48.333 29.0002C48.333 39.6604 39.6599 48.3335 28.9997 48.3335C18.3394 48.3335 9.66634 39.6604 9.66634 29.0002C9.66634 18.3399 18.3394 9.66683 28.9997 9.66683C34.9446 9.66683 40.3986 12.3927 44.0236 16.9168H38.6663C37.3306 16.9168 36.2497 17.9977 36.2497 19.3335C36.2497 20.6693 37.3306 21.7502 38.6663 21.7502H48.333C49.6688 21.7502 50.7497 20.6693 50.7497 19.3335V9.66683C50.7497 8.33105 49.6688 7.25016 48.333 7.25016C46.9972 7.25016 45.9163 8.33105 45.9163 9.66683V11.8097C41.4748 7.42008 35.4685 4.8335 28.9997 4.8335C15.675 4.8335 4.83301 15.6755 4.83301 29.0002C4.83301 42.3249 15.675 53.1668 28.9997 53.1668C42.3244 53.1668 53.1663 42.3249 53.1663 29.0002C53.1663 27.6644 52.0854 26.5835 50.7497 26.5835Z" fill="url(#paint1_linear_1636_8284)"/>
<defs>
<linearGradient id="paint0_linear_1636_8284" x1="26.583" y1="26.5833" x2="38.6553" y2="26.9482" gradientUnits="userSpaceOnUse">
<stop offset="0.104452" stop-color="#7143D7"/>
<stop offset="0.47615" stop-color="#2C57F3"/>
<stop offset="1" stop-color="#4ED4F7"/>
</linearGradient>
<linearGradient id="paint1_linear_1636_8284" x1="4.83301" y1="29.0002" x2="52.9904" y2="31.9109" gradientUnits="userSpaceOnUse">
<stop offset="0.104452" stop-color="#7143D7"/>
<stop offset="0.47615" stop-color="#2C57F3"/>
<stop offset="1" stop-color="#4ED4F7"/>
</linearGradient>
</defs>
</svg>
