<svg width="35" height="34" viewBox="0 0 35 34" fill="none" xmlns="http://www.w3.org/2000/svg">
<g clip-path="url(#clip0_2167_9723)">
<path d="M22.4286 17.7215H18.3417V22.1686H16.7187V17.7215H12.6318V16.1586H16.7187V11.7109H18.3417V16.1586H22.4286V17.7215Z" fill="#E8762C"/>
<path d="M14.1946 23.4308H10.5284V19.4039H9.14611V23.4308H5.41992V24.633H9.14611V28.5993H10.5284V24.633H14.1946V23.4308Z" fill="#C72035"/>
<path d="M29.5799 9.12688H25.9137V5.16003H24.5314V9.12688H20.8652V10.3891H24.5314V14.3554H25.9137V10.3891H29.5799V9.12688Z" fill="#59879B"/>
<path d="M20.6252 27.8185H18.1608V25.0538H16.9591V27.8185H14.4346V28.9001H16.9591V31.7247H18.1608V28.9001H20.6252V27.8185Z" fill="#5B6591"/>
<path d="M14.1946 9.12688H10.4684V5.16003H9.14611V9.12688H5.41992V10.3286H9.14611V14.3554H10.4684V10.3286H14.1946V9.12688Z" fill="#EB912C"/>
<path d="M32.4055 16.3991H29.941V13.6345H28.7393V16.3991H26.2148V17.4808H28.7393V20.2454H29.941V17.4808H32.4055V16.3991Z" fill="#5B6591"/>
<path d="M29.5799 23.4308H25.9137V19.4039H24.5314V23.4308H20.8652V24.633H24.5314V28.5993H25.9137V24.633H29.5799V23.4308Z" fill="#1F447E"/>
<path d="M20.4446 5.04002H17.9807V2.27539H17.0792V5.04002H14.6152V5.88152H17.0792V8.58611H17.9807V5.88152H20.4446V5.04002Z" fill="#7099A6"/>
<path d="M8.42466 16.5193H5.96073V13.8147H5.0592V16.5193H2.59473V17.3608H5.0592V20.0654H5.96073V17.3608H8.42466V16.5193Z" fill="#7099A6"/>
</g>
<defs>
<clipPath id="clip0_2167_9723">
<rect width="34" height="34" fill="white" transform="translate(0.5)"/>
</clipPath>
</defs>
</svg>
