<svg width="21" height="20" viewBox="0 0 21 20" fill="none" xmlns="http://www.w3.org/2000/svg">
    <path d="M7.16685 18.3333H13.8335C17.1835 18.3333 17.7835 16.9917 17.9585 15.3583L18.5835 8.69167C18.8085 6.65833 18.2252 5 14.6668 5H6.33351C2.77518 5 2.19185 6.65833 2.41685 8.69167L3.04185 15.3583C3.21685 16.9917 3.81685 18.3333 7.16685 18.3333Z" stroke="#292D32" stroke-width="1.5" stroke-miterlimit="10" stroke-linecap="round" stroke-linejoin="round"></path>
    <path d="M7.1665 5.00033V4.33366C7.1665 2.85866 7.1665 1.66699 9.83317 1.66699H11.1665C13.8332 1.66699 13.8332 2.85866 13.8332 4.33366V5.00033" stroke="#292D32" stroke-width="1.5" stroke-miterlimit="10" stroke-linecap="round" stroke-linejoin="round"></path>
    <path d="M12.1668 10.8333V11.6667C12.1668 11.675 12.1668 11.675 12.1668 11.6833C12.1668 12.5917 12.1585 13.3333 10.5002 13.3333C8.85016 13.3333 8.8335 12.6 8.8335 11.6917V10.8333C8.8335 10 8.8335 10 9.66683 10H11.3335C12.1668 10 12.1668 10 12.1668 10.8333Z" stroke="#292D32" stroke-width="1.5" stroke-miterlimit="10" stroke-linecap="round" stroke-linejoin="round"></path>
    <path d="M18.5415 9.16699C16.6165 10.567 14.4165 11.4003 12.1665 11.6837" stroke="#292D32" stroke-width="1.5" stroke-miterlimit="10" stroke-linecap="round" stroke-linejoin="round"></path>
    <path d="M2.68311 9.3916C4.55811 10.6749 6.67477 11.4499 8.8331 11.6916" stroke="#292D32" stroke-width="1.5" stroke-miterlimit="10" stroke-linecap="round" stroke-linejoin="round"></path>
</svg>