<svg xmlns="http://www.w3.org/2000/svg" width="61" height="60" viewBox="0 0 61 60" fill="none"><script xmlns=""/>
<g clip-path="url(#clip0_2081_7575)">
<path d="M54.6717 52.6039C53.5923 50.7829 52.0185 49.3401 50.182 48.4035C51.1405 47.2453 51.6628 45.8034 51.6628 44.2809C51.6628 42.5505 50.9886 40.9236 49.7649 39.7C48.5413 38.4764 46.9145 37.8026 45.1841 37.8026C43.4538 37.8026 41.8269 38.4764 40.6033 39.7C40.0938 40.21 39.6809 40.7899 39.371 41.418L32.2903 37.3137V30.271H44.1926C49.3745 30.271 53.59 26.0555 53.59 20.8736C53.59 15.8423 49.6166 11.722 44.6421 11.4867C44.0328 8.5556 42.5231 5.87906 40.2915 3.82141C37.6196 1.35727 34.1451 0 30.5077 0C26.8708 0 23.3964 1.35727 20.7244 3.82141C18.4928 5.87952 16.9831 8.5556 16.3738 11.4867C11.4002 11.7224 7.42593 15.8427 7.42593 20.8736C7.42593 26.0555 11.6415 30.2715 16.8234 30.2715H28.7257V37.4698L21.7045 41.5393C21.3891 40.8646 20.9551 40.2425 20.4127 39.7005C17.8867 37.1741 13.7765 37.1741 11.2505 39.7005C8.87246 42.0786 8.73422 45.8606 10.8344 48.403C8.99789 49.3396 7.42364 50.7829 6.34423 52.6039C5.44015 54.1287 5.42642 55.9625 6.30715 57.5089C7.19613 59.0685 8.79647 60 10.5886 60H21.0746C22.8668 60 24.4676 59.0685 25.3561 57.5089C26.2373 55.9625 26.2231 54.1287 25.319 52.6039C24.2396 50.7829 22.6658 49.3396 20.8297 48.4035C21.558 47.5237 22.0327 46.479 22.2195 45.3607L30.6428 40.4782L38.7695 45.1891C38.9347 46.3724 39.4209 47.4783 40.1862 48.4035C38.3502 49.3396 36.7764 50.7829 35.697 52.6035C34.7929 54.1287 34.7787 55.9625 35.6594 57.5084C36.5484 59.0685 38.1492 60 39.9413 60H50.4273C52.2195 60 53.8198 59.0685 54.7088 57.5089C55.5895 55.9625 55.5758 54.1287 54.6717 52.6039ZM16.8234 26.7068C13.6071 26.7068 10.9901 24.0903 10.9901 20.8736C10.9901 17.6573 13.6067 15.0403 16.8234 15.0403C17.0925 15.0403 17.3708 15.0604 17.651 15.1003C18.1358 15.1689 18.6269 15.0348 19.0101 14.7304C19.3932 14.4255 19.634 13.9769 19.6761 13.4889C20.1577 7.92389 24.9157 3.56415 30.5077 3.56415C36.1002 3.56415 40.8578 7.92389 41.3398 13.4894C41.3819 13.9769 41.6227 14.4255 42.0059 14.7304C42.389 15.0348 42.8806 15.1689 43.365 15.1003C43.6446 15.0604 43.9234 15.0407 44.1926 15.0407C47.4088 15.0407 50.0259 17.6573 50.0259 20.8736C50.0259 24.0903 47.4088 26.7068 44.1926 26.7068H32.2903V23.1372C33.3157 22.8456 34.2829 22.2981 35.0886 21.492C37.6145 18.9661 37.6145 14.8563 35.0886 12.3303C32.5626 9.80438 28.4528 9.80438 25.9269 12.3303C23.401 14.8563 23.401 18.9661 25.9269 21.492C26.7326 22.2981 27.7003 22.8456 28.7257 23.1372V26.7068H16.8234ZM28.4469 18.9716C27.3107 17.8354 27.3107 15.9869 28.4469 14.8503C29.015 14.2822 29.7611 13.9984 30.5077 13.9984C31.2539 13.9984 32.0001 14.2822 32.5681 14.8503C33.7043 15.9865 33.7043 17.8354 32.5681 18.9716C31.432 20.1082 29.5831 20.1082 28.4469 18.9716ZM51.6116 55.7442C51.493 55.952 51.1405 56.4359 50.4269 56.4359H39.9413C39.2277 56.4359 38.8748 55.952 38.7566 55.7442C38.6418 55.5432 38.4129 55.0113 38.7626 54.4212C40.1016 52.1626 42.562 50.7596 45.1841 50.7596C47.8057 50.7596 50.2667 52.1626 51.6056 54.4212C51.9553 55.0113 51.7265 55.5432 51.6116 55.7442ZM43.1237 46.3417C42.573 45.791 42.27 45.0595 42.27 44.2809C42.27 43.5027 42.573 42.7707 43.1237 42.2205C43.6739 41.6698 44.4059 41.3667 45.1841 41.3667C45.9628 41.3667 46.6943 41.6702 47.245 42.2205C47.7952 42.7707 48.0982 43.5027 48.0982 44.2809C48.0982 45.0595 47.7952 45.791 47.245 46.3417C46.6947 46.8919 45.9637 47.195 45.1855 47.195C45.185 47.195 45.1846 47.195 45.1841 47.195C45.1837 47.195 45.1832 47.195 45.1827 47.195C44.405 47.195 43.6739 46.8919 43.1237 46.3417ZM22.2593 55.7442C22.1407 55.952 21.7883 56.4359 21.0746 56.4359H10.5886C9.87496 56.4359 9.52249 55.952 9.40438 55.7442C9.28948 55.5432 9.0606 55.0113 9.41033 54.4212C10.7493 52.1626 13.2098 50.7596 15.8318 50.7596C18.4535 50.7596 20.9139 52.1626 22.2529 54.4212C22.6026 55.0113 22.3737 55.5432 22.2593 55.7442ZM17.8922 46.3417C16.7561 47.4779 14.9072 47.4779 13.771 46.3417C12.6348 45.2055 12.6348 43.3566 13.771 42.2205C14.3395 41.6524 15.0857 41.3681 15.8318 41.3681C16.578 41.3681 17.3242 41.6524 17.8927 42.2205C18.4429 42.7707 18.746 43.5027 18.746 44.2809C18.746 45.0595 18.4429 45.7915 17.8922 46.3417Z" fill="#9F63C6"/>
</g>
<defs>
<clipPath id="clip0_2081_7575">
<rect width="60" height="60" fill="white" transform="translate(0.5)"/>
</clipPath>
</defs>
<script xmlns=""/></svg>