<svg xmlns="http://www.w3.org/2000/svg" width="61" height="60" viewBox="0 0 61 60" fill="none"><script xmlns=""/>
<path d="M48.3918 26.8012C48.4293 26.4012 48.4468 26.0087 48.4468 25.6162C48.451 21.5828 46.8928 17.7045 44.0992 14.7952C41.3056 11.8859 37.4938 10.1717 33.4636 10.0122C29.4333 9.85276 25.4979 11.2605 22.4832 13.94C19.4685 16.6195 17.6088 20.3626 17.2943 24.3837C16.7147 24.3002 16.1299 24.2585 15.5443 24.2587C13.84 24.2349 12.1478 24.5501 10.5663 25.1859C8.98478 25.8217 7.54537 26.7654 6.3317 27.9623C5.11803 29.1592 4.15431 30.5853 3.49652 32.1578C2.83873 33.7303 2.5 35.4179 2.5 37.1224C2.5 38.827 2.83873 40.5145 3.49652 42.087C4.15431 43.6595 5.11803 45.0857 6.3317 46.2825C7.54537 47.4794 8.98478 48.4232 10.5663 49.059C12.1478 49.6948 13.84 50.0099 15.5443 49.9862H45.9468C48.8412 49.9837 51.6323 48.9104 53.7828 46.9731C55.9332 45.0359 57.2909 42.3715 57.5945 39.4931C57.898 36.6146 57.126 33.7257 55.4269 31.3824C53.7279 29.0392 51.222 27.4074 48.3918 26.8012ZM45.9468 44.9862H15.5318C14.4874 45.0048 13.4496 44.8152 12.4792 44.4283C11.5089 44.0415 10.6253 43.4652 9.88002 42.7332C9.13479 42.0011 8.54286 41.1279 8.13879 40.1646C7.73472 39.2012 7.52662 38.1671 7.52662 37.1224C7.52662 36.0778 7.73472 35.0436 8.13879 34.0803C8.54286 33.1169 9.13479 32.2437 9.88002 31.5117C10.6253 30.7796 11.5089 30.2033 12.4792 29.8165C13.4496 29.4297 14.4874 29.24 15.5318 29.2587C16.6957 29.2657 17.8431 29.5339 18.8893 30.0437C19.3012 30.2365 19.7579 30.3133 20.2102 30.2658C20.6625 30.2183 21.0933 30.0483 21.4562 29.7742C21.819 29.5 22.1003 29.1321 22.2695 28.71C22.4388 28.2879 22.4897 27.8276 22.4168 27.3787C22.3085 26.8013 22.2474 26.216 22.2343 25.6287C22.2343 24.2367 22.5085 22.8583 23.0412 21.5722C23.5739 20.2862 24.3547 19.1176 25.339 18.1333C26.3233 17.149 27.4918 16.3682 28.7779 15.8355C30.0639 15.3028 31.4423 15.0287 32.8343 15.0287C34.2263 15.0287 35.6047 15.3028 36.8908 15.8355C38.1768 16.3682 39.3454 17.149 40.3297 18.1333C41.314 19.1176 42.0948 20.2862 42.6275 21.5722C43.1602 22.8583 43.4343 24.2367 43.4343 25.6287C43.418 26.5818 43.2708 27.5281 42.9968 28.4412C42.8912 28.8243 42.8785 29.2271 42.9597 29.6162C43.0408 30.0053 43.2136 30.3694 43.4637 30.6783C43.7137 30.9872 44.0338 31.2321 44.3974 31.3926C44.761 31.5531 45.1576 31.6246 45.5543 31.6012C45.5918 31.6012 45.8893 31.5687 46.0043 31.5562C46.8868 31.5599 47.7599 31.7375 48.5738 32.0787C49.3876 32.4199 50.1263 32.9181 50.7477 33.5447C51.369 34.1714 51.8608 34.9143 52.1951 35.7311C52.5293 36.5479 52.6994 37.4224 52.6956 38.3049C52.6918 39.1874 52.5143 40.0605 52.173 40.8744C51.8319 41.6882 51.3337 42.4269 50.707 43.0483C50.0803 43.6696 49.3374 44.1614 48.5207 44.4956C47.7039 44.8299 46.8293 45 45.9468 44.9962V44.9862ZM39.8768 36.0362C39.8768 36.6992 39.6134 37.3351 39.1446 37.8039C38.6758 38.2728 38.0399 38.5362 37.3768 38.5362H30.1668C29.5038 38.5362 28.8679 38.2728 28.3991 37.8039C27.9302 37.3351 27.6668 36.6992 27.6668 36.0362C27.6668 35.3731 27.9302 34.7372 28.3991 34.2684C28.8679 33.7996 29.5038 33.5362 30.1668 33.5362H37.3768C38.0399 33.5362 38.6758 33.7996 39.1446 34.2684C39.6134 34.7372 39.8768 35.3731 39.8768 36.0362Z"/>
<script xmlns=""/></svg>