<svg xmlns="http://www.w3.org/2000/svg" width="59" height="58" viewBox="0 0 59 58" fill="none"><script xmlns=""/>
<path d="M44.8956 19.5602C44.5 16.1087 42.961 12.9005 40.4555 10.3773C37.512 7.45504 33.6215 5.84521 29.5 5.84521C21.5579 5.84521 14.9912 11.8518 14.1053 19.5602C7.52521 20.0204 2.3125 25.5216 2.3125 32.2167C2.3125 38.4384 6.9349 43.8219 13.0645 44.7387C14.0522 44.8883 14.9761 44.2051 15.1248 43.2147C15.2735 42.2253 14.5911 41.3022 13.6008 41.1544C9.23239 40.5004 5.9375 36.6577 5.9375 32.2167C5.9375 27.22 10.0032 23.1542 15 23.1542H15.816C16.8169 23.1542 17.6285 22.3427 17.6285 21.3417C17.6285 14.7962 22.9545 9.47021 29.5 9.47021C32.6577 9.47021 35.642 10.7057 37.8925 12.9403C40.136 15.1998 41.3715 18.184 41.3715 21.3417C41.3715 22.3427 42.1831 23.1542 43.184 23.1542H44C48.9968 23.1542 53.0625 27.22 53.0625 32.2167C53.0625 36.6577 49.7676 40.5004 45.3992 41.1544C44.4089 41.3022 43.7265 42.2253 43.8752 43.2147C44.0097 44.1139 44.7823 44.7591 45.6647 44.7591C45.7541 44.7591 45.8443 44.7529 45.9355 44.7387C52.0651 43.8219 56.6875 38.4384 56.6875 32.2167C56.6875 25.5216 51.4748 20.0213 44.8956 19.5602Z" fill="#0073BB"/>
<path d="M29.5003 25.0325C25.2531 25.0325 21.7972 28.4884 21.7972 32.7356V34.5481H19.4209C18.4199 34.5481 17.6084 35.3596 17.6084 36.3606V50.342C17.6084 51.3429 18.4199 52.1545 19.4209 52.1545H39.5796C40.5806 52.1545 41.3921 51.3429 41.3921 50.342V36.3606C41.3921 35.3596 40.5806 34.5481 39.5796 34.5481H37.2034V32.7356C37.2034 28.4884 33.7474 25.0325 29.5003 25.0325ZM25.4222 32.7356C25.4222 30.4868 27.2515 28.6575 29.5003 28.6575C31.7491 28.6575 33.5784 30.4868 33.5784 32.7356V34.5481H25.4222V32.7356ZM37.7672 48.5295H21.2334V38.1731H23.6097H35.3909H37.7672V48.5295Z" fill="#0073BB"/>
<script xmlns=""/></svg>