<svg xmlns="http://www.w3.org/2000/svg" width="56" height="56" viewBox="0 0 56 56" fill="none"><script xmlns=""/>
<path d="M48 0.499939H8C6.01088 0.499939 4.10322 1.29012 2.6967 2.69664C1.29018 4.10316 0.5 6.01082 0.5 7.99994V37.9999C0.5 39.9891 1.29018 41.8967 2.6967 43.3032C4.10322 44.7098 6.01088 45.4999 8 45.4999H20.5V50.4999H18V55.4999H38V50.4999H35.5V45.4999H48C49.9891 45.4999 51.8968 44.7098 53.3033 43.3032C54.7098 41.8967 55.5 39.9891 55.5 37.9999V7.99994C55.5 6.01082 54.7098 4.10316 53.3033 2.69664C51.8968 1.29012 49.9891 0.499939 48 0.499939ZM8 5.49994H48C48.663 5.49994 49.2989 5.76333 49.7678 6.23217C50.2366 6.70101 50.5 7.3369 50.5 7.99994V30.4999H5.5V7.99994C5.5 7.3369 5.76339 6.70101 6.23223 6.23217C6.70107 5.76333 7.33696 5.49994 8 5.49994ZM30.5 50.4999H25.5V45.4999H30.5V50.4999ZM48 40.4999H8C7.33696 40.4999 6.70107 40.2365 6.23223 39.7677C5.76339 39.2989 5.5 38.663 5.5 37.9999V35.4999H50.5V37.9999C50.5 38.663 50.2366 39.2989 49.7678 39.7677C49.2989 40.2365 48.663 40.4999 48 40.4999ZM10.925 19.3749C10.6562 18.9667 10.5129 18.4887 10.5129 17.9999C10.5129 17.5112 10.6562 17.0331 10.925 16.6249L15.925 9.12494L20.075 11.8749L16 17.9999L20.075 24.1249L15.925 26.8749L10.925 19.3749ZM35.925 24.1249L40 17.9999L35.925 11.8749L40.075 9.12494L45.075 16.6249C45.3438 17.0331 45.4871 17.5112 45.4871 17.9999C45.4871 18.4887 45.3438 18.9667 45.075 19.3749L40.075 26.8749L35.925 24.1249ZM26.1 28.1249L21.55 26.0499L29.9 7.99994L34.45 10.0749L26.1 28.1249Z" fill="white"/>
<script xmlns=""/></svg>