<svg xmlns="http://www.w3.org/2000/svg" width="61" height="59" viewBox="0 0 61 59" fill="none"><script xmlns=""/>
<path d="M11.1404 49.3596C13.2912 51.5104 16.2083 52.7188 19.25 52.7188C20.7561 52.7188 22.2474 52.4221 23.6389 51.8457C25.0304 51.2694 26.2947 50.4246 27.3596 49.3596C28.4246 48.2947 29.2694 47.0303 29.8457 45.6389C30.4221 44.2474 30.7188 42.7561 30.7188 41.25V39.1562H19.2506H19.25V38.9062C18.5479 38.908 17.853 38.7658 17.208 38.4884C16.6397 38.2441 16.1209 37.8994 15.676 37.4715L11.1404 49.3596ZM11.1404 49.3596C8.98956 47.2088 7.78125 44.2917 7.78125 41.25V39.1562M11.1404 49.3596L7.53125 39.1562H7.78125M11.7494 39.1562C12.4856 39.1581 13.2144 39.0089 13.8908 38.7181C14.4879 38.4613 15.0329 38.099 15.5 37.6491L7.78125 38.9062V39.1562M11.7494 39.1562L11.75 38.9062V39.1562H11.7494ZM11.7494 39.1562H7.78125M4.46875 37.4997V37.5V41.25C4.46875 45.1702 6.02606 48.9299 8.79808 51.7019C11.5701 54.4739 15.3298 56.0312 19.25 56.0312C23.1702 56.0312 26.9299 54.4739 29.7019 51.7019C32.4739 48.9299 34.0312 45.1702 34.0312 41.25L34.0313 37.5L34.0312 37.498C34.0147 35.4831 33.5833 33.4947 32.7655 31.6562H42.2051L44.9455 36.443L44.9458 36.4435C45.0911 36.6958 45.3002 36.9053 45.5522 37.051C45.8042 37.1967 46.0902 37.2734 46.3812 37.2734C46.6723 37.2734 46.9583 37.1967 47.2103 37.051C47.4623 36.9053 47.6714 36.6958 47.8167 36.4435L47.817 36.443L50.5574 31.6562H51.125C52.5588 31.6562 53.9339 31.0867 54.9478 30.0728C55.9617 29.0589 56.5312 27.6838 56.5312 26.25V9.375C56.5312 7.94117 55.9617 6.56607 54.9478 5.5522C53.9339 4.53834 52.5588 3.96875 51.125 3.96875H21.125C19.6912 3.96875 18.3161 4.53834 17.3022 5.5522C16.2883 6.56607 15.7188 7.94117 15.7188 9.375V23.1652C12.5466 23.9456 9.72027 25.7555 7.68387 28.3146C5.60613 30.9256 4.47299 34.1629 4.46875 37.4997ZM19.2503 22.7188H19.25H19.0312V9.375C19.0312 8.8197 19.2518 8.28715 19.6445 7.8945C20.0371 7.50184 20.5697 7.28125 21.125 7.28125H51.125C51.6803 7.28125 52.2129 7.50184 52.6055 7.8945C52.9982 8.28715 53.2188 8.8197 53.2188 9.375V26.25C53.2188 26.8053 52.9982 27.3379 52.6055 27.7305C52.2129 28.1232 51.6803 28.3438 51.125 28.3438H49.664C49.3704 28.3403 49.0815 28.4168 48.828 28.5649C48.5749 28.7129 48.3667 28.9268 48.2257 29.1839L46.4375 32.2924L44.6493 29.1839C44.5083 28.9268 44.3001 28.7129 44.047 28.5649C43.7935 28.4168 43.5046 28.3403 43.211 28.3438H30.8282C29.4615 26.6095 27.7228 25.2035 25.7398 24.2299C23.7201 23.2382 21.5004 22.7213 19.2503 22.7188ZM19.25 26.0313C22.0506 26.0375 24.7525 27.0667 26.8476 28.9252C28.8722 30.7212 30.1954 33.1722 30.5891 35.8438H19.25C18.6947 35.8438 18.1621 35.6232 17.7695 35.2305C17.3768 34.8379 17.1562 34.3053 17.1562 33.75C17.1562 33.3107 16.9818 32.8895 16.6711 32.5789C16.3605 32.2682 15.9393 32.0938 15.5 32.0938C15.0607 32.0938 14.6395 32.2682 14.3289 32.5789C14.0182 32.8895 13.8438 33.3107 13.8438 33.75C13.8438 34.3053 13.6232 34.8379 13.2305 35.2305C12.8379 35.6232 12.3053 35.8438 11.75 35.8438H7.91095C8.30464 33.1722 9.6278 30.7212 11.6524 28.9252C13.7475 27.0667 16.4494 26.0375 19.25 26.0313Z" fill="white" stroke="white" stroke-width="0.5"/>
<path d="M47.375 12.4062H36.125C35.6857 12.4062 35.2645 12.5807 34.9539 12.8914C34.6432 13.202 34.4688 13.6232 34.4688 14.0625C34.4688 14.5018 34.6432 14.923 34.9539 15.2336C35.2645 15.5443 35.6857 15.7188 36.125 15.7188H47.375C47.8143 15.7188 48.2355 15.5443 48.5461 15.2336C48.8568 14.923 49.0312 14.5018 49.0312 14.0625C49.0312 13.6232 48.8568 13.202 48.5461 12.8914C48.2355 12.5807 47.8143 12.4062 47.375 12.4062Z" fill="white" stroke="white" stroke-width="0.5"/>
<path d="M47.375 19.9062H30.5C30.0607 19.9062 29.6395 20.0807 29.3289 20.3914C29.0182 20.702 28.8438 21.1232 28.8438 21.5625C28.8438 22.0018 29.0182 22.423 29.3289 22.7336C29.6395 23.0443 30.0607 23.2188 30.5 23.2188H47.375C47.8143 23.2188 48.2355 23.0443 48.5461 22.7336C48.8568 22.423 49.0312 22.0018 49.0312 21.5625C49.0312 21.1232 48.8568 20.702 48.5461 20.3914C48.2355 20.0807 47.8143 19.9062 47.375 19.9062Z" fill="white" stroke="white" stroke-width="0.5"/>
<script xmlns=""/></svg>