<svg xmlns="http://www.w3.org/2000/svg" width="59" height="58" viewBox="0 0 59 58" fill="none"><script xmlns=""/>
<path d="M29.4991 41.8003C37.3591 41.8003 43.7538 35.4071 43.7538 27.5487C43.7495 23.7695 42.2463 20.1463 39.5739 17.4739C36.9016 14.8016 33.2784 13.2984 29.4991 13.2941C21.6408 13.2941 15.2477 19.6887 15.2477 27.5487C15.2538 31.1443 16.6135 34.6058 19.0562 37.2443L17.582 42.7437C17.495 43.0684 17.5062 43.4116 17.6143 43.7299C17.7223 44.0482 17.9223 44.3273 18.189 44.5319C18.4557 44.7365 18.7771 44.8574 19.1126 44.8793C19.448 44.9013 19.7824 44.8232 20.0734 44.655L25.8389 41.3236C27.0331 41.6408 28.2635 41.801 29.4991 41.8003ZM24.77 38.0167L21.9276 39.6593L22.5924 37.1796C22.6723 36.8815 22.6695 36.5673 22.5843 36.2706C22.4991 35.974 22.3348 35.7062 22.1089 35.4959C21.0117 34.4843 20.1371 33.2553 19.541 31.8871C18.9448 30.519 18.64 29.0417 18.6461 27.5493C18.6469 25.2584 19.3729 23.0265 20.7199 21.1735C22.067 19.3205 23.9661 17.9414 26.145 17.2339C28.324 16.5265 30.671 16.5269 32.8497 17.2351C35.0284 17.9433 36.927 19.323 38.2734 21.1765C39.6199 23.0299 40.3451 25.2621 40.3451 27.553C40.3451 29.8439 39.62 32.076 38.2736 33.9296C36.9272 35.7831 35.0286 37.1628 32.8499 37.8711C30.6712 38.5794 28.3243 38.5798 26.1453 37.8724C25.9188 37.7987 25.6793 37.7734 25.4423 37.7982C25.2054 37.823 24.9763 37.8973 24.77 38.0164V38.0167ZM57.5718 28.7623C57.5903 28.067 57.6094 27.348 57.5762 26.5994C57.4865 24.5081 56.5888 22.5331 55.0721 21.0903C53.5553 19.6476 51.5379 18.8497 49.4447 18.8647C46.0851 11.1785 38.4097 5.79297 29.4991 5.79297C20.5885 5.79297 12.9163 11.1784 9.55663 18.8646C7.46386 18.8497 5.44693 19.6473 3.93034 21.0895C2.41375 22.5317 1.51578 24.506 1.42542 26.5968C1.39211 27.3481 1.41126 28.0672 1.42972 28.7627C1.44932 29.4974 1.46948 30.2572 1.43176 31.111C1.34181 33.2515 2.10437 35.3403 3.55222 36.9194C5.00007 38.4985 7.01503 39.4389 9.15528 39.5346C9.282 39.5405 9.40846 39.5434 9.53466 39.5434C10.6014 39.5441 11.6575 39.3307 12.6403 38.9158C13.0509 38.7438 13.3774 38.4172 13.5494 38.0066C13.7214 37.5959 13.725 37.1341 13.5594 36.7208C13.5389 36.6406 13.5075 36.5636 13.4661 36.4918C11.9437 33.757 11.1447 30.6788 11.1448 27.5487C11.1448 17.4265 19.3786 9.19141 29.4991 9.19141C39.6197 9.19141 47.8566 17.427 47.8566 27.5487C47.8685 31.8333 46.3765 35.9862 43.6407 39.2836C40.9049 42.581 37.0988 44.8138 32.8857 45.593C32.4418 44.5885 31.661 43.7706 30.6782 43.2807C29.6953 42.7909 28.5722 42.6598 27.5029 42.9101C26.4337 43.1604 25.4855 43.7765 24.8223 44.6518C24.159 45.527 23.8224 46.6065 23.8707 47.7036C23.9189 48.8008 24.3489 49.8465 25.0864 50.6602C25.8239 51.4739 26.8225 52.0044 27.9096 52.16C28.9967 52.3155 30.104 52.0863 31.04 51.5121C31.9761 50.9379 32.6821 50.0547 33.0361 49.0151C36.029 48.52 38.8855 47.4055 41.4228 45.743C43.9601 44.0804 46.1224 41.9063 47.7712 39.36C48.3275 39.4816 48.8953 39.5431 49.4648 39.5435C49.5897 39.5435 49.7148 39.5407 49.8404 39.5349C50.9012 39.4893 51.9426 39.2351 52.9052 38.7869C53.8677 38.3387 54.7326 37.7053 55.4503 36.9228C56.168 36.1403 56.7246 35.2241 57.0882 34.2266C57.4519 33.229 57.6154 32.1695 57.5695 31.1087C57.5319 30.2576 57.5522 29.4972 57.5718 28.7623ZM9.30639 36.1395C8.06571 36.0848 6.89739 35.5402 6.05765 34.6252C5.21792 33.7103 4.77532 32.4996 4.82691 31.2588C4.86985 30.287 4.84708 29.4292 4.82691 28.6723C4.80924 28.0067 4.79293 27.3783 4.82068 26.7449C4.86455 25.7358 5.23308 24.7678 5.87142 23.9851C6.50976 23.2023 7.3838 22.6466 8.36344 22.4006C7.29238 26.8043 7.62104 31.4324 9.30368 35.6405L9.30164 35.6413C9.36779 35.8099 9.4361 35.9777 9.50656 36.1446C9.44033 36.1443 9.37361 36.1426 9.30639 36.1395ZM28.5776 48.809C28.3179 48.8091 28.0641 48.7321 27.8482 48.5879C27.6323 48.4436 27.464 48.2387 27.3647 47.9988C27.2653 47.7589 27.2392 47.495 27.2898 47.2403C27.3404 46.9857 27.4654 46.7517 27.649 46.5681C27.8325 46.3845 28.0664 46.2594 28.321 46.2087C28.5757 46.158 28.8396 46.1839 29.0795 46.2832C29.3194 46.3825 29.5245 46.5507 29.6688 46.7665C29.8131 46.9823 29.8902 47.2361 29.8903 47.4958V47.4983C29.8894 47.846 29.7508 48.1791 29.5047 48.4248C29.2587 48.6705 28.9253 48.8087 28.5776 48.809ZM54.1744 31.2564C54.2009 31.8716 54.1058 32.486 53.8947 33.0645C53.6836 33.6429 53.3605 34.1741 52.944 34.6276C52.5275 35.0812 52.0257 35.4481 51.4672 35.7076C50.9088 35.9671 50.3047 36.1139 49.6895 36.1398C49.6242 36.1429 49.5591 36.1445 49.4942 36.1448C49.497 36.1384 49.4974 36.1313 49.4954 36.1247C51.3506 31.794 51.7514 26.9785 50.638 22.4007C51.618 22.6467 52.4924 23.2028 53.1308 23.986C53.7692 24.7693 54.1375 25.7378 54.1808 26.7474C54.2088 27.3781 54.1922 28.0066 54.1745 28.672C54.1543 29.429 54.1314 30.2869 54.1744 31.2564ZM25.5291 27.3822C25.5345 27.4376 25.5372 27.4931 25.537 27.5487C25.5372 27.6047 25.5345 27.6607 25.5291 27.7164C25.5234 27.7708 25.5143 27.8263 25.5041 27.8807C25.4939 27.935 25.4792 27.9894 25.4634 28.0427C25.4475 28.0959 25.4282 28.148 25.4067 28.199C25.3852 28.25 25.3614 28.3009 25.3354 28.3496C25.3093 28.3984 25.281 28.4459 25.2504 28.4924C25.2201 28.5388 25.1872 28.5834 25.1518 28.6261C25.1167 28.6702 25.0782 28.711 25.0397 28.7507C25.0001 28.7901 24.9585 28.8275 24.9151 28.8628C24.872 28.8979 24.8267 28.9308 24.7814 28.9625C24.735 28.9919 24.6874 29.0214 24.6375 29.0475C24.589 29.0736 24.5391 29.0971 24.488 29.1177C24.4369 29.1392 24.3847 29.1581 24.3317 29.1743C24.2784 29.1902 24.2241 29.2038 24.1697 29.2151C24.1154 29.2262 24.0606 29.2345 24.0054 29.24C23.8939 29.2506 23.7816 29.2506 23.6701 29.24C23.615 29.2345 23.5602 29.2262 23.5059 29.2151C23.4515 29.2038 23.3971 29.1902 23.3439 29.1743C23.2908 29.1581 23.2386 29.1392 23.1875 29.1177C23.1364 29.0971 23.0865 29.0736 23.038 29.0475C22.9882 29.0214 22.9406 28.9919 22.8941 28.9625C22.8488 28.9308 22.8035 28.8979 22.7605 28.8628C22.7171 28.8275 22.6755 28.7901 22.6359 28.7507C22.5973 28.711 22.5588 28.6702 22.5237 28.6261C22.4883 28.5834 22.4554 28.5388 22.4252 28.4924C22.3949 28.4459 22.3666 28.3984 22.3402 28.3496C22.3141 28.3009 22.2904 28.25 22.2688 28.199C22.2473 28.148 22.2292 28.0959 22.2122 28.0427C22.1952 27.9894 22.1827 27.935 22.1714 27.8807C22.1601 27.8263 22.1521 27.7719 22.1465 27.7164C22.1408 27.6609 22.1386 27.6043 22.1386 27.5487C22.1386 27.4932 22.142 27.4377 22.1465 27.3822C22.151 27.3267 22.1612 27.2712 22.1714 27.2168C22.1816 27.1625 22.1963 27.1092 22.2122 27.056C22.228 27.0027 22.2473 26.9506 22.2688 26.8996C22.2904 26.8487 22.3141 26.7977 22.3402 26.749C22.3925 26.6509 22.4539 26.558 22.5237 26.4714C22.5588 26.4284 22.5973 26.3865 22.6359 26.348C22.6755 26.3085 22.7171 26.2711 22.7605 26.2358C22.8035 26.2007 22.8488 26.1667 22.8941 26.1361C22.9406 26.1054 22.9887 26.077 23.038 26.0512C23.0867 26.0251 23.1366 26.0013 23.1875 25.9798C23.2385 25.9594 23.2918 25.9402 23.3439 25.9243C23.3971 25.9079 23.4512 25.8943 23.5059 25.8835C23.7249 25.839 23.9506 25.839 24.1697 25.8835C24.2244 25.8943 24.2784 25.9079 24.3317 25.9243C24.3838 25.9402 24.437 25.9594 24.488 25.9798C24.539 26.0002 24.5888 26.0251 24.6375 26.0512C24.6869 26.077 24.7349 26.1054 24.7814 26.1361C24.8267 26.1667 24.872 26.2007 24.9151 26.2358C24.9585 26.2711 25.0001 26.3085 25.0397 26.348C25.0782 26.3865 25.1167 26.4284 25.1518 26.4714C25.2216 26.558 25.2831 26.6509 25.3354 26.749C25.3614 26.7977 25.3852 26.8487 25.4067 26.8996C25.4282 26.9506 25.4464 27.0027 25.4634 27.056C25.4804 27.1092 25.4928 27.1636 25.5041 27.2168C25.5155 27.2701 25.5234 27.3263 25.5291 27.3818V27.3822ZM27.8015 27.5487C27.8013 27.3257 27.8451 27.1048 27.9303 26.8986C28.0155 26.6925 28.1406 26.5052 28.2982 26.3474C28.4559 26.1896 28.6431 26.0644 28.8491 25.979C29.0552 25.8935 29.2761 25.8496 29.4991 25.8495H29.5023C29.8383 25.8498 30.1667 25.9498 30.4459 26.1367C30.7251 26.3236 30.9427 26.5891 31.071 26.8996C31.1994 27.2101 31.2328 27.5517 31.1671 27.8812C31.1013 28.2107 30.9394 28.5134 30.7017 28.7508C30.464 28.9883 30.1612 29.15 29.8316 29.2154C29.502 29.2809 29.1605 29.2471 28.8501 29.1185C28.5397 28.9898 28.2744 28.772 28.0877 28.4926C27.9011 28.2132 27.8015 27.8848 27.8015 27.5487ZM33.4723 27.7159C33.4669 27.6602 33.4642 27.6043 33.4644 27.5483C33.4642 27.4927 33.4669 27.4371 33.4723 27.3818C33.478 27.3263 33.4871 27.2708 33.4973 27.2164C33.5075 27.162 33.5222 27.1088 33.5381 27.0555C33.5541 27.0024 33.573 26.9502 33.5947 26.8992C33.6151 26.8482 33.64 26.7972 33.6649 26.7485C33.7182 26.6507 33.7799 26.5579 33.8496 26.471C33.8847 26.4279 33.9232 26.386 33.9617 26.3475C34.0013 26.3081 34.0429 26.2706 34.0863 26.2354C34.129 26.1996 34.1736 26.1663 34.22 26.1357C34.2664 26.1055 34.314 26.0771 34.3627 26.0507C34.4114 26.0247 34.4624 26.0009 34.5134 25.9793C34.5644 25.9578 34.6176 25.9397 34.6697 25.9238C34.723 25.9075 34.7771 25.8938 34.8317 25.8831C34.9957 25.8497 35.1637 25.8413 35.3302 25.8581C35.3857 25.8636 35.4409 25.8719 35.4956 25.8831C35.5499 25.8937 35.6036 25.9073 35.6564 25.9238C35.7097 25.9397 35.7629 25.959 35.8139 25.9793C35.8648 25.9997 35.9147 26.0247 35.9634 26.0507C36.0128 26.0766 36.0608 26.1049 36.1073 26.1357C36.1526 26.1663 36.1979 26.2002 36.2409 26.2354C36.2842 26.2703 36.3254 26.3078 36.3644 26.3475C36.4041 26.386 36.4414 26.4279 36.4777 26.471C36.5117 26.514 36.5457 26.5593 36.5763 26.6058C36.607 26.6519 36.6353 26.6995 36.6612 26.7485C36.6873 26.7972 36.7111 26.8482 36.7326 26.8992C36.7539 26.9502 36.7725 27.0024 36.7881 27.0555C36.805 27.1082 36.8186 27.162 36.8289 27.2164C36.8406 27.2709 36.8489 27.3262 36.8538 27.3818C36.8596 27.4371 36.8627 27.4927 36.8629 27.5483C36.8627 27.6043 36.8596 27.6603 36.8538 27.7159C36.8488 27.7712 36.8405 27.826 36.8289 27.8802C36.8186 27.935 36.805 27.9891 36.7881 28.0422C36.7723 28.0952 36.7538 28.1474 36.7326 28.1985C36.7111 28.2495 36.6873 28.3005 36.6612 28.3492C36.6352 28.3979 36.6068 28.4455 36.5763 28.4919C36.5457 28.5384 36.5117 28.5837 36.4777 28.6256C36.4414 28.6698 36.4041 28.7106 36.3644 28.7502C36.3254 28.7899 36.2842 28.8274 36.2409 28.8624C36.1979 28.8975 36.1526 28.9303 36.1073 28.9609C36.0608 28.992 36.0128 29.0207 35.9634 29.047C35.9149 29.0732 35.865 29.0966 35.8139 29.1172C35.7625 29.139 35.7099 29.1579 35.6564 29.1739C35.6043 29.1897 35.5499 29.2033 35.4956 29.2147C35.3863 29.2369 35.2751 29.2479 35.1636 29.2475C35.1077 29.2477 35.0517 29.2451 34.996 29.2396C34.9408 29.234 34.886 29.2257 34.8317 29.2147C34.7773 29.2033 34.723 29.1897 34.6697 29.1739C34.6167 29.1577 34.5645 29.1388 34.5134 29.1172C34.4619 29.0966 34.4116 29.0732 34.3627 29.047C34.314 29.0209 34.2664 28.9915 34.22 28.9609C34.1736 28.9306 34.129 28.8977 34.0863 28.8624C34.0429 28.8271 34.0013 28.7897 33.9617 28.7502C33.9232 28.7106 33.8847 28.6698 33.8496 28.6256C33.8142 28.583 33.7813 28.5383 33.751 28.4919C33.7204 28.4455 33.691 28.3979 33.6649 28.3492C33.6389 28.3005 33.6151 28.2495 33.5947 28.1985C33.5731 28.1474 33.5542 28.0952 33.5381 28.0422C33.5222 27.989 33.5086 27.9346 33.4973 27.8802C33.4859 27.8258 33.478 27.7703 33.4723 27.7159Z" fill="#0073BB"/>
<script xmlns=""/></svg>