<svg xmlns="http://www.w3.org/2000/svg" width="81" height="80" viewBox="0 0 81 80" fill="none"><script xmlns=""/>
<g clip-path="url(#clip0_2081_8165)">
<rect x="0.5" width="80" height="80" rx="40" fill="#1C4C81"/>
<path d="M32.2117 27.3599C21.2187 22.8247 39.1582 -2.67871 39.1582 -2.67871H40.6786L71.8247 6.2188L85.5656 61.0698L40.6786 92.9441L37.4068 76.0411C37.4068 76.0411 45.6694 58.7186 49.1204 48.3349C52.5714 37.9511 43.2047 31.8951 32.2117 27.3599Z" fill="#169BD7"/>
<path d="M50.4997 51.25C49.4284 51.25 48.3811 50.9323 47.4903 50.3372C46.5996 49.742 45.9053 48.896 45.4953 47.9062C45.0854 46.9165 44.9781 45.8273 45.1871 44.7766C45.3961 43.7259 45.912 42.7607 46.6695 42.0032C47.4271 41.2457 48.3922 40.7298 49.4429 40.5208C50.4937 40.3118 51.5828 40.419 52.5725 40.829C53.5623 41.239 54.4083 41.9333 55.0035 42.824C55.5987 43.7148 55.9163 44.762 55.9163 45.8334C55.9146 47.2694 55.3433 48.6461 54.3279 49.6616C53.3125 50.677 51.9357 51.2483 50.4997 51.25ZM50.4997 42.9167C49.9228 42.9167 49.3589 43.0877 48.8793 43.4082C48.3996 43.7287 48.0258 44.1842 47.805 44.7172C47.5843 45.2501 47.5265 45.8366 47.6391 46.4024C47.7516 46.9681 48.0294 47.4878 48.4373 47.8958C48.8452 48.3037 49.3649 48.5814 49.9307 48.694C50.4964 48.8065 51.0829 48.7488 51.6158 48.528C52.1488 48.3072 52.6043 47.9334 52.9248 47.4538C53.2453 46.9741 53.4163 46.4102 53.4163 45.8334C53.4155 45.0601 53.1079 44.3187 52.5611 43.7719C52.0143 43.2251 51.273 42.9176 50.4997 42.9167Z" fill="white"/>
<path d="M53.8333 57.9167H47.1667C46.3934 57.9158 45.652 57.6082 45.1052 57.0614C44.5585 56.5146 44.2509 55.7733 44.25 55C44.25 53.3424 44.9085 51.7527 46.0806 50.5806C47.2527 49.4085 48.8424 48.75 50.5 48.75C52.1576 48.75 53.7473 49.4085 54.9194 50.5806C56.0915 51.7527 56.75 53.3424 56.75 55C56.7491 55.7733 56.4415 56.5146 55.8948 57.0614C55.348 57.6082 54.6066 57.9158 53.8333 57.9167ZM50.5 51.25C49.5058 51.2513 48.5528 51.6468 47.8498 52.3498C47.1468 53.0528 46.7513 54.0058 46.75 55C46.75 55.1105 46.7939 55.2165 46.872 55.2946C46.9502 55.3728 47.0562 55.4167 47.1667 55.4167H53.8333C53.9438 55.4167 54.0498 55.3728 54.128 55.2946C54.2061 55.2165 54.25 55.1105 54.25 55C54.2487 54.0058 53.8532 53.0528 53.1502 52.3498C52.4472 51.6468 51.4942 51.2513 50.5 51.25Z" fill="white"/>
<path d="M30.4997 32.9167C29.4284 32.9167 28.3811 32.599 27.4903 32.0038C26.5996 31.4086 25.9053 30.5626 25.4953 29.5729C25.0854 28.5831 24.9781 27.494 25.1871 26.4433C25.3961 25.3925 25.912 24.4274 26.6695 23.6699C27.427 22.9123 28.3922 22.3964 29.4429 22.1874C30.4937 21.9784 31.5828 22.0857 32.5725 22.4957C33.5623 22.9056 34.4083 23.5999 35.0035 24.4907C35.5987 25.3814 35.9163 26.4287 35.9163 27.5C35.9146 28.9361 35.3433 30.3128 34.3279 31.3282C33.3124 32.3437 31.9357 32.9149 30.4997 32.9167ZM30.4997 24.5833C29.9228 24.5833 29.3589 24.7544 28.8793 25.0749C28.3996 25.3954 28.0258 25.8509 27.805 26.3839C27.5843 26.9168 27.5265 27.5032 27.6391 28.069C27.7516 28.6348 28.0294 29.1545 28.4373 29.5624C28.8452 29.9703 29.3649 30.2481 29.9307 30.3606C30.4964 30.4732 31.0829 30.4154 31.6158 30.1947C32.1488 29.9739 32.6043 29.6001 32.9248 29.1204C33.2453 28.6408 33.4163 28.0769 33.4163 27.5C33.4155 26.7267 33.1079 25.9854 32.5611 25.4386C32.0143 24.8918 31.273 24.5842 30.4997 24.5833Z" fill="white"/>
<path d="M33.8333 39.5834H27.1667C26.3934 39.5825 25.652 39.2749 25.1052 38.7281C24.5585 38.1813 24.2509 37.44 24.25 36.6667C24.25 35.0091 24.9085 33.4194 26.0806 32.2473C27.2527 31.0752 28.8424 30.4167 30.5 30.4167C32.1576 30.4167 33.7473 31.0752 34.9194 32.2473C36.0915 33.4194 36.75 35.0091 36.75 36.6667C36.7491 37.44 36.4415 38.1813 35.8948 38.7281C35.348 39.2749 34.6066 39.5825 33.8333 39.5834ZM30.5 32.9167C29.5057 32.9176 28.5524 33.3129 27.8493 34.016C27.1463 34.7191 26.7509 35.6724 26.75 36.6667C26.75 36.7772 26.7939 36.8832 26.872 36.9613C26.9502 37.0395 27.0562 37.0834 27.1667 37.0834H33.8333C33.9438 37.0834 34.0498 37.0395 34.128 36.9613C34.2061 36.8832 34.25 36.7772 34.25 36.6667C34.2491 35.6724 33.8537 34.7191 33.1507 34.016C32.4476 33.3129 31.4943 32.9176 30.5 32.9167Z" fill="white"/>
<path d="M50.5 37.9167C50.1685 37.9167 49.8505 37.785 49.6161 37.5506C49.3817 37.3161 49.25 36.9982 49.25 36.6667V30C49.2491 29.4478 49.0293 28.9184 48.6388 28.5279C48.2483 28.1373 47.7189 27.9176 47.1667 27.9167H40.5C40.1685 27.9167 39.8505 27.785 39.6161 27.5506C39.3817 27.3162 39.25 26.9982 39.25 26.6667C39.25 26.3352 39.3817 26.0172 39.6161 25.7828C39.8505 25.5484 40.1685 25.4167 40.5 25.4167H47.1667C48.382 25.4176 49.5472 25.9007 50.4066 26.7601C51.2659 27.6194 51.7491 28.7847 51.75 30V36.6667C51.75 36.9982 51.6183 37.3161 51.3839 37.5506C51.1495 37.785 50.8315 37.9167 50.5 37.9167Z" fill="white"/>
<path d="M50.5003 37.9167C50.3361 37.9171 50.1735 37.8849 50.0218 37.8219C49.8702 37.759 49.7326 37.6666 49.6169 37.55L46.2836 34.2167C46.1608 34.1022 46.0623 33.9642 45.994 33.8109C45.9256 33.6576 45.8889 33.492 45.8859 33.3242C45.883 33.1564 45.9139 32.9897 45.9767 32.834C46.0396 32.6784 46.1332 32.537 46.2519 32.4183C46.3706 32.2996 46.5119 32.206 46.6676 32.1431C46.8232 32.0803 46.99 32.0494 47.1578 32.0523C47.3256 32.0553 47.4912 32.092 47.6445 32.1604C47.7978 32.2287 47.9358 32.3272 48.0503 32.45L50.5003 34.8983L52.9503 32.45C53.1872 32.2292 53.5006 32.109 53.8245 32.1147C54.1483 32.1204 54.4573 32.2516 54.6863 32.4806C54.9153 32.7097 55.0465 33.0186 55.0522 33.3425C55.0579 33.6663 54.9377 33.9797 54.7169 34.2167L51.3836 37.55C51.268 37.6666 51.1303 37.759 50.9787 37.8219C50.8271 37.8849 50.6644 37.9171 50.5003 37.9167Z" fill="white"/>
<path d="M40.5 54.5833H33.8333C32.618 54.5825 31.4528 54.0993 30.5934 53.2399C29.7341 52.3806 29.2509 51.2153 29.25 50V43.3333C29.25 43.0018 29.3817 42.6839 29.6161 42.4495C29.8505 42.215 30.1685 42.0833 30.5 42.0833C30.8315 42.0833 31.1495 42.215 31.3839 42.4495C31.6183 42.6839 31.75 43.0018 31.75 43.3333V50C31.7509 50.5523 31.9707 51.0817 32.3612 51.4722C32.7517 51.8627 33.2811 52.0825 33.8333 52.0833H40.5C40.8315 52.0833 41.1495 52.215 41.3839 52.4495C41.6183 52.6839 41.75 53.0018 41.75 53.3333C41.75 53.6649 41.6183 53.9828 41.3839 54.2172C41.1495 54.4516 40.8315 54.5833 40.5 54.5833Z" fill="white"/>
<path d="M33.8337 47.9167C33.6695 47.9171 33.5069 47.8849 33.3553 47.8219C33.2037 47.759 33.066 47.6666 32.9504 47.55L30.5004 45.1017L28.0504 47.55C27.8134 47.7708 27.5 47.891 27.1762 47.8853C26.8524 47.8796 26.5434 47.7484 26.3144 47.5194C26.0853 47.2903 25.9542 46.9814 25.9484 46.6575C25.9427 46.3337 26.0629 46.0203 26.2837 45.7833L29.6171 42.45C29.733 42.3339 29.8707 42.2418 30.0223 42.1789C30.1738 42.1161 30.3363 42.0837 30.5004 42.0837C30.6645 42.0837 30.827 42.1161 30.9785 42.1789C31.1301 42.2418 31.2678 42.3339 31.3837 42.45L34.7171 45.7833C34.8917 45.9581 35.0105 46.1808 35.0587 46.4231C35.1068 46.6654 35.0821 46.9166 34.9875 47.1449C34.893 47.3731 34.733 47.5683 34.5276 47.7057C34.3223 47.843 34.0808 47.9164 33.8337 47.9167Z" fill="white"/>
</g>
<rect x="2.5" y="2" width="76" height="76" rx="38" stroke="#8AC7F1" stroke-width="4"/>
<defs>
<clipPath id="clip0_2081_8165">
<rect x="0.5" width="80" height="80" rx="40" fill="white"/>
</clipPath>
</defs>
<script xmlns=""/></svg>