<svg width="39" height="38" viewBox="0 0 39 38" fill="none" xmlns="http://www.w3.org/2000/svg">
<path d="M19.4992 5.46252C12.018 5.46252 5.90234 11.5781 5.90234 19.1188C5.90234 23.5719 8.09922 27.6094 11.4242 30.0438C11.8398 27.4313 13.443 25.2344 15.6992 24.0469C14.2148 22.9188 13.2648 21.1375 13.2648 19.1188C13.2648 15.675 16.0555 12.8844 19.4992 12.8844C22.943 12.8844 25.7336 15.675 25.7336 19.1188C25.7336 21.1375 24.7836 22.9188 23.2992 24.0469C25.5555 25.2344 27.1586 27.4313 27.5742 30.0438C30.9586 27.55 33.0961 23.5719 33.0961 19.1188C33.0961 11.5781 26.9805 5.46252 19.4992 5.46252Z" fill="#8A8ED1"/>
<path d="M9.8813 13.5968C10.2969 12.9437 11.1282 12.7062 11.8407 13.0625C12.4938 13.4187 12.7313 14.3093 12.375 15.0218C12.1375 15.4968 11.6625 15.7343 11.1282 15.7343C10.8907 15.7343 10.6532 15.675 10.4157 15.5562C9.76255 15.1406 9.52505 14.25 9.8813 13.5968Z" fill="#8A8ED1"/>
<path d="M8.45605 19.1187C8.45605 18.3469 9.10918 17.6937 9.88105 17.6937C10.6529 17.6937 11.3061 18.3469 11.3061 19.1187C11.3061 19.8906 10.6529 20.5437 9.88105 20.5437C9.0498 20.5437 8.45605 19.8906 8.45605 19.1187Z" fill="#8A8ED1"/>
<path d="M11.8992 25.1749C11.6617 25.2937 11.4242 25.3531 11.1867 25.3531C10.7117 25.3531 10.2367 25.1156 9.93987 24.6406C9.52424 23.9874 9.76174 23.0968 10.4742 22.6812C11.1274 22.2656 12.018 22.5031 12.4336 23.2156C12.7899 23.9281 12.5524 24.7593 11.8992 25.1749Z" fill="#8A8ED1"/>
<path d="M15.3436 11.9938C15.1061 12.1125 14.8686 12.1719 14.6311 12.1719C14.1561 12.1719 13.6811 11.9344 13.3842 11.4594C12.9686 10.8063 13.2061 9.91567 13.9186 9.50005C14.5717 9.08442 15.4623 9.32192 15.878 10.0344C16.2342 10.6875 16.0561 11.5782 15.3436 11.9938Z" fill="#8A8ED1"/>
<path d="M19.5 10.8656C18.6687 10.8656 18.0156 10.2125 18.0156 9.44062C18.0156 8.66875 18.6687 8.01562 19.4406 8.01562H19.5C20.2719 8.01562 20.925 8.66875 20.925 9.44062C20.925 10.2125 20.2719 10.8656 19.5 10.8656Z" fill="#8A8ED1"/>
<path d="M25.5557 11.4593C25.3182 11.9343 24.7838 12.1718 24.3088 12.1718C24.0713 12.1718 23.8338 12.1125 23.5963 11.9937C22.9432 11.5781 22.7057 10.7468 23.062 10.0343C23.4776 9.3812 24.3088 9.1437 25.0213 9.49995C25.7338 9.91558 25.912 10.7468 25.5557 11.4593Z" fill="#8A8ED1"/>
<path d="M27.1588 13.0031C27.8119 12.5875 28.7026 12.825 29.1182 13.5375C29.5338 14.1906 29.2963 15.0812 28.5838 15.4968C28.3463 15.6156 28.1088 15.675 27.8713 15.675C27.3963 15.675 26.9213 15.4375 26.6244 14.9625C26.2088 14.3093 26.4463 13.4187 27.1588 13.0031Z" fill="#8A8ED1"/>
<path d="M29.1182 24.5813C28.8807 25.0563 28.4057 25.2938 27.8713 25.2938C27.6338 25.2938 27.3963 25.2344 27.1588 25.1156C26.5057 24.7 26.2682 23.8688 26.6245 23.1563C27.0401 22.5032 27.8713 22.2656 28.5838 22.6219C29.237 23.0375 29.4745 23.9282 29.1182 24.5813Z" fill="#8A8ED1"/>
<path d="M29.1184 20.4844C28.3465 20.4844 27.6934 19.8313 27.6934 19.0594C27.6934 18.2875 28.3465 17.6344 29.1184 17.6344C29.8902 17.6344 30.5434 18.2875 30.5434 19.0594C30.5434 19.8313 29.9496 20.4844 29.1184 20.4844Z" fill="#8A8ED1"/>
<path d="M19.4996 23.0969C21.6967 23.0969 23.4777 21.3158 23.4777 19.1188C23.4777 16.9217 21.6967 15.1406 19.4996 15.1406C17.3026 15.1406 15.5215 16.9217 15.5215 19.1188C15.5215 21.3158 17.3026 23.0969 19.4996 23.0969Z" fill="white"/>
<path d="M19.5 25.3531C16.2344 25.3531 13.5625 28.025 13.5625 31.2906V31.35C15.3437 32.2406 17.3625 32.7156 19.5 32.7156C21.6375 32.7156 23.5969 32.2406 25.3781 31.35V31.2906C25.3781 28.025 22.7656 25.3531 19.5 25.3531Z" fill="white"/>
<path d="M19.4996 34.9719C28.255 34.9719 35.3527 27.8742 35.3527 19.1187C35.3527 10.3633 28.255 3.26562 19.4996 3.26562C10.7442 3.26562 3.64648 10.3633 3.64648 19.1187C3.64648 27.8742 10.7442 34.9719 19.4996 34.9719Z" fill="#200D38"/>
<path d="M25.3781 31.35C23.5969 32.2406 21.5781 32.7156 19.5 32.7156C17.4219 32.7156 15.4031 32.2406 13.5625 31.35V31.2906C13.5625 28.025 16.2344 25.3531 19.5 25.3531C22.7656 25.3531 25.4375 28.025 25.4375 31.2906C25.3781 31.2906 25.3781 31.35 25.3781 31.35Z" fill="white"/>
<path d="M19.4996 23.0969C21.6967 23.0969 23.4777 21.3158 23.4777 19.1188C23.4777 16.9217 21.6967 15.1406 19.4996 15.1406C17.3026 15.1406 15.5215 16.9217 15.5215 19.1188C15.5215 21.3158 17.3026 23.0969 19.4996 23.0969Z" fill="white"/>
<path d="M27.5742 30.0438C27.1586 27.4313 25.5555 25.2344 23.2992 24.0469C24.7836 22.9188 25.7336 21.1375 25.7336 19.1188C25.7336 15.675 22.943 12.8844 19.4992 12.8844C16.0555 12.8844 13.2648 15.675 13.2648 19.1188C13.2648 21.1375 14.2148 22.9188 15.6992 24.0469C13.443 25.2344 11.8398 27.4313 11.4242 30.0438C8.09922 27.55 5.90234 23.5719 5.90234 19.1188C5.90234 11.5781 12.018 5.46252 19.4992 5.46252C26.9805 5.46252 33.0961 11.5781 33.0961 19.0594C33.0961 23.5719 30.8992 27.55 27.5742 30.0438Z" fill="#8A8ED1"/>
<path d="M25.0213 9.50005C24.3682 9.08442 23.4776 9.32192 23.0619 10.0344C22.6463 10.6875 22.8838 11.5782 23.5963 11.9938C23.8338 12.1125 24.0713 12.1719 24.3088 12.1719C24.7838 12.1719 25.2588 11.9344 25.5557 11.4594C25.9119 10.7469 25.7338 9.91567 25.0213 9.50005Z" fill="white"/>
<path d="M9.88105 20.5437C10.6529 20.5437 11.3061 19.8906 11.3061 19.1187C11.3061 18.3469 10.6529 17.6937 9.88105 17.6937C9.10918 17.6937 8.45605 18.3469 8.45605 19.1187C8.45605 19.8906 9.0498 20.5437 9.88105 20.5437Z" fill="white"/>
<path d="M27.8713 15.675C28.1088 15.675 28.3463 15.6156 28.5838 15.4969C29.237 15.0813 29.4745 14.25 29.1182 13.5375C28.7026 12.8844 27.8713 12.6469 27.1588 13.0031C26.5057 13.4188 26.2682 14.25 26.6245 14.9625C26.862 15.4375 27.337 15.675 27.8713 15.675Z" fill="white"/>
<path d="M10.4157 15.4968C10.6532 15.6156 10.8907 15.675 11.1282 15.675C11.6032 15.675 12.0782 15.4375 12.375 14.9625C12.7313 14.3093 12.5532 13.4187 11.8407 13.0031C11.1875 12.5875 10.2969 12.825 9.8813 13.5375C9.52505 14.25 9.76255 15.1406 10.4157 15.4968Z" fill="white"/>
<path d="M28.5838 22.6812C27.9307 22.2656 27.0401 22.5031 26.6244 23.2156C26.2088 23.8687 26.4463 24.7593 27.1588 25.1749C27.3963 25.2937 27.6338 25.3531 27.8713 25.3531C28.3463 25.3531 28.8213 25.1156 29.1182 24.6406C29.4744 23.9281 29.2369 23.0374 28.5838 22.6812Z" fill="white"/>
<path d="M29.1184 17.6344C28.3465 17.6344 27.6934 18.2875 27.6934 19.0594C27.6934 19.8313 28.3465 20.4844 29.1184 20.4844C29.8902 20.4844 30.5434 19.8313 30.5434 19.0594C30.5434 18.2875 29.9496 17.6344 29.1184 17.6344Z" fill="white"/>
<path d="M19.5 8.01562H19.4406C18.6687 8.01562 18.0156 8.66875 18.0156 9.44062C18.0156 10.2125 18.6687 10.8656 19.4406 10.8656H19.5C20.2719 10.8656 20.925 10.2125 20.925 9.44062C20.925 8.66875 20.2719 8.01562 19.5 8.01562Z" fill="white"/>
<path d="M13.9186 9.49995C13.2655 9.91558 13.028 10.7468 13.3842 11.4593C13.6217 11.9343 14.0967 12.1718 14.6311 12.1718C14.8686 12.1718 15.1061 12.1125 15.3436 11.9937C15.9967 11.5781 16.2342 10.7468 15.878 10.0343C15.4624 9.3812 14.6311 9.1437 13.9186 9.49995Z" fill="white"/>
<path d="M10.4157 22.7406C9.76255 23.1563 9.52505 23.9875 9.8813 24.7C10.1188 25.175 10.5938 25.4125 11.1282 25.4125C11.3657 25.4125 11.6032 25.3531 11.8407 25.2344C12.4938 24.8188 12.7313 23.9875 12.375 23.275C12.0188 22.5625 11.1282 22.325 10.4157 22.7406Z" fill="white"/>
</svg>
