<svg xmlns="http://www.w3.org/2000/svg" width="61" height="60" viewBox="0 0 61 60" fill="none"><script xmlns=""/>
<path fill-rule="evenodd" clip-rule="evenodd" d="M47.9125 23.75V19.57C47.9125 17.7475 47.1875 16 45.8975 14.71C43.4925 12.305 38.7325 7.545 36.3275 5.1375C35.0375 3.85 33.29 3.125 31.465 3.125H10.5C8.6775 3.125 6.9275 3.85 5.6375 5.1375C4.35 6.4275 3.625 8.1775 3.625 10V50C3.625 51.8225 4.35 53.5725 5.6375 54.8625C6.9275 56.15 8.6775 56.875 10.5 56.875H23C24.035 56.875 24.875 56.035 24.875 55C24.875 53.965 24.035 53.125 23 53.125H10.5C9.67 53.125 8.8775 52.795 8.29 52.21C7.705 51.6225 7.375 50.83 7.375 50V10C7.375 9.17 7.705 8.3775 8.29 7.79C8.8775 7.205 9.67 6.875 10.5 6.875H31.465C32.295 6.875 33.09 7.205 33.675 7.79L43.2475 17.3625C43.8325 17.9475 44.1625 18.7425 44.1625 19.57V23.75C44.1625 24.785 45.0025 25.625 46.0375 25.625C47.0725 25.625 47.9125 24.785 47.9125 23.75Z" fill="#9F63C6"/>
<path fill-rule="evenodd" clip-rule="evenodd" d="M31.6621 6.25V15C31.6621 17.4175 33.6196 19.375 36.0371 19.375H44.7871C45.8221 19.375 46.6621 18.535 46.6621 17.5C46.6621 16.465 45.8221 15.625 44.7871 15.625H36.0371C35.6921 15.625 35.4121 15.345 35.4121 15V6.25C35.4121 5.215 34.5721 4.375 33.5371 4.375C32.5021 4.375 31.6621 5.215 31.6621 6.25Z" fill="#9F63C6"/>
<path fill-rule="evenodd" clip-rule="evenodd" d="M14.25 19.375H21.75C22.785 19.375 23.625 18.535 23.625 17.5C23.625 16.465 22.785 15.625 21.75 15.625H14.25C13.215 15.625 12.375 16.465 12.375 17.5C12.375 18.535 13.215 19.375 14.25 19.375Z" fill="#9F63C6"/>
<path fill-rule="evenodd" clip-rule="evenodd" d="M14.25 34.375H21.75C22.785 34.375 23.625 33.535 23.625 32.5C23.625 31.465 22.785 30.625 21.75 30.625H14.25C13.215 30.625 12.375 31.465 12.375 32.5C12.375 33.535 13.215 34.375 14.25 34.375Z" fill="#9F63C6"/>
<path fill-rule="evenodd" clip-rule="evenodd" d="M14.25 26.875H29.25C30.285 26.875 31.125 26.035 31.125 25C31.125 23.965 30.285 23.125 29.25 23.125H14.25C13.215 23.125 12.375 23.965 12.375 25C12.375 26.035 13.215 26.875 14.25 26.875Z" fill="#9F63C6"/>
<path fill-rule="evenodd" clip-rule="evenodd" d="M57.375 45C57.375 43.84 56.915 42.7275 56.0925 41.9075C55.2725 41.085 54.16 40.625 53 40.625H46.75C45.715 40.625 44.875 41.465 44.875 42.5V55C44.875 56.035 45.715 56.875 46.75 56.875H53C54.16 56.875 55.2725 56.415 56.0925 55.5925C56.915 54.7725 57.375 53.66 57.375 52.5V45ZM53.625 45V52.5C53.625 52.665 53.56 52.825 53.4425 52.9425C53.325 53.06 53.165 53.125 53 53.125H48.625V44.375H53C53.165 44.375 53.325 44.44 53.4425 44.5575C53.56 44.675 53.625 44.835 53.625 45Z" fill="#9F63C6"/>
<path fill-rule="evenodd" clip-rule="evenodd" d="M48.625 55V32.5C48.625 30.0825 46.665 28.125 44.25 28.125H40.5C38.085 28.125 36.125 30.0825 36.125 32.5V55C36.125 56.035 36.965 56.875 38 56.875H46.75C47.785 56.875 48.625 56.035 48.625 55ZM44.875 32.5V53.125H39.875V32.5C39.875 32.155 40.155 31.875 40.5 31.875H44.25C44.595 31.875 44.875 32.155 44.875 32.5Z" fill="#9F63C6"/>
<path fill-rule="evenodd" clip-rule="evenodd" d="M39.875 37.5C39.875 36.465 39.035 35.625 38 35.625H31.75C30.59 35.625 29.4775 36.085 28.6575 36.9075C27.835 37.7275 27.375 38.84 27.375 40V52.5C27.375 53.66 27.835 54.7725 28.6575 55.5925C29.4775 56.415 30.59 56.875 31.75 56.875H38C39.035 56.875 39.875 56.035 39.875 55V37.5ZM36.125 39.375V53.125H31.75C31.585 53.125 31.425 53.06 31.3075 52.9425C31.19 52.825 31.125 52.665 31.125 52.5V40C31.125 39.835 31.19 39.675 31.3075 39.5575C31.425 39.44 31.585 39.375 31.75 39.375H36.125Z" fill="#9F63C6"/>
<script xmlns=""/></svg>