<svg xmlns="http://www.w3.org/2000/svg" width="25" height="24" viewBox="0 0 25 24" fill="none"><script xmlns=""/>
    <path d="M16.91 3.99999C18.85 3.99999 20.41 5.56999 20.41 7.49999C20.41 9.38999 18.91 10.93 17.04 11C16.9536 10.99 16.8664 10.99 16.78 11M18.84 20C19.56 19.85 20.24 19.56 20.8 19.13C22.36 17.96 22.36 16.03 20.8 14.86C20.25 14.44 19.58 14.16 18.87 14M9.66 10.87C9.56 10.86 9.44 10.86 9.33 10.87C8.1822 10.831 7.09464 10.3468 6.29763 9.51995C5.50062 8.69307 5.05674 7.58844 5.06 6.43999C5.06 3.98999 7.04 1.99999 9.5 1.99999C10.6762 1.97877 11.8127 2.42568 12.6594 3.2424C13.5062 4.05912 13.9938 5.17875 14.015 6.35499C14.0362 7.53123 13.5893 8.66771 12.7726 9.51444C11.9559 10.3612 10.8362 10.8488 9.66 10.87ZM4.66 14.56C2.24 16.18 2.24 18.82 4.66 20.43C7.41 22.27 11.92 22.27 14.67 20.43C17.09 18.81 17.09 16.17 14.67 14.56C11.93 12.73 7.42 12.73 4.66 14.56Z" stroke="white" strokeWidth="1.5" strokeLinecap="round" strokeLinejoin="round"/>
<script xmlns=""/></svg>