<svg xmlns="http://www.w3.org/2000/svg" width="61" height="60" viewBox="0 0 61 60" fill="none"><script xmlns=""/>
<path d="M44.8077 25.45H51.25V42.95H30.15V38.4C30.15 35.1225 28.3117 32.3069 25.6367 30.8363C26.5637 29.8482 27.15 28.5036 27.15 27C27.15 23.862 24.6381 21.35 21.5 21.35C18.3619 21.35 15.85 23.862 15.85 27C15.85 28.4569 16.4428 29.7995 17.3711 30.8321C14.6919 32.3014 12.85 35.1193 12.85 38.4V42.95H9.75V19.2C9.75 18.6781 10.1781 18.25 10.7 18.25H30.85V21.6C30.85 23.7181 32.5819 25.45 34.7 25.45H36.85V28.8C36.85 29.3625 37.1345 29.8839 37.6615 30.1098L37.6711 30.1139L37.6809 30.1172L37.6965 30.1224C37.8657 30.1789 38.0789 30.25 38.3 30.25C38.6695 30.25 38.9584 30.1016 39.1587 29.968L39.1677 29.962L39.1762 29.9552L44.8077 25.45ZM57.75 21.6V12C57.75 9.88195 56.0181 8.15002 53.9 8.15002H34.7C32.5819 8.15002 30.85 9.88195 30.85 12V15.35H10.7C8.58193 15.35 6.85 17.082 6.85 19.2V42.95H4.7C3.90193 42.95 3.25 43.6019 3.25 44.4C3.25 48.4981 6.60193 51.85 10.7 51.85H50.3C54.3981 51.85 57.75 48.4981 57.75 44.4C57.75 43.6019 57.0981 42.95 56.3 42.95H54.15V25.4419C56.1527 25.3121 57.75 23.6341 57.75 21.6ZM21.5 32.65C24.6619 32.65 27.25 35.2381 27.25 38.4V42.95H15.75V38.4C15.75 35.2381 18.3381 32.65 21.5 32.65ZM18.75 27C18.75 25.4581 19.9581 24.25 21.5 24.25C23.0419 24.25 24.25 25.4581 24.25 27C24.25 28.542 23.0419 29.75 21.5 29.75C19.9581 29.75 18.75 28.542 18.75 27ZM6.35462 45.85H54.6459C54.0378 47.6754 52.3498 48.95 50.3 48.95H10.7C8.70538 48.95 6.96783 47.6739 6.35462 45.85ZM44.3 22.55C43.9744 22.55 43.6598 22.614 43.4141 22.8525L39.75 25.7623V24C39.75 23.202 39.0981 22.55 38.3 22.55H34.7C34.1781 22.55 33.75 22.122 33.75 21.6V12C33.75 11.4781 34.1781 11.05 34.7 11.05H53.9C54.4219 11.05 54.85 11.4781 54.85 12V21.6C54.85 22.122 54.4219 22.55 53.9 22.55H44.3ZM38.3 18.25C39.0981 18.25 39.75 17.5981 39.75 16.8C39.75 16.002 39.0981 15.35 38.3 15.35C37.5019 15.35 36.85 16.002 36.85 16.8C36.85 17.5981 37.5019 18.25 38.3 18.25ZM44.3 18.25C45.0981 18.25 45.75 17.5981 45.75 16.8C45.75 16.002 45.0981 15.35 44.3 15.35C43.5019 15.35 42.85 16.002 42.85 16.8C42.85 17.5981 43.5019 18.25 44.3 18.25ZM50.3 18.25C51.0981 18.25 51.75 17.5981 51.75 16.8C51.75 16.002 51.0981 15.35 50.3 15.35C49.5019 15.35 48.85 16.002 48.85 16.8C48.85 17.5981 49.5019 18.25 50.3 18.25Z" fill="#9F63C6" stroke="#9F63C6" stroke-width="0.5"/>
<script xmlns=""/></svg>