<svg xmlns="http://www.w3.org/2000/svg" width="81" height="80" viewBox="0 0 81 80" fill="none"><script xmlns=""/>
<g clip-path="url(#clip0_2081_8157)">
<rect x="0.5" width="80" height="80" rx="40" fill="#1C4C81"/>
<path d="M32.2117 27.3599C21.2187 22.8247 39.1582 -2.67871 39.1582 -2.67871H40.6786L71.8247 6.2188L85.5656 61.0698L40.6786 92.9441L37.4068 76.0411C37.4068 76.0411 45.6694 58.7186 49.1204 48.3349C52.5714 37.9511 43.2047 31.8951 32.2117 27.3599Z" fill="#169BD7"/>
<path fill-rule="evenodd" clip-rule="evenodd" d="M52.108 35.8333V33.0467C52.108 31.8317 51.6247 30.6667 50.7647 29.8067C49.1613 28.2033 45.988 25.03 44.3847 23.425C43.5247 22.5667 42.3597 22.0833 41.143 22.0833H27.1663C25.9513 22.0833 24.7847 22.5667 23.9247 23.425C23.0663 24.285 22.583 25.4517 22.583 26.6667V53.3333C22.583 54.5483 23.0663 55.715 23.9247 56.575C24.7847 57.4333 25.9513 57.9167 27.1663 57.9167H35.4997C36.1897 57.9167 36.7497 57.3567 36.7497 56.6667C36.7497 55.9767 36.1897 55.4167 35.4997 55.4167H27.1663C26.613 55.4167 26.0847 55.1967 25.693 54.8067C25.303 54.415 25.083 53.8867 25.083 53.3333V26.6667C25.083 26.1133 25.303 25.585 25.693 25.1933C26.0847 24.8033 26.613 24.5833 27.1663 24.5833H41.143C41.6963 24.5833 42.2263 24.8033 42.6163 25.1933L48.998 31.575C49.388 31.965 49.608 32.495 49.608 33.0467V35.8333C49.608 36.5233 50.168 37.0833 50.858 37.0833C51.548 37.0833 52.108 36.5233 52.108 35.8333Z" fill="white"/>
<path fill-rule="evenodd" clip-rule="evenodd" d="M41.2744 24.1667V30C41.2744 31.6117 42.5794 32.9167 44.1911 32.9167H50.0244C50.7144 32.9167 51.2744 32.3567 51.2744 31.6667C51.2744 30.9767 50.7144 30.4167 50.0244 30.4167H44.1911C43.9611 30.4167 43.7744 30.23 43.7744 30V24.1667C43.7744 23.4767 43.2144 22.9167 42.5244 22.9167C41.8344 22.9167 41.2744 23.4767 41.2744 24.1667Z" fill="white"/>
<path fill-rule="evenodd" clip-rule="evenodd" d="M29.666 32.9167H34.666C35.356 32.9167 35.916 32.3567 35.916 31.6667C35.916 30.9767 35.356 30.4167 34.666 30.4167H29.666C28.976 30.4167 28.416 30.9767 28.416 31.6667C28.416 32.3567 28.976 32.9167 29.666 32.9167Z" fill="white"/>
<path fill-rule="evenodd" clip-rule="evenodd" d="M29.666 42.9167H34.666C35.356 42.9167 35.916 42.3567 35.916 41.6667C35.916 40.9767 35.356 40.4167 34.666 40.4167H29.666C28.976 40.4167 28.416 40.9767 28.416 41.6667C28.416 42.3567 28.976 42.9167 29.666 42.9167Z" fill="white"/>
<path fill-rule="evenodd" clip-rule="evenodd" d="M29.666 37.9167H39.666C40.356 37.9167 40.916 37.3567 40.916 36.6667C40.916 35.9767 40.356 35.4167 39.666 35.4167H29.666C28.976 35.4167 28.416 35.9767 28.416 36.6667C28.416 37.3567 28.976 37.9167 29.666 37.9167Z" fill="white"/>
<path fill-rule="evenodd" clip-rule="evenodd" d="M58.4163 50C58.4163 49.2267 58.1097 48.485 57.5613 47.9383C57.0147 47.39 56.273 47.0833 55.4997 47.0833H51.333C50.643 47.0833 50.083 47.6433 50.083 48.3333V56.6667C50.083 57.3567 50.643 57.9167 51.333 57.9167H55.4997C56.273 57.9167 57.0147 57.61 57.5613 57.0617C58.1097 56.515 58.4163 55.7733 58.4163 55V50ZM55.9163 50V55C55.9163 55.11 55.873 55.2167 55.7947 55.295C55.7163 55.3733 55.6097 55.4167 55.4997 55.4167H52.583V49.5833H55.4997C55.6097 49.5833 55.7163 49.6267 55.7947 49.705C55.873 49.7833 55.9163 49.89 55.9163 50Z" fill="white"/>
<path fill-rule="evenodd" clip-rule="evenodd" d="M52.5833 56.6667V41.6667C52.5833 40.055 51.2767 38.75 49.6667 38.75H47.1667C45.5567 38.75 44.25 40.055 44.25 41.6667V56.6667C44.25 57.3567 44.81 57.9167 45.5 57.9167H51.3333C52.0233 57.9167 52.5833 57.3567 52.5833 56.6667ZM50.0833 41.6667V55.4167H46.75V41.6667C46.75 41.4367 46.9367 41.25 47.1667 41.25H49.6667C49.8967 41.25 50.0833 41.4367 50.0833 41.6667Z" fill="white"/>
<path fill-rule="evenodd" clip-rule="evenodd" d="M46.7493 45C46.7493 44.31 46.1893 43.75 45.4993 43.75H41.3327C40.5593 43.75 39.8177 44.0567 39.271 44.605C38.7227 45.1517 38.416 45.8933 38.416 46.6667V55C38.416 55.7733 38.7227 56.515 39.271 57.0617C39.8177 57.61 40.5593 57.9167 41.3327 57.9167H45.4993C46.1893 57.9167 46.7493 57.3567 46.7493 56.6667V45ZM44.2493 46.25V55.4167H41.3327C41.2227 55.4167 41.116 55.3733 41.0377 55.295C40.9593 55.2167 40.916 55.11 40.916 55V46.6667C40.916 46.5567 40.9593 46.45 41.0377 46.3717C41.116 46.2933 41.2227 46.25 41.3327 46.25H44.2493Z" fill="white"/>
</g>
<rect x="2.5" y="2" width="76" height="76" rx="38" stroke="#620A79" stroke-width="4"/>
<defs>
<clipPath id="clip0_2081_8157">
<rect x="0.5" width="80" height="80" rx="40" fill="white"/>
</clipPath>
</defs>
<script xmlns=""/></svg>