<svg xmlns="http://www.w3.org/2000/svg" width="97" height="100" viewBox="0 0 97 100" fill="none">
<g filter="url(#filter0_dd_2081_8320)">
<g clip-path="url(#clip0_2081_8320)">
<rect x="0.5" width="80" height="80" rx="40" fill="white"/>
<rect x="-2.5" y="-4" width="86" height="88" rx="43" fill="white"/>
<g clip-path="url(#clip1_2081_8320)">
<path d="M50.1079 41.6104L45.389 46.3293L43.4438 44.3841C42.9863 43.9267 42.2441 43.9267 41.7867 44.3844C41.3289 44.8419 41.3289 45.5841 41.7867 46.0418L44.5607 48.8153C44.7893 49.0442 45.0893 49.1586 45.3893 49.1586C45.6893 49.1586 45.989 49.0442 46.2178 48.8153L51.7653 43.2678C52.2231 42.8103 52.2231 42.0682 51.7653 41.6107C51.3076 41.1529 50.5657 41.1529 50.1079 41.6104Z" fill="#169BD9"/>
<path d="M55.4057 34.3484H47.9478V25.0943C47.9478 22.2855 45.6624 20 42.8532 20H25.594C22.7852 20 20.5 22.2855 20.5 25.0943V36.6345C20.5 39.0402 22.1766 41.0605 24.4221 41.5912V44.4797C24.4221 44.9536 24.7078 45.3809 25.1457 45.5624C25.2906 45.6226 25.4429 45.6516 25.594 45.6516C25.8989 45.6516 26.1985 45.5325 26.4229 45.3082L30.0023 41.7291H33.0525V50.983C33.0525 53.7921 35.3376 56.0773 38.1465 56.0773H50.9977L54.5768 59.6567C54.8011 59.881 55.1008 60 55.406 60C55.5568 60 55.709 59.971 55.854 59.9109C56.2919 59.7293 56.5776 59.3021 56.5776 58.8281V55.9415C58.8237 55.4108 60.5 53.389 60.5 50.983V39.4427C60.5 36.6336 58.2145 34.3484 55.4057 34.3484ZM29.5167 39.3854C29.2057 39.3854 28.9076 39.5087 28.6882 39.7284L26.7659 41.6504V40.5573C26.7659 39.91 26.2413 39.3854 25.594 39.3854C24.0776 39.3854 22.8438 38.1512 22.8438 36.6345V25.0943C22.8438 23.5776 24.0776 22.3438 25.594 22.3438H42.8532C44.3699 22.3438 45.6041 23.5776 45.6041 25.0943V34.3484H38.1465C35.3569 34.3484 33.0848 36.6028 33.0537 39.3854H29.5167ZM58.1562 50.983C58.1562 52.4997 56.9224 53.7335 55.4057 53.7335C54.7584 53.7335 54.2338 54.2584 54.2338 54.9054V55.9988L52.3118 54.0768C52.0921 53.8568 51.7939 53.7335 51.483 53.7335H38.1465C36.6301 53.7335 35.3962 52.4997 35.3962 50.983V39.4427C35.3962 37.926 36.6301 36.6922 38.1465 36.6922H55.4057C56.9224 36.6922 58.1562 37.926 58.1562 39.4427V50.983Z" fill="#169BD9"/>
</g>
</g>
<rect x="1" y="0.5" width="79" height="79" rx="39.5" stroke="#171717" stroke-opacity="0.04"/>
</g>
<defs>
<filter id="filter0_dd_2081_8320" x="-15.5" y="-12" width="112" height="112" filterUnits="userSpaceOnUse" color-interpolation-filters="sRGB">
<feFlood flood-opacity="0" result="BackgroundImageFix"/>
<feColorMatrix in="SourceAlpha" type="matrix" values="0 0 0 0 0 0 0 0 0 0 0 0 0 0 0 0 0 0 127 0" result="hardAlpha"/>
<feMorphology radius="2" operator="erode" in="SourceAlpha" result="effect1_dropShadow_2081_8320"/>
<feOffset dy="4"/>
<feGaussianBlur stdDeviation="9"/>
<feComposite in2="hardAlpha" operator="out"/>
<feColorMatrix type="matrix" values="0 0 0 0 0.0901961 0 0 0 0 0.0901961 0 0 0 0 0.0901961 0 0 0 0.09 0"/>
<feBlend mode="normal" in2="BackgroundImageFix" result="effect1_dropShadow_2081_8320"/>
<feColorMatrix in="SourceAlpha" type="matrix" values="0 0 0 0 0 0 0 0 0 0 0 0 0 0 0 0 0 0 127 0" result="hardAlpha"/>
<feMorphology radius="2" operator="erode" in="SourceAlpha" result="effect2_dropShadow_2081_8320"/>
<feOffset dy="2"/>
<feGaussianBlur stdDeviation="4"/>
<feComposite in2="hardAlpha" operator="out"/>
<feColorMatrix type="matrix" values="0 0 0 0 0.0901961 0 0 0 0 0.0901961 0 0 0 0 0.0901961 0 0 0 0.08 0"/>
<feBlend mode="normal" in2="effect1_dropShadow_2081_8320" result="effect2_dropShadow_2081_8320"/>
<feBlend mode="normal" in="SourceGraphic" in2="effect2_dropShadow_2081_8320" result="shape"/>
</filter>
<clipPath id="clip0_2081_8320">
<rect x="0.5" width="80" height="80" rx="40" fill="white"/>
</clipPath>
<clipPath id="clip1_2081_8320">
<rect width="40" height="40" fill="white" transform="translate(20.5 20)"/>
</clipPath>
</defs>
</svg>