<svg xmlns="http://www.w3.org/2000/svg" width="21" height="20" viewBox="0 0 21 20" fill="none"><script xmlns=""/>
<circle cx="10.167" cy="10" r="10" fill="white"/>
<path d="M15.2099 6.23787C15.1352 6.1625 15.0462 6.10267 14.9482 6.06185C14.8502 6.02102 14.7451 6 14.639 6C14.5328 6 14.4277 6.02102 14.3297 6.06185C14.2317 6.10267 14.1427 6.1625 14.068 6.23787L8.07685 12.2371L5.55977 9.71193C5.48215 9.63695 5.39052 9.57799 5.29011 9.53842C5.18971 9.49886 5.08249 9.47945 4.97459 9.48132C4.86668 9.48318 4.7602 9.50629 4.66122 9.5493C4.56224 9.59232 4.47271 9.65442 4.39773 9.73204C4.32275 9.80966 4.26379 9.90129 4.22422 10.0017C4.18465 10.1021 4.16525 10.2093 4.16712 10.3172C4.16898 10.4251 4.19208 10.5316 4.2351 10.6306C4.27812 10.7296 4.34021 10.8191 4.41783 10.8941L7.50588 13.9821C7.58064 14.0575 7.66959 14.1173 7.76758 14.1582C7.86558 14.199 7.97069 14.22 8.07685 14.22C8.18301 14.22 8.28812 14.199 8.38612 14.1582C8.48412 14.1173 8.57306 14.0575 8.64782 13.9821L15.2099 7.42002C15.2916 7.34471 15.3567 7.25332 15.4013 7.15159C15.4458 7.04986 15.4688 6.94001 15.4688 6.82895C15.4688 6.71789 15.4458 6.60803 15.4013 6.50631C15.3567 6.40458 15.2916 6.31318 15.2099 6.23787Z" fill="#0073BB"/>
<script xmlns=""/></svg>