<svg xmlns="http://www.w3.org/2000/svg" width="60" height="60" viewBox="0 0 60 60" fill="none"><script xmlns=""/>
<path d="M30 53.5C29.251 53.4995 28.5117 53.3308 27.8367 53.0063C27.1616 52.6817 26.5681 52.2097 26.1 51.625L21.55 45.95C21.3172 45.6554 21.021 45.417 20.6834 45.2525C20.3458 45.088 19.9755 45.0017 19.6 45H12.5C10.5109 45 8.60322 44.2098 7.1967 42.8033C5.79018 41.3968 5 39.4891 5 37.5V12.5C5 10.5109 5.79018 8.60322 7.1967 7.1967C8.60322 5.79018 10.5109 5 12.5 5H47.5C49.4891 5 51.3968 5.79018 52.8033 7.1967C54.2098 8.60322 55 10.5109 55 12.5V37.5C55 39.4891 54.2098 41.3968 52.8033 42.8033C51.3968 44.2098 49.4891 45 47.5 45H40.4C40.0245 45.0017 39.6542 45.088 39.3166 45.2525C38.979 45.417 38.6828 45.6554 38.45 45.95L33.9 51.625C33.4319 52.2097 32.8384 52.6817 32.1634 53.0063C31.4883 53.3308 30.749 53.4995 30 53.5ZM12.5 10C11.837 10 11.2011 10.2634 10.7322 10.7322C10.2634 11.2011 10 11.837 10 12.5V37.5C10 38.163 10.2634 38.7989 10.7322 39.2678C11.2011 39.7366 11.837 40 12.5 40H19.6C20.7245 40.0022 21.8341 40.2572 22.8467 40.7462C23.8594 41.2352 24.7491 41.9457 25.45 42.825L30 48.5L34.55 42.825C35.2509 41.9457 36.1406 41.2352 37.1533 40.7462C38.1659 40.2572 39.2755 40.0022 40.4 40H47.5C48.163 40 48.7989 39.7366 49.2678 39.2678C49.7366 38.7989 50 38.163 50 37.5V12.5C50 11.837 49.7366 11.2011 49.2678 10.7322C48.7989 10.2634 48.163 10 47.5 10H12.5Z" fill="url(#paint0_linear_1260_8855)"/>
<path d="M32.5 37.5H30C29.337 37.5 28.7011 37.2366 28.2322 36.7678C27.7634 36.2989 27.5 35.663 27.5 35V27.5C26.837 27.5 26.2011 27.2366 25.7322 26.7678C25.2634 26.2989 25 25.663 25 25C25 24.337 25.2634 23.7011 25.7322 23.2322C26.2011 22.7634 26.837 22.5 27.5 22.5H30C30.663 22.5 31.2989 22.7634 31.7678 23.2322C32.2366 23.7011 32.5 24.337 32.5 25V32.5C33.163 32.5 33.7989 32.7634 34.2678 33.2322C34.7366 33.7011 35 34.337 35 35C35 35.663 34.7366 36.2989 34.2678 36.7678C33.7989 37.2366 33.163 37.5 32.5 37.5Z" fill="url(#paint1_linear_1260_8855)"/>
<path d="M30 19.375C31.7259 19.375 33.125 17.9759 33.125 16.25C33.125 14.5241 31.7259 13.125 30 13.125C28.2741 13.125 26.875 14.5241 26.875 16.25C26.875 17.9759 28.2741 19.375 30 19.375Z" fill="url(#paint2_linear_1260_8855)"/>
<defs>
<linearGradient id="paint0_linear_1260_8855" x1="5" y1="29.25" x2="54.8066" y2="32.3535" gradientUnits="userSpaceOnUse">
<stop offset="0.104452" stop-color="#7143D7"/>
<stop offset="0.47615" stop-color="#2C57F3"/>
<stop offset="1" stop-color="#4ED4F7"/>
</linearGradient>
<linearGradient id="paint1_linear_1260_8855" x1="25" y1="30" x2="34.9838" y2="30.4023" gradientUnits="userSpaceOnUse">
<stop offset="0.104452" stop-color="#7143D7"/>
<stop offset="0.47615" stop-color="#2C57F3"/>
<stop offset="1" stop-color="#4ED4F7"/>
</linearGradient>
<linearGradient id="paint2_linear_1260_8855" x1="26.875" y1="16.25" x2="33.1023" y2="16.6264" gradientUnits="userSpaceOnUse">
<stop offset="0.104452" stop-color="#7143D7"/>
<stop offset="0.47615" stop-color="#2C57F3"/>
<stop offset="1" stop-color="#4ED4F7"/>
</linearGradient>
</defs>
<script xmlns=""/></svg>