<svg xmlns="http://www.w3.org/2000/svg" width="60" height="60" viewBox="0 0 60 60" fill="none"><script xmlns=""/>
<g clip-path="url(#clip0_1260_9002)">
<path d="M44.4109 32.4156L37.3325 39.494L34.4147 36.5763C33.7285 35.8901 32.6152 35.8901 31.929 36.5767C31.2424 37.2629 31.2424 38.3762 31.929 39.0628L36.0901 43.223C36.433 43.5663 36.883 43.738 37.3329 43.738C37.7829 43.738 38.2325 43.5663 38.5758 43.223L46.897 34.9018C47.5836 34.2156 47.5836 33.1023 46.897 32.4161C46.2104 31.7295 45.0975 31.7295 44.4109 32.4156Z" fill="url(#paint0_linear_1260_9002)"/>
<path d="M52.3586 21.5227H41.1717V7.64145C41.1717 3.42819 37.7435 0 33.5298 0H7.64099C3.42773 0 0 3.42819 0 7.64145V24.9518C0 28.5603 2.51495 31.5907 5.88318 32.3868V36.7195C5.88318 37.4304 6.31165 38.0713 6.96854 38.3437C7.18597 38.4338 7.4144 38.4773 7.64099 38.4773C8.0983 38.4773 8.54782 38.2988 8.88428 37.9623L14.2534 32.5937H18.8287V46.4745C18.8287 50.6882 22.2565 54.1159 26.4697 54.1159H45.7466L51.1153 59.485C51.4517 59.8215 51.9012 60 52.359 60C52.5851 60 52.8136 59.9565 53.031 59.8663C53.6879 59.594 54.1164 58.9531 54.1164 58.2422V53.9122C57.4855 53.1161 60 50.0835 60 46.4745V29.1641C60 24.9504 56.5718 21.5227 52.3586 21.5227ZM13.5251 29.0781C13.0586 29.0781 12.6114 29.263 12.2823 29.5926L9.3988 32.4756V30.8359C9.3988 29.865 8.61191 29.0781 7.64099 29.0781C5.36636 29.0781 3.51562 27.2269 3.51562 24.9518V7.64145C3.51562 5.36636 5.36636 3.51562 7.64099 3.51562H33.5298C35.8049 3.51562 37.6561 5.36636 37.6561 7.64145V21.5227H26.4697C22.2853 21.5227 18.8773 24.9042 18.8306 29.0781H13.5251ZM56.4844 46.4745C56.4844 48.7495 54.6336 50.6003 52.3586 50.6003C51.3876 50.6003 50.6007 51.3876 50.6007 52.3581V53.9983L47.7177 51.1153C47.3882 50.7852 46.9409 50.6003 46.4745 50.6003H26.4697C24.1951 50.6003 22.3444 48.7495 22.3444 46.4745V29.1641C22.3444 26.889 24.1951 25.0383 26.4697 25.0383H52.3586C54.6336 25.0383 56.4844 26.889 56.4844 29.1641V46.4745Z" fill="url(#paint1_linear_1260_9002)"/>
</g>
<defs>
<linearGradient id="paint0_linear_1260_9002" x1="31.4141" y1="37.8195" x2="47.3059" y2="39.1177" gradientUnits="userSpaceOnUse">
<stop offset="0.104452" stop-color="#7143D7"/>
<stop offset="0.47615" stop-color="#2C57F3"/>
<stop offset="1" stop-color="#4ED4F7"/>
</linearGradient>
<linearGradient id="paint1_linear_1260_9002" x1="0" y1="30" x2="59.7816" y2="33.6133" gradientUnits="userSpaceOnUse">
<stop offset="0.104452" stop-color="#7143D7"/>
<stop offset="0.47615" stop-color="#2C57F3"/>
<stop offset="1" stop-color="#4ED4F7"/>
</linearGradient>
<clipPath id="clip0_1260_9002">
<rect width="60" height="60" fill="white"/>
</clipPath>
</defs>
<script xmlns=""/></svg>