<svg xmlns="http://www.w3.org/2000/svg" width="60" height="60" viewBox="0 0 60 60" fill="none"><script xmlns=""/>
<path fill-rule="evenodd" clip-rule="evenodd" d="M18.1252 16.5776V13.6532C18.1252 11.4875 19.7096 9.6478 21.8512 9.32655L24.901 8.86908C28.2816 8.362 31.7188 8.362 35.0996 8.86908L38.1493 9.32655C40.2908 9.6478 41.8753 11.4875 41.8753 13.6532V16.5776L46.1603 16.9235C49.4413 17.1883 52.1176 19.6587 52.6438 22.908C53.8068 30.0893 53.8068 37.411 52.6438 44.5923C52.1176 47.8418 49.4413 50.312 46.1603 50.5768L41.4806 50.9545C33.8393 51.5713 26.1611 51.5713 18.5199 50.9545L13.8401 50.5768C10.5592 50.312 7.88281 47.8418 7.35661 44.5923C6.19363 37.411 6.19363 30.0893 7.35661 22.908C7.88281 19.6587 10.5592 17.1883 13.8401 16.9235L18.1252 16.5776ZM25.4573 12.5776C28.4691 12.1258 31.5313 12.1258 34.5431 12.5776L37.5931 13.0351C37.8988 13.081 38.1253 13.3438 38.1253 13.6532V16.3147C32.7131 16.006 27.2876 16.006 21.8752 16.3147V13.6532C21.8752 13.3438 22.1016 13.081 22.4075 13.0351L25.4573 12.5776ZM18.8216 20.2836C26.2618 19.683 33.7386 19.683 41.1788 20.2836L45.8586 20.6613C47.4191 20.7873 48.6918 21.9621 48.9421 23.5075C49.0978 24.4698 49.2316 25.4348 49.3433 26.4018C37.1493 32.4063 22.8512 32.4063 10.6572 26.4018C10.7688 25.4348 10.9025 24.4698 11.0584 23.5075C11.3086 21.9621 12.5815 20.7873 14.1418 20.6613L18.8216 20.2836ZM10.3225 30.3918C22.821 36.076 37.1796 36.076 49.6781 30.3918C49.9163 34.9323 49.6711 39.4918 48.9421 43.9928C48.6918 45.5382 47.4191 46.713 45.8586 46.839L41.1788 47.2168C33.7386 47.8173 26.2618 47.8173 18.8216 47.2168L14.1418 46.839C12.5815 46.713 11.3086 45.5382 11.0584 43.9928C10.3295 39.4918 10.0841 34.9323 10.3225 30.3918Z" fill="url(#paint0_linear_1260_8786)"/>
<defs>
<linearGradient id="paint0_linear_1260_8786" x1="6.48438" y1="29.9529" x2="53.3107" y2="33.0537" gradientUnits="userSpaceOnUse">
<stop offset="0.104452" stop-color="#7143D7"/>
<stop offset="0.47615" stop-color="#2C57F3"/>
<stop offset="1" stop-color="#4ED4F7"/>
</linearGradient>
</defs>
<script xmlns=""/></svg>