<svg xmlns="http://www.w3.org/2000/svg" width="60" height="60" viewBox="0 0 60 60" fill="none"><script xmlns=""/>
<path d="M30 3.75C27.4041 3.75 24.8665 4.51977 22.7081 5.96196C20.5498 7.40416 18.8675 9.454 17.8741 11.8523C16.8807 14.2506 16.6208 16.8896 17.1272 19.4356C17.6336 21.9816 18.8837 24.3202 20.7192 26.1558C22.5548 27.9913 24.8934 29.2414 27.4394 29.7478C29.9854 30.2542 32.6244 29.9943 35.0227 29.0009C37.421 28.0075 39.4709 26.3253 40.913 24.1669C42.3552 22.0085 43.125 19.4709 43.125 16.875C43.125 13.394 41.7422 10.0556 39.2808 7.59422C36.8194 5.13281 33.481 3.75 30 3.75ZM30 26.25C28.1458 26.25 26.3332 25.7002 24.7915 24.67C23.2498 23.6399 22.0482 22.1757 21.3386 20.4627C20.6291 18.7496 20.4434 16.8646 20.8051 15.046C21.1669 13.2275 22.0598 11.557 23.3709 10.2459C24.682 8.93476 26.3525 8.04187 28.171 7.68014C29.9896 7.3184 31.8746 7.50406 33.5877 8.21363C35.3007 8.9232 36.7649 10.1248 37.795 11.6665C38.8252 13.2082 39.375 15.0208 39.375 16.875C39.375 18.1061 39.1325 19.3252 38.6614 20.4627C38.1902 21.6001 37.4997 22.6336 36.6291 23.5041C35.7586 24.3747 34.7251 25.0652 33.5877 25.5364C32.4502 26.0075 31.2311 26.25 30 26.25Z" fill="url(#paint0_linear_1260_8860)"/>
<path d="M39.6937 33.75H20.3062C15.9168 33.755 11.7085 35.5009 8.60469 38.6047C5.50087 41.7085 3.75496 45.9168 3.75 50.3062C3.75 51.8826 4.37621 53.3944 5.49088 54.5091C6.60555 55.6238 8.11737 56.25 9.69375 56.25H50.3063C51.8826 56.25 53.3944 55.6238 54.5091 54.5091C55.6238 53.3944 56.25 51.8826 56.25 50.3062C56.245 45.9168 54.4991 41.7085 51.3953 38.6047C48.2915 35.5009 44.0832 33.755 39.6937 33.75ZM50.3063 52.5H9.69375C9.11193 52.5 8.55394 52.2689 8.14253 51.8575C7.73113 51.4461 7.5 50.8881 7.5 50.3062C7.5 46.9098 8.84923 43.6525 11.2509 41.2509C13.6525 38.8492 16.9098 37.5 20.3062 37.5H39.6937C43.0902 37.5 46.3475 38.8492 48.7491 41.2509C51.1508 43.6525 52.5 46.9098 52.5 50.3062C52.5 50.8881 52.2689 51.4461 51.8575 51.8575C51.4461 52.2689 50.8881 52.5 50.3063 52.5Z" fill="url(#paint1_linear_1260_8860)"/>
<defs>
<linearGradient id="paint0_linear_1260_8860" x1="16.875" y1="16.875" x2="43.0295" y2="18.4558" gradientUnits="userSpaceOnUse">
<stop offset="0.104452" stop-color="#7143D7"/>
<stop offset="0.47615" stop-color="#2C57F3"/>
<stop offset="1" stop-color="#4ED4F7"/>
</linearGradient>
<linearGradient id="paint1_linear_1260_8860" x1="3.75" y1="45" x2="55.2262" y2="52.2597" gradientUnits="userSpaceOnUse">
<stop offset="0.104452" stop-color="#7143D7"/>
<stop offset="0.47615" stop-color="#2C57F3"/>
<stop offset="1" stop-color="#4ED4F7"/>
</linearGradient>
</defs>
<script xmlns=""/></svg>