<svg xmlns="http://www.w3.org/2000/svg" width="60" height="60" viewBox="0 0 60 60" fill="none"><script xmlns=""/>
<g clip-path="url(#clip0_1260_8864)">
<path d="M58.4542 50.9986L49.5404 42.0847C47.8983 40.4426 45.4731 40.1268 43.5373 41.0534L40.1964 37.7125C43.6266 33.7144 45.7022 28.5218 45.7022 22.8531C45.7022 10.253 35.4512 0.00201416 22.8511 0.00201416C10.251 0.00201416 0 10.2529 0 22.853C0 35.4531 10.251 45.7041 22.8511 45.7041C28.5198 45.7041 33.7124 43.6285 37.7105 40.1983L41.0514 43.5392C40.1258 45.4725 40.4384 47.8981 42.0827 49.5423C42.9164 50.376 50.1132 57.573 50.9966 58.4562C53.0527 60.5121 56.398 60.5122 58.4542 58.4562C60.5152 56.3956 60.5155 53.0598 58.4542 50.9986ZM22.8511 42.1885C12.1895 42.1885 3.51551 33.5145 3.51551 22.8529C3.51551 12.1913 12.1895 3.5174 22.8511 3.5174C33.5127 3.5174 42.1867 12.1914 42.1867 22.853C42.1867 33.5146 33.5127 42.1885 22.8511 42.1885ZM44.5688 47.0564C43.8817 46.3694 43.8817 45.2577 44.5688 44.5705C45.2542 43.8852 46.3692 43.8852 47.0548 44.5705L48.2977 45.8135L45.8118 48.2994L44.5688 47.0564ZM55.9684 55.9702C55.2831 56.6556 54.168 56.6555 53.4825 55.9702L48.2974 50.7851L50.7833 48.2992L55.9683 53.4842C56.6538 54.1697 56.6538 55.2849 55.9684 55.9702Z" fill="url(#paint0_linear_1260_8864)"/>
<path d="M27.9507 20.6549C29.1465 19.3938 29.8825 17.6926 29.8825 15.8218C29.8825 11.9449 26.7284 8.79071 22.8513 8.79071C18.9744 8.79071 15.8202 11.9448 15.8202 15.8218C15.8202 17.6927 16.5561 19.3938 17.7519 20.6549C14.5066 22.4552 12.3047 25.9171 12.3047 29.884V33.3995C12.3047 34.3703 13.0917 35.1573 14.0625 35.1573H31.6403C32.6111 35.1573 33.3981 34.3703 33.3981 33.3995V29.884C33.398 25.9171 31.1961 22.4552 27.9507 20.6549ZM22.8513 12.3062C24.7898 12.3062 26.3668 13.8833 26.3668 15.8217C26.3668 17.7601 24.7897 19.3372 22.8513 19.3372C20.9128 19.3372 19.3358 17.7601 19.3358 15.8217C19.3358 13.8833 20.9129 12.3062 22.8513 12.3062ZM29.8825 31.6418H15.8202V29.884C15.8202 26.0071 18.9743 22.8529 22.8513 22.8529C26.7282 22.8529 29.8825 26.007 29.8825 29.884V31.6418Z" fill="url(#paint1_linear_1260_8864)"/>
</g>
<defs>
<linearGradient id="paint0_linear_1260_8864" x1="0" y1="30.0001" x2="59.7816" y2="33.6136" gradientUnits="userSpaceOnUse">
<stop offset="0.104452" stop-color="#7143D7"/>
<stop offset="0.47615" stop-color="#2C57F3"/>
<stop offset="1" stop-color="#4ED4F7"/>
</linearGradient>
<linearGradient id="paint1_linear_1260_8864" x1="12.3047" y1="21.974" x2="33.3489" y2="22.9916" gradientUnits="userSpaceOnUse">
<stop offset="0.104452" stop-color="#7143D7"/>
<stop offset="0.47615" stop-color="#2C57F3"/>
<stop offset="1" stop-color="#4ED4F7"/>
</linearGradient>
<clipPath id="clip0_1260_8864">
<rect width="60" height="60" fill="white"/>
</clipPath>
</defs>
<script xmlns=""/></svg>