<svg xmlns="http://www.w3.org/2000/svg" width="587" height="553" viewBox="0 0 587 553" fill="none"><script xmlns=""/>
<mask id="path-1-inside-1_1677_8105" fill="white">
<path d="M-5 -36.7222H99.4118V67.6896H-5V-36.7222Z"/>
</mask>
<path d="M-5 -36.7222V-38.2756H-6.55338V-36.7222H-5ZM-5 -35.1688H99.4118V-38.2756H-5V-35.1688ZM-3.44662 67.6896V-36.7222H-6.55338V67.6896H-3.44662Z" fill="#4CC9F0" fill-opacity="0.44" mask="url(#path-1-inside-1_1677_8105)"/>
<mask id="path-3-inside-2_1677_8105" fill="white">
<path d="M99.4121 -36.722H203.824V67.6897H99.4121V-36.722Z"/>
</mask>
<path d="M99.4121 -36.722V-38.2754H97.8587V-36.722H99.4121ZM99.4121 -35.1687H203.824V-38.2754H99.4121V-35.1687ZM100.965 67.6897V-36.722H97.8587V67.6897H100.965Z" fill="#4CC9F0" fill-opacity="0.44" mask="url(#path-3-inside-2_1677_8105)"/>
<mask id="path-5-inside-3_1677_8105" fill="white">
<path d="M203.823 -36.722H308.235V67.6897H203.823V-36.722Z"/>
</mask>
<path d="M203.823 -36.722V-38.2754H202.27V-36.722H203.823ZM203.823 -35.1687H308.235V-38.2754H203.823V-35.1687ZM205.377 67.6897V-36.722H202.27V67.6897H205.377Z" fill="#4CC9F0" fill-opacity="0.44" mask="url(#path-5-inside-3_1677_8105)"/>
<mask id="path-7-inside-4_1677_8105" fill="white">
<path d="M308.235 -36.722H412.647V67.6897H308.235V-36.722Z"/>
</mask>
<path d="M308.235 -36.722V-38.2754H306.682V-36.722H308.235ZM308.235 -35.1687H412.647V-38.2754H308.235V-35.1687ZM309.789 67.6897V-36.722H306.682V67.6897H309.789Z" fill="#4CC9F0" fill-opacity="0.44" mask="url(#path-7-inside-4_1677_8105)"/>
<mask id="path-9-inside-5_1677_8105" fill="white">
<path d="M412.646 -36.722H517.058V67.6897H412.646V-36.722Z"/>
</mask>
<path d="M412.646 -36.722V-38.2754H411.093V-36.722H412.646ZM412.646 -35.1687H517.058V-38.2754H412.646V-35.1687ZM414.2 67.6897V-36.722H411.093V67.6897H414.2Z" fill="#4CC9F0" fill-opacity="0.44" mask="url(#path-9-inside-5_1677_8105)"/>
<mask id="path-11-inside-6_1677_8105" fill="white">
<path d="M517.059 -36.722H621.47V67.6897H517.059V-36.722Z"/>
</mask>
<path d="M517.059 -36.722V-38.2754H515.505V-36.722H517.059ZM517.059 -35.1687H621.47V-38.2754H517.059V-35.1687ZM518.612 67.6897V-36.722H515.505V67.6897H518.612Z" fill="#4CC9F0" fill-opacity="0.44" mask="url(#path-11-inside-6_1677_8105)"/>
<mask id="path-13-inside-7_1677_8105" fill="white">
<path d="M-5 67.6896H99.4118V172.101H-5V67.6896Z"/>
</mask>
<path d="M-5 67.6896V66.1362H-6.55338V67.6896H-5ZM-5 69.243H99.4118V66.1362H-5V69.243ZM-3.44662 172.101V67.6896H-6.55338V172.101H-3.44662Z" fill="#4CC9F0" fill-opacity="0.44" mask="url(#path-13-inside-7_1677_8105)"/>
<mask id="path-15-inside-8_1677_8105" fill="white">
<path d="M99.4121 67.6896H203.824V172.101H99.4121V67.6896Z"/>
</mask>
<path d="M99.4121 67.6896V66.1362H97.8587V67.6896H99.4121ZM99.4121 69.243H203.824V66.1362H99.4121V69.243ZM100.965 172.101V67.6896H97.8587V172.101H100.965Z" fill="#4CC9F0" fill-opacity="0.44" mask="url(#path-15-inside-8_1677_8105)"/>
<mask id="path-17-inside-9_1677_8105" fill="white">
<path d="M203.823 67.6896H308.235V172.101H203.823V67.6896Z"/>
</mask>
<path d="M203.823 67.6896V66.1362H202.27V67.6896H203.823ZM203.823 69.243H308.235V66.1362H203.823V69.243ZM205.377 172.101V67.6896H202.27V172.101H205.377Z" fill="#4CC9F0" fill-opacity="0.44" mask="url(#path-17-inside-9_1677_8105)"/>
<mask id="path-19-inside-10_1677_8105" fill="white">
<path d="M308.235 67.6896H412.647V172.101H308.235V67.6896Z"/>
</mask>
<path d="M308.235 67.6896V66.1362H306.682V67.6896H308.235ZM308.235 69.243H412.647V66.1362H308.235V69.243ZM309.789 172.101V67.6896H306.682V172.101H309.789Z" fill="#4CC9F0" fill-opacity="0.44" mask="url(#path-19-inside-10_1677_8105)"/>
<mask id="path-21-inside-11_1677_8105" fill="white">
<path d="M412.646 67.6896H517.058V172.101H412.646V67.6896Z"/>
</mask>
<path d="M412.646 67.6896V66.1362H411.093V67.6896H412.646ZM412.646 69.243H517.058V66.1362H412.646V69.243ZM414.2 172.101V67.6896H411.093V172.101H414.2Z" fill="#4CC9F0" fill-opacity="0.44" mask="url(#path-21-inside-11_1677_8105)"/>
<mask id="path-23-inside-12_1677_8105" fill="white">
<path d="M517.059 67.6896H621.47V172.101H517.059V67.6896Z"/>
</mask>
<path d="M517.059 67.6896V66.1362H515.505V67.6896H517.059ZM517.059 69.243H621.47V66.1362H517.059V69.243ZM518.612 172.101V67.6896H515.505V172.101H518.612Z" fill="#4CC9F0" fill-opacity="0.44" mask="url(#path-23-inside-12_1677_8105)"/>
<mask id="path-25-inside-13_1677_8105" fill="white">
<path d="M-5 172.101H99.4118V276.513H-5V172.101Z"/>
</mask>
<path d="M-5 172.101V170.548H-6.55338V172.101H-5ZM-5 173.655H99.4118V170.548H-5V173.655ZM-3.44662 276.513V172.101H-6.55338V276.513H-3.44662Z" fill="#4CC9F0" fill-opacity="0.44" mask="url(#path-25-inside-13_1677_8105)"/>
<mask id="path-27-inside-14_1677_8105" fill="white">
<path d="M99.4121 172.101H203.824V276.513H99.4121V172.101Z"/>
</mask>
<path d="M99.4121 172.101V170.548H97.8587V172.101H99.4121ZM99.4121 173.655H203.824V170.548H99.4121V173.655ZM100.965 276.513V172.101H97.8587V276.513H100.965Z" fill="#4CC9F0" fill-opacity="0.44" mask="url(#path-27-inside-14_1677_8105)"/>
<mask id="path-29-inside-15_1677_8105" fill="white">
<path d="M203.823 172.101H308.235V276.513H203.823V172.101Z"/>
</mask>
<path d="M203.823 172.101V170.548H202.27V172.101H203.823ZM203.823 173.655H308.235V170.548H203.823V173.655ZM205.377 276.513V172.101H202.27V276.513H205.377Z" fill="#4CC9F0" fill-opacity="0.44" mask="url(#path-29-inside-15_1677_8105)"/>
<mask id="path-31-inside-16_1677_8105" fill="white">
<path d="M308.235 172.101H412.647V276.513H308.235V172.101Z"/>
</mask>
<path d="M308.235 172.101V170.548H306.682V172.101H308.235ZM308.235 173.655H412.647V170.548H308.235V173.655ZM309.789 276.513V172.101H306.682V276.513H309.789Z" fill="#4CC9F0" fill-opacity="0.44" mask="url(#path-31-inside-16_1677_8105)"/>
<mask id="path-33-inside-17_1677_8105" fill="white">
<path d="M412.646 172.101H517.058V276.513H412.646V172.101Z"/>
</mask>
<path d="M412.646 172.101V170.548H411.093V172.101H412.646ZM412.646 173.655H517.058V170.548H412.646V173.655ZM414.2 276.513V172.101H411.093V276.513H414.2Z" fill="#4CC9F0" fill-opacity="0.44" mask="url(#path-33-inside-17_1677_8105)"/>
<mask id="path-35-inside-18_1677_8105" fill="white">
<path d="M517.059 172.101H621.47V276.513H517.059V172.101Z"/>
</mask>
<path d="M517.059 172.101V170.548H515.505V172.101H517.059ZM517.059 173.655H621.47V170.548H517.059V173.655ZM518.612 276.513V172.101H515.505V276.513H518.612Z" fill="#4CC9F0" fill-opacity="0.44" mask="url(#path-35-inside-18_1677_8105)"/>
<mask id="path-37-inside-19_1677_8105" fill="white">
<path d="M-5 276.513H99.4118V380.925H-5V276.513Z"/>
</mask>
<path d="M-5 276.513V274.96H-6.55338V276.513H-5ZM-5 278.067H99.4118V274.96H-5V278.067ZM-3.44662 380.925V276.513H-6.55338V380.925H-3.44662Z" fill="#4CC9F0" fill-opacity="0.44" mask="url(#path-37-inside-19_1677_8105)"/>
<mask id="path-39-inside-20_1677_8105" fill="white">
<path d="M99.4121 276.513H203.824V380.925H99.4121V276.513Z"/>
</mask>
<path d="M99.4121 276.513V274.96H97.8587V276.513H99.4121ZM99.4121 278.067H203.824V274.96H99.4121V278.067ZM100.965 380.925V276.513H97.8587V380.925H100.965Z" fill="#4CC9F0" fill-opacity="0.44" mask="url(#path-39-inside-20_1677_8105)"/>
<mask id="path-41-inside-21_1677_8105" fill="white">
<path d="M203.823 276.513H308.235V380.925H203.823V276.513Z"/>
</mask>
<path d="M203.823 276.513V274.96H202.27V276.513H203.823ZM203.823 278.067H308.235V274.96H203.823V278.067ZM205.377 380.925V276.513H202.27V380.925H205.377Z" fill="#4CC9F0" fill-opacity="0.44" mask="url(#path-41-inside-21_1677_8105)"/>
<mask id="path-43-inside-22_1677_8105" fill="white">
<path d="M308.235 276.513H412.647V380.925H308.235V276.513Z"/>
</mask>
<path d="M308.235 276.513V274.96H306.682V276.513H308.235ZM308.235 278.067H412.647V274.96H308.235V278.067ZM309.789 380.925V276.513H306.682V380.925H309.789Z" fill="#4CC9F0" fill-opacity="0.44" mask="url(#path-43-inside-22_1677_8105)"/>
<mask id="path-45-inside-23_1677_8105" fill="white">
<path d="M412.646 276.513H517.058V380.925H412.646V276.513Z"/>
</mask>
<path d="M412.646 276.513V274.96H411.093V276.513H412.646ZM412.646 278.067H517.058V274.96H412.646V278.067ZM414.2 380.925V276.513H411.093V380.925H414.2Z" fill="#4CC9F0" fill-opacity="0.44" mask="url(#path-45-inside-23_1677_8105)"/>
<mask id="path-47-inside-24_1677_8105" fill="white">
<path d="M517.059 276.513H621.47V380.925H517.059V276.513Z"/>
</mask>
<path d="M517.059 276.513V274.96H515.505V276.513H517.059ZM517.059 278.067H621.47V274.96H517.059V278.067ZM518.612 380.925V276.513H515.505V380.925H518.612Z" fill="#4CC9F0" fill-opacity="0.44" mask="url(#path-47-inside-24_1677_8105)"/>
<mask id="path-49-inside-25_1677_8105" fill="white">
<path d="M-5 380.925H99.4118V485.337H-5V380.925Z"/>
</mask>
<path d="M-5 380.925V379.372H-6.55338V380.925H-5ZM-5 382.478H99.4118V379.372H-5V382.478ZM-3.44662 485.337V380.925H-6.55338V485.337H-3.44662Z" fill="#4CC9F0" fill-opacity="0.44" mask="url(#path-49-inside-25_1677_8105)"/>
<mask id="path-51-inside-26_1677_8105" fill="white">
<path d="M99.4121 380.925H203.824V485.337H99.4121V380.925Z"/>
</mask>
<path d="M99.4121 380.925V379.372H97.8587V380.925H99.4121ZM99.4121 382.479H203.824V379.372H99.4121V382.479ZM100.965 485.337V380.925H97.8587V485.337H100.965Z" fill="#4CC9F0" fill-opacity="0.44" mask="url(#path-51-inside-26_1677_8105)"/>
<mask id="path-53-inside-27_1677_8105" fill="white">
<path d="M203.823 380.925H308.235V485.337H203.823V380.925Z"/>
</mask>
<path d="M203.823 380.925V379.372H202.27V380.925H203.823ZM203.823 382.479H308.235V379.372H203.823V382.479ZM205.377 485.337V380.925H202.27V485.337H205.377Z" fill="#4CC9F0" fill-opacity="0.44" mask="url(#path-53-inside-27_1677_8105)"/>
<mask id="path-55-inside-28_1677_8105" fill="white">
<path d="M308.235 380.925H412.647V485.337H308.235V380.925Z"/>
</mask>
<path d="M308.235 380.925V379.372H306.682V380.925H308.235ZM308.235 382.479H412.647V379.372H308.235V382.479ZM309.789 485.337V380.925H306.682V485.337H309.789Z" fill="#4CC9F0" fill-opacity="0.44" mask="url(#path-55-inside-28_1677_8105)"/>
<mask id="path-57-inside-29_1677_8105" fill="white">
<path d="M412.646 380.925H517.058V485.337H412.646V380.925Z"/>
</mask>
<path d="M412.646 380.925V379.372H411.093V380.925H412.646ZM412.646 382.479H517.058V379.372H412.646V382.479ZM414.2 485.337V380.925H411.093V485.337H414.2Z" fill="#4CC9F0" fill-opacity="0.44" mask="url(#path-57-inside-29_1677_8105)"/>
<mask id="path-59-inside-30_1677_8105" fill="white">
<path d="M517.059 380.925H621.47V485.337H517.059V380.925Z"/>
</mask>
<path d="M517.059 380.925V379.372H515.505V380.925H517.059ZM517.059 382.479H621.47V379.372H517.059V382.479ZM518.612 485.337V380.925H515.505V485.337H518.612Z" fill="#4CC9F0" fill-opacity="0.44" mask="url(#path-59-inside-30_1677_8105)"/>
<mask id="path-61-inside-31_1677_8105" fill="white">
<path d="M-5 485.337H99.4118V589.748H-5V485.337Z"/>
</mask>
<path d="M-5 485.337V483.783H-6.55338V485.337H-5ZM-5 486.89H99.4118V483.783H-5V486.89ZM-3.44662 589.748V485.337H-6.55338V589.748H-3.44662Z" fill="#4CC9F0" fill-opacity="0.44" mask="url(#path-61-inside-31_1677_8105)"/>
<mask id="path-63-inside-32_1677_8105" fill="white">
<path d="M99.4121 485.336H203.824V589.748H99.4121V485.336Z"/>
</mask>
<path d="M99.4121 485.336V483.783H97.8587V485.336H99.4121ZM99.4121 486.89H203.824V483.783H99.4121V486.89ZM100.965 589.748V485.336H97.8587V589.748H100.965Z" fill="#4CC9F0" fill-opacity="0.44" mask="url(#path-63-inside-32_1677_8105)"/>
<mask id="path-65-inside-33_1677_8105" fill="white">
<path d="M203.823 485.337H308.235V589.748H203.823V485.337Z"/>
</mask>
<path d="M203.823 485.337V483.783H202.27V485.337H203.823ZM203.823 486.89H308.235V483.783H203.823V486.89ZM205.377 589.748V485.337H202.27V589.748H205.377Z" fill="#4CC9F0" fill-opacity="0.44" mask="url(#path-65-inside-33_1677_8105)"/>
<mask id="path-67-inside-34_1677_8105" fill="white">
<path d="M308.235 485.336H412.647V589.748H308.235V485.336Z"/>
</mask>
<path d="M308.235 485.336V483.783H306.682V485.336H308.235ZM308.235 486.89H412.647V483.783H308.235V486.89ZM309.789 589.748V485.336H306.682V589.748H309.789Z" fill="#4CC9F0" fill-opacity="0.44" mask="url(#path-67-inside-34_1677_8105)"/>
<mask id="path-69-inside-35_1677_8105" fill="white">
<path d="M412.646 485.337H517.058V589.748H412.646V485.337Z"/>
</mask>
<path d="M412.646 485.337V483.783H411.093V485.337H412.646ZM412.646 486.89H517.058V483.783H412.646V486.89ZM414.2 589.748V485.337H411.093V589.748H414.2Z" fill="#4CC9F0" fill-opacity="0.44" mask="url(#path-69-inside-35_1677_8105)"/>
<mask id="path-71-inside-36_1677_8105" fill="white">
<path d="M517.059 485.337H621.47V589.748H517.059V485.337Z"/>
</mask>
<path d="M517.059 485.337V483.783H515.505V485.337H517.059ZM517.059 486.89H621.47V483.783H517.059V486.89ZM518.612 589.748V485.337H515.505V589.748H518.612Z" fill="#4CC9F0" fill-opacity="0.44" mask="url(#path-71-inside-36_1677_8105)"/>
<script xmlns=""/></svg>