<svg xmlns="http://www.w3.org/2000/svg" width="61" height="58" viewBox="0 0 61 58" fill="none"><script xmlns=""/>
<path d="M55.4656 5.81552C48.5346 -1.15453 37.0961 -0.808047 30.4971 6.43706C23.8977 -0.80779 12.4596 -1.15466 5.52871 5.81565C-1.36351 12.6794 -1.12871 23.9819 5.97265 30.6066C2.33958 34.0764 4.42091 40.3116 9.36592 40.9194C9.0697 44.3055 11.9517 47.4106 15.3608 47.3531C15.5698 51.0806 19.3111 53.7489 22.898 52.7638C24.0748 57.2047 29.7317 58.7222 32.9771 55.4537C34.8204 53.6216 36.2862 52.4662 36.3797 49.6912C39.4253 49.6064 42.0605 46.9354 42.1069 43.8916C45.1818 43.8441 47.8608 41.1642 47.9081 38.0902C51.098 38.0418 53.8638 35.1627 53.7153 31.9125L55.4653 30.1627C62.178 23.4501 62.178 12.528 55.4656 5.81552ZM8.61127 33.4084L10.255 31.7647C10.6798 31.3398 11.2376 31.1275 11.7957 31.1275C13.7091 31.1148 14.7079 33.4805 13.3361 34.8458L11.6924 36.4895C9.56481 38.4482 6.65227 35.5369 8.61127 33.4084ZM13.1944 41.3305C13.1944 40.7485 13.4211 40.2013 13.8326 39.7898L15.4772 38.1454C15.8886 37.7344 16.4353 37.5081 17.0169 37.5081C18.9466 37.5047 19.9248 39.865 18.5575 41.2274L17.1072 42.6777C16.6639 43.1801 16.0549 43.5201 15.3731 43.5092C14.2022 43.5333 13.1702 42.5017 13.1944 41.3305ZM19.8273 48.4789C18.9822 47.668 18.9822 46.2089 19.8273 45.3979L21.2776 43.9475C22.1232 42.9437 23.6076 42.813 24.5523 43.7541C25.4017 44.6036 25.4017 45.9856 24.5523 46.8353L22.9085 48.4791C22.0591 49.3289 20.6769 49.3287 19.8273 48.4789ZM31.9008 51.0899L30.2571 52.7336C29.8456 53.145 29.2984 53.3718 28.7165 53.3718C28.1345 53.3718 27.5873 53.145 27.1758 52.7336C26.3308 51.9225 26.3304 50.4633 27.1759 49.6524L28.8195 48.0087C29.6689 47.1592 31.0512 47.1592 31.9006 48.0086C32.7459 48.8197 32.7461 50.2788 31.9008 51.0899ZM49.2325 33.6131C48.4214 34.4583 46.9623 34.4584 46.1513 33.6131L37.5909 25.0528L34.8708 27.7729L43.4311 36.3333C44.2805 37.1829 44.2805 38.5649 43.4311 39.4145C42.5816 40.2643 41.1995 40.264 40.35 39.4145L31.9347 30.9993L31.7896 30.8541L29.0694 33.5743L29.2146 33.7194L37.6298 42.1347C38.4793 42.9842 38.4793 44.3664 37.6298 45.216C36.7803 46.0655 35.398 46.0655 34.5485 45.216L34.5468 45.2176C32.9838 43.7065 30.7994 43.209 28.8264 43.725C28.1983 41.1586 25.6184 39.2156 23.024 39.2721C22.8982 36.5098 20.5629 34.0144 17.8031 33.7162C18.1673 28.9768 12.9621 25.7129 8.85427 28.0476C3.13333 22.9373 2.78095 13.9663 8.24915 8.53571C13.6859 3.06084 22.6691 3.42361 27.7772 9.15725L23.0216 13.9129L26.8323 17.7235C29.7594 20.6509 34.2701 21.0537 37.6333 18.9322L49.2329 30.532C50.0819 31.3814 50.0819 32.7636 49.2325 33.6131ZM52.7454 27.4425L52.1592 28.0285C52.0924 27.9549 52.0236 27.8826 51.9528 27.8118L37.7844 13.6433L36.4243 15.0033C34.5298 16.8978 31.4471 16.8981 29.5522 15.0033L28.4617 13.9129L33.8389 8.53571C46.9007 -3.48643 64.765 14.3891 52.7454 27.4425Z" fill="white"/>
<script xmlns=""/></svg>