<svg xmlns="http://www.w3.org/2000/svg" width="60" height="42" viewBox="0 0 60 42" fill="none"><script xmlns=""/>
<path d="M45.6529 6.67498H42.3717L43.8049 5.24178C44.0661 4.98062 44.2733 4.67057 44.4148 4.32932C44.5562 3.98808 44.629 3.62232 44.629 3.25293C44.6291 2.88355 44.5564 2.51777 44.4151 2.17648C44.2738 1.83519 44.0666 1.52508 43.8055 1.26385C43.5443 1.00261 43.2343 0.795377 42.893 0.653969C42.5518 0.512561 42.186 0.439752 41.8166 0.439697C41.4472 0.439643 41.0815 0.512345 40.7402 0.653652C40.3989 0.794959 40.0888 1.0021 39.8275 1.26326L33.2346 7.85857C32.7072 8.38601 32.4109 9.10136 32.4109 9.84725C32.4109 10.5931 32.7072 11.3085 33.2346 11.8359L39.8299 18.4312C40.0903 18.6959 40.4005 18.9064 40.7426 19.0505C41.0847 19.1947 41.452 19.2697 41.8233 19.2712C42.1946 19.2727 42.5625 19.2007 42.9058 19.0594C43.2491 18.918 43.561 18.71 43.8235 18.4475C44.086 18.185 44.294 17.8731 44.4353 17.5298C44.5767 17.1865 44.6487 16.8186 44.6472 16.4473C44.6457 16.076 44.5707 15.7087 44.4265 15.3666C44.2824 15.0245 44.0719 14.7143 43.8072 14.4539L41.6533 12.3H45.6529C47.9603 12.3 50.1732 13.2166 51.8048 14.8482C53.4363 16.4797 54.3529 18.6926 54.3529 21C54.3529 23.3074 53.4363 25.5202 51.8048 27.1518C50.1732 28.7834 47.9603 29.7 45.6529 29.7C44.5489 29.6981 43.4566 29.4727 42.442 29.0375C41.4274 28.6023 40.5113 27.9662 39.749 27.1676L24.3271 10.9547C23.0383 9.60509 21.4898 8.53022 19.7748 7.79474C18.0597 7.05925 16.2136 6.67836 14.3475 6.67498C10.5482 6.67498 6.90461 8.18422 4.21816 10.8707C1.5317 13.5571 0.0224609 17.2008 0.0224609 21C0.0224609 24.7992 1.5317 28.4428 4.21816 31.1293C6.90461 33.8157 10.5482 35.325 14.3475 35.325H17.6287L16.1955 36.7582C15.9309 37.0186 15.7204 37.3288 15.5762 37.6709C15.432 38.013 15.357 38.3803 15.3555 38.7516C15.354 39.1229 15.426 39.4908 15.5674 39.8341C15.7088 40.1774 15.9167 40.4893 16.1792 40.7518C16.4418 41.0143 16.7537 41.2223 17.097 41.3636C17.4403 41.505 17.8082 41.577 18.1794 41.5755C18.5507 41.574 18.918 41.499 19.2601 41.3548C19.6023 41.2107 19.9125 41.0002 20.1729 40.7355L26.7682 34.1414C27.2956 33.6139 27.5919 32.8986 27.5919 32.1527C27.5919 31.4068 27.2956 30.6915 26.7682 30.164L20.1729 23.5687C19.9125 23.3041 19.6023 23.0936 19.2601 22.9494C18.918 22.8052 18.5507 22.7302 18.1794 22.7287C17.8082 22.7272 17.4403 22.7992 17.097 22.9406C16.7537 23.082 16.4418 23.2899 16.1792 23.5525C15.9167 23.815 15.7088 24.1269 15.5674 24.4702C15.426 24.8135 15.354 25.1814 15.3555 25.5527C15.357 25.9239 15.432 26.2912 15.5762 26.6334C15.7204 26.9755 15.9309 27.2857 16.1955 27.5461L18.3494 29.7H14.3475C12.0401 29.7 9.8272 28.7834 8.19563 27.1518C6.56407 25.5202 5.64746 23.3074 5.64746 21C5.64746 18.6926 6.56407 16.4797 8.19563 14.8482C9.8272 13.2166 12.0401 12.3 14.3475 12.3C15.4515 12.3019 16.5437 12.5272 17.5584 12.9624C18.573 13.3977 19.4891 14.0337 20.2514 14.8324L35.6732 31.0441C36.9617 32.3942 38.5102 33.4694 40.2253 34.2052C41.9404 34.9409 43.7867 35.3218 45.6529 35.325C49.4522 35.325 53.0958 33.8157 55.7822 31.1293C58.4687 28.4428 59.9779 24.7992 59.9779 21C59.9779 17.2008 58.4687 13.5571 55.7822 10.8707C53.0958 8.18422 49.4522 6.67498 45.6529 6.67498Z" fill="white"/>
<script xmlns=""/></svg>