<svg xmlns="http://www.w3.org/2000/svg" width="81" height="80" viewBox="0 0 81 80" fill="none"><script xmlns=""/>
<g clip-path="url(#clip0_2081_8133)">
<rect x="0.5" width="80" height="80" rx="40" fill="#1C4C81"/>
<path d="M32.2117 27.3599C21.2187 22.8247 39.1582 -2.67871 39.1582 -2.67871H40.6786L71.8247 6.2188L85.5656 61.0698L40.6786 92.9441L37.4068 76.0411C37.4068 76.0411 45.6694 58.7186 49.1204 48.3349C52.5714 37.9511 43.2047 31.8951 32.2117 27.3599Z" fill="#169BD7"/>
<path d="M53.8337 21.6666H27.167C25.8409 21.6666 24.5691 22.1934 23.6315 23.1311C22.6938 24.0688 22.167 25.3406 22.167 26.6666V46.6666C22.167 47.9927 22.6938 49.2645 23.6315 50.2022C24.5691 51.1399 25.8409 51.6666 27.167 51.6666H35.5003V55H33.8337V58.3333H47.167V55H45.5003V51.6666H53.8337C55.1597 51.6666 56.4315 51.1399 57.3692 50.2022C58.3069 49.2645 58.8337 47.9927 58.8337 46.6666V26.6666C58.8337 25.3406 58.3069 24.0688 57.3692 23.1311C56.4315 22.1934 55.1597 21.6666 53.8337 21.6666ZM27.167 25H53.8337C54.2757 25 54.6996 25.1756 55.0122 25.4881C55.3247 25.8007 55.5003 26.2246 55.5003 26.6666V41.6666H25.5003V26.6666C25.5003 26.2246 25.6759 25.8007 25.9885 25.4881C26.301 25.1756 26.725 25 27.167 25ZM42.167 55H38.8337V51.6666H42.167V55ZM53.8337 48.3333H27.167C26.725 48.3333 26.301 48.1577 25.9885 47.8452C25.6759 47.5326 25.5003 47.1087 25.5003 46.6666V45H55.5003V46.6666C55.5003 47.1087 55.3247 47.5326 55.0122 47.8452C54.6996 48.1577 54.2757 48.3333 53.8337 48.3333ZM29.117 34.25C28.9378 33.9778 28.8423 33.6592 28.8423 33.3333C28.8423 33.0075 28.9378 32.6888 29.117 32.4166L32.4503 27.4166L35.217 29.25L32.5003 33.3333L35.217 37.4166L32.4503 39.25L29.117 34.25ZM45.7837 37.4166L48.5003 33.3333L45.7837 29.25L48.5503 27.4166L51.8837 32.4166C52.0629 32.6888 52.1584 33.0075 52.1584 33.3333C52.1584 33.6592 52.0629 33.9778 51.8837 34.25L48.5503 39.25L45.7837 37.4166ZM39.2337 40.0833L36.2003 38.7L41.767 26.6666L44.8003 28.05L39.2337 40.0833Z" fill="white"/>
</g>
<rect x="2.5" y="2" width="76" height="76" rx="38" stroke="#08A599" stroke-width="4"/>
<defs>
<clipPath id="clip0_2081_8133">
<rect x="0.5" width="80" height="80" rx="40" fill="white"/>
</clipPath>
</defs>
<script xmlns=""/></svg>