<svg xmlns="http://www.w3.org/2000/svg" width="81" height="80" viewBox="0 0 81 80" fill="none"><script xmlns=""/>
<g clip-path="url(#clip0_2081_8149)">
<rect x="0.5" width="80" height="80" rx="40" fill="#1C4C81"/>
<path d="M32.2117 27.3599C21.2187 22.8247 39.1582 -2.67871 39.1582 -2.67871H40.6786L71.8247 6.2188L85.5656 61.0698L40.6786 92.9441L37.4068 76.0411C37.4068 76.0411 45.6694 58.7186 49.1204 48.3349C52.5714 37.9511 43.2047 31.8951 32.2117 27.3599Z" fill="#169BD7"/>
<path d="M26.75 29.25C26.75 28.5597 27.3097 28 28 28H30.5C31.1904 28 31.75 28.5597 31.75 29.25C31.75 29.9404 31.1904 30.5 30.5 30.5H28C27.3097 30.5 26.75 29.9404 26.75 29.25Z" fill="white"/>
<path d="M28 31.75C27.3097 31.75 26.75 32.3097 26.75 33C26.75 33.6904 27.3097 34.25 28 34.25H35.5C36.1904 34.25 36.75 33.6904 36.75 33C36.75 32.3097 36.1904 31.75 35.5 31.75H28Z" fill="white"/>
<path d="M26.75 36.75C26.75 36.0596 27.3097 35.5 28 35.5H35.5C36.1904 35.5 36.75 36.0596 36.75 36.75C36.75 37.4404 36.1904 38 35.5 38H28C27.3097 38 26.75 37.4404 26.75 36.75Z" fill="white"/>
<path d="M28 39.25C27.3097 39.25 26.75 39.8096 26.75 40.5C26.75 41.1904 27.3097 41.75 28 41.75H35.5C36.1904 41.75 36.75 41.1904 36.75 40.5C36.75 39.8096 36.1904 39.25 35.5 39.25H28Z" fill="white"/>
<path fill-rule="evenodd" clip-rule="evenodd" d="M23 26.75C23 24.6789 24.6789 23 26.75 23H36.75C38.8211 23 40.5 24.6789 40.5 26.75V43C40.5 45.0711 38.8211 46.75 36.75 46.75H33V54.25C33 54.9404 33.5596 55.5 34.25 55.5H48C48.6904 55.5 49.25 54.9404 49.25 54.25V53.5177L48.8839 53.8839C48.3958 54.372 47.6042 54.372 47.1161 53.8839C46.628 53.3958 46.628 52.6042 47.1161 52.1161L49.6161 49.6161C50.1042 49.128 50.8958 49.128 51.3839 49.6161L53.8839 52.1161C54.372 52.6042 54.372 53.3958 53.8839 53.8839C53.3958 54.372 52.6042 54.372 52.1161 53.8839L51.75 53.5177V54.25C51.75 56.3211 50.0711 58 48 58H34.25C32.1789 58 30.5 56.3211 30.5 54.25V46.75H26.75C24.6789 46.75 23 45.0711 23 43V26.75ZM26.75 25.5C26.0596 25.5 25.5 26.0596 25.5 26.75V43C25.5 43.6904 26.0596 44.25 26.75 44.25H36.75C37.4404 44.25 38 43.6904 38 43V26.75C38 26.0596 37.4404 25.5 36.75 25.5H26.75Z" fill="white"/>
<path fill-rule="evenodd" clip-rule="evenodd" d="M45.5 23C43.4289 23 41.75 24.6789 41.75 26.75V43C41.75 45.0711 43.4289 46.75 45.5 46.75H54.25C56.3211 46.75 58 45.0711 58 43V26.75C58 24.6789 56.3211 23 54.25 23H45.5ZM44.25 26.75C44.25 26.0596 44.8096 25.5 45.5 25.5H54.25C54.9404 25.5 55.5 26.0596 55.5 26.75V43C55.5 43.6904 54.9404 44.25 54.25 44.25H45.5C44.8096 44.25 44.25 43.6904 44.25 43V26.75Z" fill="white"/>
</g>
<rect x="2.5" y="2" width="76" height="76" rx="38" stroke="#E76B8C" stroke-width="4"/>
<defs>
<clipPath id="clip0_2081_8149">
<rect x="0.5" width="80" height="80" rx="40" fill="white"/>
</clipPath>
</defs>
<script xmlns=""/></svg>