<svg width="39" height="38" viewBox="0 0 39 38" fill="none" xmlns="http://www.w3.org/2000/svg">
<g clip-path="url(#clip0_2167_9639)">
<path d="M32.8104 25.017L34.0058 24.8271C34.3473 24.7119 35.9867 24.0068 35.8501 21.3424C34.7913 21.5729 33.3773 21.6814 32.2844 21.0509C31.7106 20.7187 30.9797 20.0475 30.8021 18.7119C30.7475 18.2915 30.9182 17.8915 31.2188 17.6407C31.3281 17.539 31.4579 17.4509 31.6081 17.3966C32.0522 17.2204 32.4074 17.017 32.7899 16.8C32.9948 16.678 33.2134 16.556 33.4525 16.4339C32.9948 15.5932 32.2707 14.9492 31.048 14.278C30.686 14.0814 30.4537 13.7085 30.4264 13.2949C30.3991 12.8882 30.5904 12.4882 30.9251 12.2441C30.9524 12.2237 30.9729 12.2102 31.0002 12.1898C29.9551 11.7966 28.91 11.3221 28.1586 10.9221C27.414 10.5221 26.4167 10.7458 25.2691 11.0034L25.0027 11.0644C24.6407 11.1458 24.2582 11.0644 23.9713 10.8204C23.6775 10.5831 23.5136 10.2305 23.5273 9.86443C23.5614 8.27799 23.4863 7.38985 23.4043 7.11188C23.3223 6.83392 23.1994 6.58985 23.0491 6.41358C21.1023 6.97629 19.094 7.93222 18.5749 8.57629C18.2812 8.93561 17.803 9.09832 17.3453 8.98985C16.8877 8.88138 16.5393 8.52883 16.4368 8.0746C16.3002 7.45765 15.4874 6.52883 14.6335 5.88477C14.3671 6.46782 14.0051 6.96951 13.6635 7.43731C12.9873 8.3729 12.4066 9.1729 12.4954 10.5627C12.5228 10.9763 12.3315 11.3763 11.9831 11.6204C11.6416 11.8644 11.1976 11.9119 10.8082 11.7492C10.0432 11.4305 8.41059 11.5593 7.2152 12.0204C7.36548 12.2102 7.53625 12.4271 7.71385 12.6576L7.78216 12.739C7.98708 13.0102 8.07588 13.356 8.00758 13.6882C7.9461 14.0204 7.74117 14.3119 7.44745 14.4949L7.24252 14.6237C6.22472 15.2475 5.28207 15.8237 4.59898 16.5221C4.68095 16.5221 4.76292 16.5221 4.84489 16.5492C4.87222 16.5492 4.88588 16.5627 4.9132 16.5695C4.96785 16.5831 5.0225 16.5966 5.07031 16.617C5.09763 16.6305 5.12496 16.6441 5.15228 16.6576C5.19327 16.6848 5.23425 16.6983 5.28207 16.7254C5.30939 16.7458 5.32988 16.7661 5.35721 16.7865C5.39136 16.8136 5.43235 16.8407 5.45967 16.8678C5.48699 16.8949 5.50065 16.9153 5.52115 16.9424C5.54847 16.9763 5.58262 17.0102 5.60312 17.0441C5.62361 17.0712 5.63044 17.1051 5.65093 17.1322C5.67826 17.1661 5.69875 17.2068 5.71241 17.2475C5.72607 17.2746 5.73973 17.3153 5.73973 17.3492C5.7534 17.3898 5.76706 17.4305 5.77389 17.478C5.77389 17.5119 5.77389 17.5526 5.78755 17.5865C5.78755 17.6271 5.80121 17.6678 5.80121 17.7153V17.7288C5.80121 20.4271 6.94196 20.9085 6.98978 20.9288C7.4816 21.017 7.78216 21.3763 7.87779 21.8644C7.97342 22.3526 7.67969 22.8204 7.25618 23.0915C6.01297 23.878 4.76975 24.1492 3.75879 24.2102C4.59215 25.8712 5.41185 26.0271 6.75753 26.278C6.75753 26.278 6.81901 26.2983 6.84633 26.3051C6.89415 26.3187 6.93513 26.3322 6.98295 26.3458C7.04443 26.3729 7.1059 26.4068 7.16738 26.4407C7.18104 26.4407 7.1947 26.4543 7.20154 26.461C7.26984 26.5017 7.33132 26.5492 7.38597 26.6102C7.41329 26.6373 7.44061 26.678 7.46794 26.7051C7.49526 26.7322 7.51575 26.7593 7.53625 26.7865C7.55674 26.8136 7.56357 26.8407 7.58406 26.8678C7.61139 26.9085 7.63188 26.9492 7.65237 26.9898C7.65237 27.0102 7.66603 27.0237 7.67286 27.0441C7.69336 27.0983 7.71385 27.1526 7.72751 27.2136C7.748 27.2949 7.75483 27.3627 7.75483 27.4441V27.4712C7.75483 27.5458 7.75483 27.6068 7.73434 27.6814C7.72068 27.7627 7.70019 27.8305 7.66603 27.8983L7.16055 29.1458C7.93927 29.4373 8.77263 29.3627 9.6743 28.9288C9.36691 28.0882 9.15516 27.1729 9.06636 26.1831C8.53355 21.5187 10.2413 17.7288 13.8821 15.5526C13.9026 15.539 13.9163 15.539 13.9299 15.5254C13.9641 15.5051 14.0119 15.4848 14.0529 15.4712C14.087 15.4576 14.128 15.4441 14.1622 15.4373C14.1963 15.4237 14.2373 15.417 14.2783 15.4102C14.3193 15.4102 14.3603 15.3966 14.4012 15.3898H14.6335C14.6676 15.3898 14.7155 15.4034 14.7496 15.4102C14.7838 15.4102 14.8248 15.4305 14.8657 15.4373C14.8999 15.4509 14.9409 15.4644 14.975 15.4712C15.0024 15.4848 15.0229 15.4915 15.0502 15.4983C15.0638 15.4983 15.0775 15.5119 15.0843 15.5254C15.1117 15.5458 15.1526 15.5593 15.18 15.5797C15.2141 15.6068 15.2551 15.6271 15.2824 15.661C15.2961 15.6746 15.3097 15.6814 15.3234 15.6882C15.6991 16.0204 16.6418 16.4475 17.5981 16.7729C17.4615 16.1221 17.4478 15.4441 17.5571 14.7865C17.5776 14.6576 17.6254 14.5424 17.6801 14.4339C17.7689 14.2576 17.9055 14.1017 18.0762 13.9865C18.3495 13.7966 18.6978 13.7424 19.0189 13.8034C19.3809 13.8848 19.7908 14 20.2211 14.1492C22.1952 14.8 24.6885 16.0678 26.2596 17.7288C26.4167 17.4034 26.7241 17.1593 27.0861 17.078C27.1066 17.078 27.1135 17.0644 27.1339 17.0576C27.5984 16.9763 28.0561 17.1593 28.3362 17.539C29.798 19.5458 31.8336 24.2441 30.2556 28.9356C31.0344 28.8746 31.8336 28.6915 32.4825 28.3865C31.9634 27.6543 31.7106 26.8407 31.7789 26.0814C31.8267 25.5322 32.2434 25.0915 32.7899 25.0034L32.8172 25.017H32.8104Z" fill="#0D9DDA"/>
<path d="M26.232 20.6644C25.7606 20.7119 25.303 20.4949 25.0571 20.0949C24.2237 18.7458 22.0925 17.4034 20.0979 16.6509C20.2277 17.0373 20.4189 17.3966 20.6785 17.7017C20.9859 18.061 21.0542 18.5695 20.8561 18.9966C20.658 19.4238 20.2413 19.7017 19.7427 19.6882C18.479 19.6746 16.0403 18.9288 14.5376 18.0543C11.5593 20.2102 11.2383 23.5051 11.5183 25.9526C11.9213 30.3187 14.9679 32.6983 20.1184 32.6983C23.3357 32.6983 25.9656 31.539 27.3795 29.5255C27.3795 29.5119 27.3932 29.4983 27.4 29.4848C29.2102 26.1356 28.2402 22.5085 27.2088 20.3797C26.9219 20.5288 26.594 20.6238 26.2251 20.6644H26.232Z" fill="white"/>
<path d="M14.1411 23.4373C13.6834 23.2882 13.4443 22.8 13.5946 22.3526C14.0455 21.0102 15.6439 20.2712 17.0852 20.7458C17.5428 20.895 17.7819 21.3831 17.6316 21.8306C17.4814 22.2848 16.9895 22.5221 16.5387 22.3729C16.0196 22.1967 15.3843 22.4543 15.2409 22.8882C15.0906 23.3424 14.5988 23.5797 14.1479 23.4306L14.1411 23.4373Z" fill="white"/>
<path d="M16.3889 26.2102C16.9435 26.2102 17.393 25.5636 17.393 24.7661C17.393 23.9686 16.9435 23.322 16.3889 23.322C15.8343 23.322 15.3848 23.9686 15.3848 24.7661C15.3848 25.5636 15.8343 26.2102 16.3889 26.2102Z" fill="white"/>
<path d="M24.9133 30.617C24.3805 31.0441 23.4242 30.8271 22.3176 30.5898C21.573 30.4204 20.7192 30.2373 19.8995 30.2237C19.0593 30.2034 18.2122 30.4271 17.4609 30.6305C16.8529 30.7865 16.3269 30.9288 15.8966 30.9288C15.6097 30.9288 15.3638 30.8678 15.1589 30.7187C14.8651 30.4949 14.7285 30.1085 14.7285 29.5322C14.7285 29.1254 14.9266 28.7254 15.2682 28.4678C16.3133 27.661 17.413 27.1322 18.5265 26.8882C18.6084 26.8678 18.7041 26.9085 18.7519 26.9831C18.9773 27.3559 19.4828 27.5932 20.0293 27.5932C20.5757 27.5932 21.0539 27.3627 21.2861 27.017C21.3339 26.9424 21.4227 26.9085 21.5115 26.9288C23.2124 27.3356 24.4625 28.2915 24.927 28.6915C25.1934 28.9221 25.3368 29.261 25.33 29.5865C25.33 30.0814 25.1934 30.4271 24.9201 30.6441V30.6305L24.9133 30.617Z" fill="white"/>
<path d="M22.6113 24.7661C22.6113 23.9729 23.0622 23.322 23.6155 23.322C24.1688 23.322 24.6196 23.9661 24.6196 24.7661C24.6196 25.5661 24.1688 26.2102 23.6155 26.2102C23.0622 26.2102 22.6113 25.5661 22.6113 24.7661Z" fill="white"/>
<path d="M25.8149 23.1119C25.3914 23.3356 24.8654 23.1797 24.64 22.7594C24.4214 22.3526 23.7588 22.2102 23.2738 22.4611C22.8503 22.6848 22.3243 22.5289 22.0989 22.1085C21.8735 21.6882 22.0306 21.1662 22.4541 20.9424C23.7998 20.2373 25.4938 20.6984 26.1633 21.9458C26.3887 22.3662 26.2316 22.8882 25.8081 23.1119H25.8149Z" fill="white"/>
<path d="M38.0489 19.5186C37.9738 19.1661 37.7483 18.8745 37.4273 18.7118C37.1131 18.5423 36.7374 18.522 36.4027 18.6644C35.6786 18.9627 34.4217 19.2406 33.7386 19.0508C33.8343 18.9966 33.9299 18.9423 34.0255 18.8881C34.49 18.6169 34.8657 18.4067 35.3644 18.2644C35.9996 18.0745 36.3753 17.4237 36.1977 16.7864C35.7742 15.2542 34.9887 14.0881 33.6567 13.0779C33.9299 12.7932 34.1758 12.4881 34.3397 12.1966C34.5242 11.8644 34.531 11.4644 34.3739 11.1186C34.2168 10.7728 33.9026 10.522 33.5269 10.4406C32.27 10.1695 30.4598 9.41014 29.3259 8.79997C28.1988 8.19658 27.0512 8.2237 25.9583 8.39997C25.931 7.53217 25.8695 6.8881 25.7534 6.46776C25.446 5.34234 24.7424 4.43387 23.8134 3.99319C23.5607 3.87115 23.2669 3.84404 22.9869 3.91183C21.7778 4.21014 19.592 4.93556 18.0277 5.91861C17.0577 4.54234 15.4251 3.30844 14.1614 2.922C13.7926 2.80675 13.3895 2.88132 13.0822 3.11183C12.7748 3.34234 12.5903 3.70166 12.5972 4.0881C12.5972 4.73217 12.2761 5.22031 11.6887 6.02709C11.108 6.84065 10.4113 7.79658 10.1586 9.16607C8.18444 9.0237 5.75949 9.6881 4.50944 10.8678C4.24987 11.1118 4.09959 11.4576 4.12692 11.8169C4.15424 12.1762 4.32501 12.4949 4.61874 12.7118C4.68705 12.7593 4.80317 12.8881 5.02859 13.1525C3.46432 14.1559 1.92055 15.383 1.32627 17.4101C1.21698 17.7762 1.29211 18.1762 1.52436 18.4745C1.75661 18.7728 2.09815 18.9559 2.50801 18.9491L3.47799 18.9356C3.62143 20.1627 3.98347 21.0576 4.40015 21.6881C3.23891 21.9322 2.34407 21.6881 2.29625 21.6678C1.85907 21.5322 1.38775 21.6474 1.05987 21.9728C0.738816 22.2983 0.629523 22.7661 0.77297 23.2C1.93421 26.6373 3.23207 27.7423 4.91246 28.2847L4.53677 29.2203C4.53677 29.2203 4.5231 29.2745 4.50944 29.3017C4.49578 29.3423 4.48212 29.383 4.47529 29.4305C4.47529 29.4644 4.46163 29.5051 4.4548 29.5457C4.4548 29.5864 4.44113 29.6271 4.44113 29.6678C4.44113 29.7084 4.44113 29.7491 4.44113 29.7898C4.44113 29.8237 4.44113 29.8712 4.4548 29.9051C4.4548 29.9389 4.47529 29.9796 4.48212 30.0203C4.49578 30.0542 4.50944 30.0949 4.51627 30.1288C4.5231 30.1627 4.5436 30.1966 4.56409 30.2305C4.58458 30.2644 4.59824 30.3051 4.61874 30.3322C4.63923 30.3593 4.66655 30.4 4.69388 30.4271C4.7212 30.4542 4.74169 30.4881 4.76902 30.5152C4.79634 30.5423 4.83732 30.5762 4.86465 30.6034C4.88514 30.6237 4.8988 30.6373 4.92612 30.6576C4.93979 30.6576 4.94662 30.6712 4.95345 30.6779C4.97394 30.6915 4.9876 30.7051 5.00809 30.7118C5.97124 31.3898 7.02319 31.7423 8.12296 31.7423C9.00414 31.7423 9.90581 31.5051 10.8075 31.0644C12.6586 33.6474 15.876 35.1118 20.0906 35.1118C23.9022 35.1118 27.1059 33.7423 29.0322 31.3423C29.2439 31.3627 29.4694 31.3695 29.7016 31.3695C31.4708 31.3695 33.6772 30.8678 35.0433 29.5254C35.0433 29.5254 35.0433 29.5254 35.057 29.5254C35.098 29.4847 35.1458 29.444 35.1936 29.4034C35.2073 29.3898 35.2141 29.3762 35.2209 29.3695C35.2209 29.3559 35.2414 29.3491 35.2482 29.3423C35.2687 29.3152 35.2756 29.2949 35.2892 29.2745C35.3166 29.2406 35.3371 29.2067 35.3575 29.1728C35.378 29.1389 35.3917 29.0983 35.4054 29.0712C35.4258 29.0373 35.4327 28.9966 35.4463 28.9627C35.46 28.9288 35.4668 28.8881 35.4737 28.8474C35.4737 28.8135 35.4942 28.7661 35.4942 28.7322C35.4942 28.6983 35.4942 28.6508 35.4942 28.6169V28.5017C35.4942 28.4678 35.4942 28.4271 35.4805 28.3864C35.4805 28.3525 35.4668 28.3051 35.4532 28.2712C35.4395 28.2373 35.4258 28.1966 35.419 28.1627C35.4122 28.1288 35.3917 28.0881 35.378 28.0542C35.3575 28.0203 35.3439 27.9796 35.3166 27.9525C35.2961 27.9254 35.2756 27.8847 35.2482 27.8576C35.2209 27.8237 35.1936 27.7898 35.1663 27.7627C35.1458 27.7423 35.139 27.722 35.1185 27.7017C35.1048 27.6881 35.0911 27.6813 35.0911 27.6745C35.0775 27.661 35.0706 27.6474 35.0638 27.6474C34.8657 27.4847 34.7086 27.322 34.5788 27.1728C36.2524 26.7186 39.1145 24.5423 38.0216 19.5322V19.5051L38.0489 19.5186Z" fill="#032D60"/>
<path d="M30.2752 28.9492C31.8599 24.2576 29.8175 19.5661 28.3557 17.5526C28.0825 17.1797 27.618 16.9898 27.1535 17.0712C27.133 17.0712 27.1262 17.0848 27.1057 17.0915C26.7436 17.1729 26.4362 17.4102 26.2791 17.7424C24.708 16.0814 22.2216 14.8136 20.2407 14.1627C19.8171 14.0271 19.4005 13.9051 19.0384 13.817C18.7105 13.7424 18.369 13.817 18.0958 14C17.925 14.1153 17.7952 14.2712 17.6996 14.4475C17.6449 14.5559 17.5971 14.678 17.5766 14.8C17.4673 15.4644 17.4878 16.1356 17.6176 16.7865C16.6613 16.461 15.7255 16.0339 15.3429 15.7017C15.3293 15.6881 15.3156 15.6814 15.302 15.6746C15.2678 15.6475 15.2336 15.6203 15.1995 15.5932C15.1722 15.5729 15.1312 15.5526 15.1039 15.539C15.0902 15.539 15.0765 15.5187 15.0697 15.5119C15.0424 15.4983 15.0219 15.4915 14.9946 15.4848C14.9604 15.4712 14.9194 15.4576 14.8853 15.4509C14.8511 15.4373 14.8101 15.4305 14.7692 15.4237C14.735 15.4237 14.694 15.4102 14.653 15.4034H14.4208C14.3798 15.4034 14.3388 15.417 14.2978 15.4237C14.2637 15.4237 14.2159 15.4441 14.1817 15.4509C14.1475 15.4644 14.1066 15.478 14.0724 15.4848C14.0314 15.5051 13.9904 15.5187 13.9494 15.539C13.929 15.539 13.9153 15.5526 13.9016 15.5661C10.254 17.7492 8.55308 21.5322 9.08589 26.1966C9.17469 27.1864 9.38644 28.0949 9.69383 28.9424C8.79216 29.3763 7.9588 29.4509 7.18008 29.1593L7.68556 27.9187C7.71289 27.8373 7.73338 27.7695 7.75387 27.6949C7.76753 27.6203 7.77436 27.5526 7.77436 27.4848V27.4576C7.77436 27.3763 7.7607 27.3017 7.74704 27.2271C7.73338 27.1661 7.71972 27.1119 7.69239 27.0576C7.69239 27.0373 7.67873 27.0237 7.6719 27.0034C7.65141 26.9627 7.63092 26.922 7.60359 26.8814C7.5831 26.8542 7.57627 26.8271 7.55578 26.8C7.53529 26.7729 7.50796 26.7458 7.48747 26.7187C7.46015 26.6915 7.43965 26.6509 7.4055 26.6237C7.35085 26.5695 7.28937 26.522 7.22107 26.4746C7.2074 26.4746 7.19374 26.461 7.18691 26.4542C7.13227 26.4203 7.07079 26.3864 7.00248 26.3593C6.95466 26.339 6.91368 26.3322 6.86586 26.3187C6.83854 26.3187 6.81122 26.2983 6.77706 26.2915C5.43138 26.0407 4.61168 25.8848 3.77832 24.2237C4.78929 24.1695 6.0325 23.8983 7.27571 23.1051C7.69239 22.8407 7.99295 22.3661 7.89732 21.878C7.80169 21.3898 7.4943 21.0373 7.00931 20.9424C6.96149 20.922 5.82074 20.4407 5.82074 17.7424V17.7288C5.82074 17.6881 5.80708 17.6475 5.80708 17.6C5.80708 17.5661 5.80708 17.5254 5.79342 17.4915C5.77976 17.4509 5.7661 17.4102 5.75927 17.3627C5.7456 17.3288 5.73877 17.2949 5.73194 17.261C5.71145 17.2203 5.69096 17.1797 5.67046 17.1458C5.64997 17.1187 5.64314 17.0848 5.62265 17.0576C5.59533 17.0237 5.568 16.9898 5.54068 16.9559C5.51336 16.9288 5.49969 16.9017 5.4792 16.8814C5.45188 16.8542 5.41089 16.8203 5.37674 16.8C5.34941 16.7797 5.32892 16.7593 5.3016 16.739C5.26744 16.7119 5.21963 16.6915 5.17181 16.6712C5.14449 16.6576 5.11717 16.6441 5.08984 16.6305C5.04203 16.6102 4.98738 16.5966 4.93273 16.5831C4.90541 16.5831 4.89175 16.5627 4.86442 16.5627C4.78245 16.5424 4.70732 16.5356 4.61851 16.5356C5.3016 15.8373 6.23742 15.261 7.26205 14.6373L7.46698 14.5085C7.7607 14.3254 7.9588 14.0407 8.02711 13.7017C8.08858 13.3695 8.00661 13.0237 7.80169 12.7526L7.73338 12.6712C7.55578 12.4407 7.39184 12.2237 7.23473 12.0339C8.43013 11.5729 10.0559 11.4441 10.8278 11.7627C11.2171 11.9254 11.6611 11.878 12.0027 11.6339C12.3442 11.3898 12.5355 10.9966 12.515 10.5763C12.433 9.19323 13.0068 8.38645 13.683 7.45086C14.0246 6.98306 14.3866 6.47459 14.653 5.89832C15.5069 6.5356 16.3198 7.46442 16.4564 8.08815C16.552 8.54238 16.914 8.89493 17.3649 9.0034C17.8225 9.11187 18.2939 8.94916 18.5944 8.58984C19.1136 7.94577 21.1287 6.98306 23.0686 6.42713C23.2189 6.6034 23.3487 6.84747 23.4238 7.12543C23.5058 7.41018 23.5809 8.29832 23.5468 9.87798C23.5468 10.2441 23.7039 10.6034 23.9908 10.8339C24.2845 11.0712 24.6602 11.1593 25.0223 11.078L25.2887 11.017C26.4362 10.7593 27.4335 10.5356 28.1781 10.9356C28.9295 11.3424 29.9746 11.817 31.0197 12.2034C30.9924 12.2237 30.9719 12.2373 30.9446 12.2576C30.6099 12.5017 30.4186 12.8949 30.4459 13.3085C30.4733 13.7153 30.7055 14.0949 31.0675 14.2915C32.2903 14.9695 33.0143 15.6068 33.472 16.4475C33.2329 16.5695 33.0143 16.6915 32.8094 16.8136C32.4337 17.0305 32.0717 17.2339 31.6277 17.4102C31.4842 17.4712 31.3476 17.5526 31.2383 17.6542C30.9378 17.9051 30.767 18.3051 30.8216 18.7254C30.9992 20.0542 31.7233 20.7254 32.3039 21.0644C33.3969 21.6881 34.8109 21.5797 35.8696 21.3559C36.0062 24.0203 34.36 24.7254 34.0253 24.8407L32.8299 25.0305C32.2834 25.1187 31.8736 25.5593 31.8189 26.1085C31.7438 26.8678 32.0034 27.6678 32.5225 28.4136C31.8736 28.7119 31.0675 28.9017 30.2957 28.9627L30.2683 28.9492H30.2752Z" fill="#0D9DDA"/>
<path d="M27.4 29.4848C27.4 29.4848 27.3864 29.5119 27.3795 29.5255C25.9656 31.539 23.3357 32.6983 20.1184 32.6983C14.9747 32.6983 11.9213 30.3119 11.5183 25.9526C11.2383 23.4983 11.5593 20.2102 14.5376 18.0543C16.0403 18.9221 18.479 19.6678 19.7427 19.6882C20.2413 19.7017 20.6512 19.4238 20.8561 18.9966C21.0542 18.5695 20.9927 18.061 20.6785 17.7017C20.4189 17.4034 20.2208 17.0373 20.0979 16.6509C22.0925 17.4034 24.2237 18.7458 25.0571 20.0949C25.303 20.4949 25.7538 20.7187 26.232 20.6644C26.594 20.6238 26.9219 20.5288 27.2156 20.3797C28.2402 22.5085 29.217 26.1288 27.4069 29.4848H27.4Z" fill="white"/>
<path d="M21.5047 26.895C21.4227 26.8746 21.3271 26.9085 21.2793 26.9831C21.0402 27.3356 20.5484 27.5594 20.0224 27.5594C19.4964 27.5594 18.9705 27.3153 18.745 26.9492C18.6972 26.8678 18.6084 26.8339 18.5196 26.8543C17.3994 27.0983 16.3064 27.6272 15.2613 28.4339C14.9198 28.6916 14.7217 29.0983 14.7217 29.4983C14.7217 30.0746 14.8583 30.4611 15.152 30.6848C15.3501 30.8339 15.6029 30.895 15.8898 30.895C16.3269 30.895 16.8529 30.7594 17.454 30.5966C18.2054 30.4068 19.0524 30.1831 19.8926 30.1899C20.7123 30.2034 21.5594 30.3933 22.3107 30.556C23.4173 30.8 24.3668 31.017 24.9065 30.5831C25.1797 30.3661 25.3163 30.0204 25.3163 29.5255C25.3368 29.1933 25.1797 28.8543 24.9133 28.6305C24.4488 28.2373 23.1988 27.2746 21.4979 26.8678V26.8814L21.5047 26.895Z" fill="#032D60"/>
<path d="M16.3889 26.2102C16.9435 26.2102 17.393 25.5636 17.393 24.7661C17.393 23.9686 16.9435 23.322 16.3889 23.322C15.8343 23.322 15.3848 23.9686 15.3848 24.7661C15.3848 25.5636 15.8343 26.2102 16.3889 26.2102Z" fill="#032D60"/>
<path d="M24.6264 24.7661C24.6264 23.9729 24.1756 23.322 23.6223 23.322C23.069 23.322 22.6182 23.9661 22.6182 24.7661C22.6182 25.5661 23.069 26.2102 23.6223 26.2102C24.1756 26.2102 24.6264 25.5661 24.6264 24.7661Z" fill="#032D60"/>
<path d="M15.2343 22.8881C15.3778 22.4542 16.0131 22.2034 16.5322 22.3729C16.9899 22.522 17.4817 22.278 17.6251 21.8305C17.7754 21.3763 17.5295 20.8881 17.0787 20.7458C15.6374 20.2712 14.0389 21.0034 13.5881 22.3525C13.4378 22.8068 13.6837 23.2949 14.1346 23.4373C14.5922 23.5864 15.0841 23.3424 15.2275 22.8949L15.2343 22.8881Z" fill="#032D60"/>
<path d="M22.461 20.9423C22.0374 21.1661 21.8803 21.6813 22.1057 22.1084C22.3312 22.5356 22.8503 22.6847 23.2807 22.461C23.7656 22.2101 24.4282 22.3457 24.6468 22.7593C24.8722 23.1796 25.3914 23.3356 25.8217 23.1118C26.2521 22.8881 26.4023 22.3728 26.1769 21.9457C25.5075 20.6915 23.8066 20.2305 22.4678 20.9423H22.461Z" fill="#032D60"/>
</g>
<defs>
<clipPath id="clip0_2167_9639">
<rect width="38" height="38" fill="white" transform="translate(0.5)"/>
</clipPath>
</defs>
</svg>
