<svg width="58" height="58" viewBox="0 0 58 58" fill="none" xmlns="http://www.w3.org/2000/svg">
<g clip-path="url(#clip0_1636_8274)">
<path d="M56.7586 11.4577C56.3707 8.8692 55.1574 6.47516 53.2991 4.63195C51.4408 2.78873 49.037 1.5949 46.4454 1.22818C34.8399 -0.40659 23.0622 -0.402197 11.4579 1.24123C8.86938 1.62905 6.47532 2.84245 4.6321 4.70077C2.78888 6.5591 1.59507 8.96299 1.22839 11.5546C-0.413824 23.1595 -0.409431 34.9382 1.24144 46.5419C1.62927 49.1304 2.84266 51.5245 4.70099 53.3677C6.55932 55.2109 8.96321 56.4047 11.5548 56.7714C17.334 57.5879 23.1634 57.9983 29 57.9998C34.8693 57.998 40.7311 57.5832 46.5421 56.7583C49.1306 56.3705 51.5246 55.1572 53.3678 53.2989C55.2111 51.4406 56.4049 49.0368 56.7716 46.4452C57.5881 40.6659 57.9985 34.8365 58 28.9998C57.9982 23.1305 57.5834 17.2687 56.7586 11.4577ZM51.9854 45.7678C51.7691 47.3237 51.0562 48.7681 49.9527 49.8861C48.8493 51.0041 47.4142 51.7358 45.8613 51.9724C34.7076 53.5531 23.3869 53.5574 12.232 51.9852C10.6761 51.7689 9.23164 51.056 8.11367 49.9525C6.99569 48.849 6.26396 47.414 6.02741 45.8611C4.43961 34.7079 4.4353 23.3862 6.0146 12.2317C6.2309 10.6759 6.94385 9.23146 8.04731 8.11349C9.15078 6.99553 10.5858 6.26379 12.1387 6.02719C23.2919 4.43939 34.6136 4.43508 45.768 6.01438C47.3239 6.23068 48.7683 6.94363 49.8863 8.0471C51.0043 9.15057 51.736 10.5856 51.9726 12.1385C52.7663 17.7239 53.1654 23.3583 53.1667 28.9998C53.165 34.6099 52.7703 40.2129 51.9854 45.7678Z" fill="url(#paint0_linear_1636_8274)"/>
<path d="M45.9171 9.66553H36.2504C35.6095 9.66553 34.9948 9.92014 34.5416 10.3734C34.0884 10.8266 33.8337 11.4413 33.8337 12.0822C33.8337 12.7231 34.0884 13.3378 34.5416 13.791C34.9948 14.2442 35.6095 14.4989 36.2504 14.4989H40.083L32.1252 22.4569C31.6849 22.9127 31.4414 23.5232 31.4469 24.1568C31.4524 24.7905 31.7065 25.3966 32.1546 25.8447C32.6027 26.2927 33.2088 26.5469 33.8424 26.5524C34.4761 26.5579 35.0865 26.3143 35.5423 25.8741L43.5004 17.9163V21.7489C43.5004 22.3898 43.755 23.0045 44.2082 23.4577C44.6614 23.9109 45.2761 24.1655 45.9171 24.1655C46.558 24.1655 47.1727 23.9109 47.6259 23.4577C48.0791 23.0045 48.3337 22.3898 48.3337 21.7489V12.0822C48.3337 11.4413 48.0791 10.8266 47.6259 10.3734C47.1727 9.92014 46.558 9.66553 45.9171 9.66553Z" fill="url(#paint1_linear_1636_8274)"/>
<path d="M22.4584 32.1252L14.5003 40.083V36.2504C14.5003 35.6095 14.2457 34.9948 13.7925 34.5416C13.3393 34.0884 12.7246 33.8337 12.0837 33.8337C11.4427 33.8337 10.828 34.0884 10.3748 34.5416C9.92161 34.9948 9.66699 35.6095 9.66699 36.2504V45.9171C9.66699 46.558 9.92161 47.1727 10.3748 47.6259C10.828 48.0791 11.4427 48.3337 12.0837 48.3337H21.7503C22.3913 48.3337 23.006 48.0791 23.4592 47.6259C23.9124 47.1727 24.167 46.558 24.167 45.9171C24.167 45.2761 23.9124 44.6614 23.4592 44.2082C23.006 43.755 22.3913 43.5004 21.7503 43.5004H17.9177L25.8756 35.5423C26.3158 35.0865 26.5594 34.4761 26.5539 33.8424C26.5484 33.2088 26.2942 32.6027 25.8461 32.1546C25.3981 31.7065 24.7919 31.4524 24.1583 31.4469C23.5247 31.4414 22.9142 31.6849 22.4584 32.1252Z" fill="url(#paint2_linear_1636_8274)"/>
</g>
<defs>
<linearGradient id="paint0_linear_1636_8274" x1="0" y1="29.0026" x2="57.7888" y2="32.4957" gradientUnits="userSpaceOnUse">
<stop offset="0.104452" stop-color="#7143D7"/>
<stop offset="0.47615" stop-color="#2C57F3"/>
<stop offset="1" stop-color="#4ED4F7"/>
</linearGradient>
<linearGradient id="paint1_linear_1636_8274" x1="31.4468" y1="18.109" x2="48.2723" y2="19.126" gradientUnits="userSpaceOnUse">
<stop offset="0.104452" stop-color="#7143D7"/>
<stop offset="0.47615" stop-color="#2C57F3"/>
<stop offset="1" stop-color="#4ED4F7"/>
</linearGradient>
<linearGradient id="paint2_linear_1636_8274" x1="9.66699" y1="39.8903" x2="26.4925" y2="40.9072" gradientUnits="userSpaceOnUse">
<stop offset="0.104452" stop-color="#7143D7"/>
<stop offset="0.47615" stop-color="#2C57F3"/>
<stop offset="1" stop-color="#4ED4F7"/>
</linearGradient>
<clipPath id="clip0_1636_8274">
<rect width="58" height="58" fill="white"/>
</clipPath>
</defs>
</svg>
