<svg width="38" height="38" viewBox="0 0 38 38" fill="none" xmlns="http://www.w3.org/2000/svg">
<path d="M19.0004 34.3365C10.587 34.3781 3.73511 27.5856 3.69355 19.1722C3.65199 10.7587 10.4445 3.90686 18.8579 3.8653C27.2714 3.82374 34.1232 10.6162 34.1648 19.0297V19.1009C34.1826 27.4965 27.396 34.3187 19.0004 34.3365Z" fill="#0D9DDA"/>
<path d="M14.7845 26.4575C12.1483 25.1512 10.4917 22.4497 10.5333 19.5047C10.5333 17.949 10.9845 16.4231 11.8454 15.1228L17.3139 23.3106H20.6211L26.0895 15.1228C26.9504 16.4231 27.4076 17.949 27.4017 19.5047C27.4254 22.2418 26.0004 24.789 23.6492 26.1962L24.7001 30.2456C30.8395 27.0512 33.2323 19.4809 30.032 13.3415C28.9633 11.2812 27.3423 9.56529 25.3533 8.37185L19.0001 18.2222L12.7123 8.34216C6.757 11.8572 4.77388 19.5403 8.29481 25.5015C9.57138 27.6687 11.4714 29.3965 13.7454 30.4653L14.7845 26.4575Z" fill="white"/>
<path d="M19 2.375C9.82062 2.375 2.375 9.82062 2.375 19C2.375 28.1794 9.82062 35.625 19 35.625C28.1794 35.625 35.625 28.1794 35.625 19C35.625 9.82062 28.1794 2.375 19 2.375ZM19 34.3366C10.5866 34.3781 3.73469 27.5856 3.69312 19.1722C3.65156 10.7587 10.4441 3.90688 18.8575 3.86531C27.2709 3.82375 34.1228 10.6162 34.1644 19.0297V19.1009C34.1822 27.4966 27.3956 34.3187 19 34.3366Z" fill="#032D60"/>
</svg>
