<svg xmlns="http://www.w3.org/2000/svg" width="59" height="58" viewBox="0 0 59 58" fill="none"><script xmlns=""/>
<path d="M37.7371 20.0191L28.593 29.1541L23.5271 24.0972C23.1875 23.7596 22.7281 23.5701 22.2493 23.5701C21.7704 23.5701 21.311 23.7596 20.9714 24.0972L12.8152 32.2535C12.6255 32.4159 12.4714 32.6159 12.3626 32.8408C12.2538 33.0656 12.1926 33.3106 12.183 33.5602C12.1733 33.8098 12.2154 34.0587 12.3065 34.2913C12.3977 34.5239 12.5359 34.7351 12.7125 34.9118C12.8891 35.0884 13.1004 35.2266 13.333 35.3177C13.5656 35.4089 13.8145 35.4509 14.0641 35.4413C14.3137 35.4316 14.5586 35.3705 14.7835 35.2617C15.0084 35.1529 15.2083 34.9988 15.3708 34.8091L22.2493 27.9397L27.3152 32.9966C27.6548 33.3342 28.1142 33.5236 28.593 33.5236C29.0718 33.5236 29.5312 33.3342 29.8708 32.9966L40.2927 22.5747C40.5896 22.228 40.7448 21.782 40.7272 21.3258C40.7095 20.8696 40.5204 20.4369 40.1976 20.1141C39.8748 19.7913 39.4421 19.6022 38.986 19.5846C38.5298 19.567 38.0838 19.7221 37.7371 20.0191Z" fill="#0073BB"/>
<path d="M51.2501 5.4375H8.6564C7.46119 5.43961 6.29998 5.83547 5.35236 6.56383C4.40473 7.2922 3.72349 8.3125 3.41399 9.46694C3.10449 10.6214 3.18398 11.8456 3.64016 12.9504C4.09634 14.0551 4.90379 14.9787 5.93765 15.5784V40.7812C5.93765 42.2234 6.51053 43.6064 7.53025 44.6261C8.54998 45.6459 9.93303 46.2188 11.3751 46.2188H30.5967C30.4693 46.842 30.4055 47.4766 30.4064 48.1128C30.4064 48.3666 30.5151 54.375 40.3751 54.375C50.2351 54.375 50.3439 48.3666 50.3439 48.1128C50.3416 47.2776 50.2319 46.4461 50.0176 45.6388C50.9273 45.1931 51.6943 44.5022 52.2323 43.6439C52.7703 42.7857 53.0579 41.7942 53.0626 40.7812V15.9953C54.2676 15.5647 55.2821 14.7229 55.9276 13.6181C56.5732 12.5132 56.8084 11.2161 56.5919 9.95495C56.3753 8.6938 55.721 7.54941 54.744 6.72312C53.7669 5.89683 52.5297 5.44159 51.2501 5.4375ZM40.3751 50.75C34.3123 50.75 34.0314 48.1581 34.0314 48.1128C34.0206 46.4303 34.6786 44.8125 35.8606 43.6152C37.0426 42.4178 38.6519 41.7391 40.3344 41.7283C42.0168 41.7175 43.6347 42.3755 44.832 43.5575C46.0294 44.7395 46.7081 46.3488 46.7189 48.0312C46.7189 48.3213 46.2476 50.75 40.3751 50.75ZM40.3751 38.0625C39.8374 38.0625 39.3118 37.903 38.8647 37.6043C38.4176 37.3056 38.0691 36.881 37.8634 36.3842C37.6576 35.8874 37.6037 35.3407 37.7086 34.8133C37.8135 34.286 38.0725 33.8015 38.4527 33.4213C38.8329 33.0411 39.3174 32.7821 39.8447 32.6772C40.3721 32.5723 40.9188 32.6262 41.4156 32.832C41.9124 33.0377 42.337 33.3862 42.6357 33.8333C42.9344 34.2804 43.0939 34.806 43.0939 35.3438C43.0939 36.0648 42.8075 36.7563 42.2976 37.2662C41.7877 37.7761 41.0962 38.0625 40.3751 38.0625ZM45.2326 39.4128C46.0095 38.488 46.5062 37.3605 46.6643 36.1631C46.8224 34.9656 46.6354 33.7479 46.1252 32.6531C45.6151 31.5583 44.8029 30.6319 43.7843 29.9828C42.7657 29.3337 41.583 28.9889 40.3751 28.9889C39.1673 28.9889 37.9846 29.3337 36.966 29.9828C35.9474 30.6319 35.1352 31.5583 34.6251 32.6531C34.1149 33.7479 33.9279 34.9656 34.086 36.1631C34.2441 37.3605 34.7408 38.488 35.5176 39.4128C34.1383 40.188 32.9615 41.2779 32.083 42.5938H11.3751C10.8944 42.5938 10.4334 42.4028 10.0935 42.0629C9.75361 41.723 9.56265 41.262 9.56265 40.7812V16.3125H49.4376V40.7812C49.4421 41.1037 49.3605 41.4215 49.2012 41.7019C49.0419 41.9822 48.8107 42.215 48.5314 42.3762C47.6664 41.1549 46.5393 40.1425 45.2326 39.4128ZM51.2501 12.6875H8.6564C8.17569 12.6875 7.71468 12.4965 7.37477 12.1566C7.03486 11.8167 6.8439 11.3557 6.8439 10.875C6.8439 10.3943 7.03486 9.93328 7.37477 9.59337C7.71468 9.25346 8.17569 9.0625 8.6564 9.0625H51.2501C51.7309 9.0625 52.1919 9.25346 52.5318 9.59337C52.8717 9.93328 53.0626 10.3943 53.0626 10.875C53.0626 11.3557 52.8717 11.8167 52.5318 12.1566C52.1919 12.4965 51.7309 12.6875 51.2501 12.6875Z" fill="#0073BB"/>
<script xmlns=""/></svg>