<svg width="39" height="38" viewBox="0 0 39 38" fill="none" xmlns="http://www.w3.org/2000/svg">
<g clip-path="url(#clip0_2167_9706)">
<path d="M23.7993 21.375C23.9049 21.192 24.0574 21.0405 24.2411 20.9362C24.4248 20.8318 24.633 20.7783 24.8443 20.7813H28.6621L19.5005 5.82471L10.333 20.7813H14.1568C14.3636 20.7846 14.566 20.8418 14.7439 20.9474C14.9218 21.053 15.069 21.2032 15.171 21.3832C15.273 21.5631 15.3262 21.7666 15.3253 21.9735C15.3245 22.1803 15.2696 22.3834 15.1661 22.5625L10.3568 30.2813H18.313V21.9688C18.313 21.6538 18.4381 21.3518 18.6608 21.1291C18.8835 20.9064 19.1856 20.7813 19.5005 20.7813C19.8155 20.7813 20.1175 20.9064 20.3402 21.1291C20.5629 21.3518 20.688 21.6538 20.688 21.9688V30.2813H28.6324L23.8289 22.5625C23.7202 22.3846 23.6602 22.1812 23.655 21.9727C23.6497 21.7643 23.6995 21.5581 23.7993 21.375Z" fill="#91DB8B"/>
<path d="M20.4091 13.0625L17.1613 18.4062C17.0863 18.5426 16.9844 18.6624 16.8616 18.7581C16.7389 18.8538 16.5979 18.9235 16.4474 18.9629C16.2968 19.0024 16.1398 19.0108 15.9859 18.9875C15.832 18.9643 15.6844 18.9099 15.5522 18.8278C15.2837 18.6632 15.0916 18.3987 15.0181 18.0925C14.9447 17.7863 14.9958 17.4635 15.1603 17.195L18.3844 11.8512C18.5514 11.588 18.8152 11.4009 19.1189 11.3305C19.4227 11.2601 19.7419 11.3119 20.0077 11.4748C20.2735 11.6378 20.4646 11.8987 20.5397 12.2013C20.6148 12.5039 20.5679 12.8239 20.4091 13.0922V13.0625Z" fill="#91DB8B"/>
<path d="M26.9815 23.1562H30.7815C31.0965 23.1562 31.3985 23.0311 31.6212 22.8084C31.8439 22.5857 31.969 22.2837 31.969 21.9687C31.9655 21.7606 31.9104 21.5566 31.8087 21.375L20.5097 2.96873C20.3482 2.70533 20.0905 2.5152 19.7912 2.43871C19.4919 2.36222 19.1745 2.40538 18.9065 2.55904C18.744 2.65787 18.6075 2.7943 18.5087 2.95685L7.22747 21.3631C7.06722 21.6313 7.01911 21.9518 7.09358 22.2552C7.16804 22.5587 7.35908 22.8205 7.62528 22.984C7.80304 23.0962 8.00885 23.1559 8.21903 23.1562H12.0131L7.20372 30.8275C7.08785 31.008 7.02306 31.2166 7.01623 31.431C7.00939 31.6454 7.06077 31.8577 7.1649 32.0452C7.26904 32.2328 7.42203 32.3887 7.60764 32.4962C7.79324 32.6038 8.00452 32.6591 8.21903 32.6562H18.3128V34.4375C18.3128 34.7524 18.4379 35.0545 18.6606 35.2772C18.8833 35.4999 19.1853 35.625 19.5003 35.625C19.8152 35.625 20.1173 35.4999 20.34 35.2772C20.5627 35.0545 20.6878 34.7524 20.6878 34.4375V32.6562H30.7815C30.9909 32.6581 31.197 32.6046 31.379 32.5012C31.561 32.3977 31.7125 32.248 31.8179 32.0671C31.9234 31.8863 31.9792 31.6808 31.9797 31.4714C31.9802 31.262 31.9253 31.0563 31.8206 30.875L26.9815 23.1562Z" fill="#194E31"/>
<path d="M20.688 30.2813V21.9688C20.688 21.6538 20.5629 21.3518 20.3402 21.1291C20.1175 20.9064 19.8155 20.7813 19.5005 20.7813C19.1856 20.7813 18.8835 20.9064 18.6608 21.1291C18.4381 21.3518 18.313 21.6538 18.313 21.9688V30.2813H10.3568L15.1602 22.5625C15.2634 22.3838 15.3183 22.1813 15.3194 21.9749C15.3205 21.7686 15.2679 21.5655 15.1666 21.3857C15.0653 21.2059 14.9189 21.0556 14.7418 20.9496C14.5647 20.8436 14.3631 20.7856 14.1568 20.7813H10.333L19.5005 5.82471L28.6561 20.7813H24.8443C24.634 20.7794 24.427 20.8334 24.2445 20.9377C24.0619 21.042 23.9103 21.1929 23.8052 21.375C23.701 21.5555 23.6461 21.7603 23.6461 21.9688C23.6461 22.1772 23.701 22.382 23.8052 22.5625L28.6383 30.2813H20.688Z" fill="#91DB8B"/>
<path d="M20.0165 11.4474C19.748 11.2829 19.4252 11.2318 19.119 11.3053C18.8128 11.3787 18.5483 11.5708 18.3837 11.8393L15.1359 17.1474C14.9714 17.4159 14.9202 17.7388 14.9937 18.045C15.0672 18.3512 15.2593 18.6157 15.5278 18.7802C15.6595 18.8604 15.8061 18.9132 15.9588 18.9354C16.1114 18.9576 16.267 18.9488 16.4161 18.9094C16.5652 18.87 16.7049 18.801 16.8267 18.7063C16.9485 18.6117 17.05 18.4935 17.125 18.3587L20.3847 13.0624C20.5457 12.7983 20.5974 12.4818 20.5287 12.1801C20.4599 11.8785 20.2762 11.6156 20.0165 11.4474Z" fill="white"/>
</g>
<defs>
<clipPath id="clip0_2167_9706">
<rect width="38" height="38" fill="white" transform="translate(0.5)"/>
</clipPath>
</defs>
</svg>
