<svg width="58" height="58" viewBox="0 0 58 58" fill="none" xmlns="http://www.w3.org/2000/svg">
<path fill-rule="evenodd" clip-rule="evenodd" d="M9.41213 6.03306C11.6986 3.58901 15.2936 3.021 19.8647 3.021H38.1347C42.7058 3.021 46.3008 3.58901 48.5872 6.03306C50.8335 8.43411 51.3538 12.1716 51.3538 17.0135V27.3085C51.3538 28.3095 50.5423 29.121 49.5413 29.121C48.5404 29.121 47.7288 28.3095 47.7288 27.3085V17.0135C47.7288 12.1163 47.1133 9.76374 45.94 8.50958C44.8069 7.2984 42.6986 6.646 38.1347 6.646H19.8647C15.3008 6.646 13.1924 7.2984 12.0593 8.50958C10.886 9.76374 10.2705 12.1163 10.2705 17.0135V44.2252C10.2705 45.6863 10.4737 46.7349 10.7544 47.4231C11.0328 48.1056 11.3294 48.3103 11.4739 48.3726C11.6051 48.4292 11.9126 48.4993 12.5212 48.2366C13.1476 47.9662 13.9719 47.3854 14.9377 46.3489C14.9516 46.334 14.9658 46.3192 14.9803 46.3047L14.9878 46.2972C17.7363 43.403 22.0682 43.6399 24.458 46.8376L26.8984 50.0994C27.4982 50.901 27.3346 52.0368 26.533 52.6364C25.7314 53.2362 24.5955 53.0723 23.9959 52.271L21.555 49.0085C20.5188 47.6218 18.8228 47.5133 17.607 48.8033L17.5716 48.8398L17.5686 48.8429C16.4021 50.0907 15.1887 51.0332 13.9581 51.5646C12.7021 52.1069 11.3254 52.2555 10.0399 51.7019C8.76761 51.154 7.91477 50.0597 7.39784 48.7922C6.88336 47.5304 6.64551 45.9782 6.64551 44.2252V17.0135C6.64551 12.1716 7.16586 8.43411 9.41213 6.03306Z" fill="url(#paint0_linear_1636_8260)"/>
<path fill-rule="evenodd" clip-rule="evenodd" d="M17.5205 16.9175C17.5205 15.9165 18.332 15.105 19.333 15.105H38.6663C39.6673 15.105 40.4788 15.9165 40.4788 16.9175C40.4788 17.9185 39.6673 18.73 38.6663 18.73H19.333C18.332 18.73 17.5205 17.9185 17.5205 16.9175Z" fill="url(#paint1_linear_1636_8260)"/>
<path fill-rule="evenodd" clip-rule="evenodd" d="M19.9375 26.5835C19.9375 25.5825 20.749 24.771 21.75 24.771H36.25C37.251 24.771 38.0625 25.5825 38.0625 26.5835C38.0625 27.5845 37.251 28.396 36.25 28.396H21.75C20.749 28.396 19.9375 27.5845 19.9375 26.5835Z" fill="url(#paint2_linear_1636_8260)"/>
<path fill-rule="evenodd" clip-rule="evenodd" d="M46.2404 32.5213C47.8431 32.3565 49.318 33.0764 50.6315 34.3899C51.9524 35.7108 52.6808 37.1889 52.5218 38.7955C52.3724 40.3061 51.4715 41.4782 50.6315 42.3182L42.0948 50.8549C41.7406 51.2261 41.3048 51.4958 40.9469 51.6748C40.5702 51.8631 40.1124 52.0342 39.6516 52.107L39.6216 52.1115L36.3627 52.57C36.362 52.5702 36.3635 52.57 36.3627 52.57C35.2958 52.7217 34.1938 52.4414 33.3989 51.6466C32.6041 50.8517 32.3233 49.7519 32.4751 48.6847C32.4751 48.6854 32.4753 48.684 32.4751 48.6847L32.9383 45.3939C33.0123 44.9256 33.187 44.4708 33.3745 44.1001C33.5618 43.7296 33.8284 43.3129 34.1723 42.969L42.7273 34.414C43.5676 33.5738 44.737 32.6757 46.2404 32.5213ZM46.6109 36.1272C46.3501 36.1541 45.9245 36.3433 45.2906 36.9774L36.7388 45.529C36.7376 45.5307 36.724 45.5459 36.7016 45.5788C36.6728 45.6204 36.6404 45.6745 36.609 45.7366C36.5776 45.7985 36.5532 45.857 36.5365 45.9048C36.5261 45.9348 36.521 45.9536 36.5193 45.9609L36.0991 48.9464L39.0863 48.5259C39.0941 48.5242 39.1161 48.5187 39.1518 48.5064C39.2033 48.4885 39.264 48.4633 39.3256 48.4326C39.3877 48.4015 39.437 48.3718 39.4699 48.3488C39.4776 48.3435 39.4834 48.3391 39.4875 48.3362C39.4959 48.3273 39.5044 48.3186 39.5131 48.3099L48.0681 39.7549C48.7022 39.121 48.8888 38.6978 48.9144 38.4383C48.9306 38.2747 48.9222 37.8073 48.0681 36.9532C47.2307 36.1159 46.7723 36.1108 46.6109 36.1272Z" fill="url(#paint3_linear_1636_8260)"/>
<path fill-rule="evenodd" clip-rule="evenodd" d="M42.2878 35.1818C43.2523 34.914 44.2514 35.4785 44.5191 36.443C45.074 38.4406 46.6255 39.9919 48.6229 40.5468C49.5874 40.8148 50.1522 41.8138 49.8841 42.7783C49.6164 43.7428 48.6173 44.3076 47.6528 44.0396C44.4302 43.1444 41.9217 40.6359 41.0266 37.4133C40.7586 36.4488 41.3233 35.4498 42.2878 35.1818Z" fill="url(#paint4_linear_1636_8260)"/>
<defs>
<linearGradient id="paint0_linear_1636_8260" x1="6.64551" y1="28.0094" x2="51.2235" y2="30.4197" gradientUnits="userSpaceOnUse">
<stop offset="0.104452" stop-color="#7143D7"/>
<stop offset="0.47615" stop-color="#2C57F3"/>
<stop offset="1" stop-color="#4ED4F7"/>
</linearGradient>
<linearGradient id="paint1_linear_1636_8260" x1="17.5205" y1="16.9175" x2="37.5447" y2="24.5826" gradientUnits="userSpaceOnUse">
<stop offset="0.104452" stop-color="#7143D7"/>
<stop offset="0.47615" stop-color="#2C57F3"/>
<stop offset="1" stop-color="#4ED4F7"/>
</linearGradient>
<linearGradient id="paint2_linear_1636_8260" x1="19.9375" y1="26.5835" x2="36.5457" y2="31.6026" gradientUnits="userSpaceOnUse">
<stop offset="0.104452" stop-color="#7143D7"/>
<stop offset="0.47615" stop-color="#2C57F3"/>
<stop offset="1" stop-color="#4ED4F7"/>
</linearGradient>
<linearGradient id="paint3_linear_1636_8260" x1="32.4355" y1="42.5538" x2="52.4702" y2="43.7645" gradientUnits="userSpaceOnUse">
<stop offset="0.104452" stop-color="#7143D7"/>
<stop offset="0.47615" stop-color="#2C57F3"/>
<stop offset="1" stop-color="#4ED4F7"/>
</linearGradient>
<linearGradient id="paint4_linear_1636_8260" x1="40.96" y1="39.6107" x2="49.918" y2="40.1521" gradientUnits="userSpaceOnUse">
<stop offset="0.104452" stop-color="#7143D7"/>
<stop offset="0.47615" stop-color="#2C57F3"/>
<stop offset="1" stop-color="#4ED4F7"/>
</linearGradient>
</defs>
</svg>
