<svg xmlns="http://www.w3.org/2000/svg" width="59" height="58" viewBox="0 0 59 58" fill="none"><script xmlns=""/>
<path d="M16.4713 47.8355C13.4788 49.5537 10.1058 50.17 8.10841 50.3911C8.32953 48.3937 8.94578 45.0206 10.6622 42.0264C11.1117 41.2452 10.8417 40.2483 10.0605 39.7988C9.27203 39.3475 8.28059 39.6212 7.83291 40.4024C4.75891 45.7638 4.72266 51.8864 4.72266 52.1456C4.72266 53.0464 5.45309 53.7768 6.35391 53.7768C6.61309 53.7768 12.7357 53.7406 18.0971 50.6666C18.8783 50.2171 19.1483 49.222 18.6988 48.439C18.253 47.6578 17.2579 47.386 16.4713 47.8355Z" fill="#0073BB"/>
<path d="M56.5221 5.93614C56.5421 4.86495 56.1379 3.86083 55.3839 3.10864C54.6317 2.35646 53.5442 1.98489 52.5618 1.97583C48.0451 2.06102 35.8614 3.35695 24.3339 13.7045C22.2786 12.9052 19.181 11.718 16.8302 12.0207C13.3719 12.4648 8.26251 17.17 3.2582 22.1906C2.59482 22.8558 2.3302 23.7983 2.55314 24.7118C2.77426 25.629 3.44489 26.3485 4.34389 26.6367L12.3008 29.1923C11.7008 30.2871 11.1099 31.4072 10.539 32.589C9.82126 34.0752 10.1258 35.8605 11.2966 37.0278L21.4702 47.2013C22.2169 47.9499 23.2174 48.345 24.227 48.345C24.7979 48.345 25.3743 48.22 25.9108 47.9608C27.0926 47.3898 28.2127 46.799 29.3038 46.2008L31.8613 54.1559C32.1494 55.0549 32.869 55.7255 33.7879 55.9485C34 55.9992 34.2139 56.0246 34.4278 56.0246C35.1256 56.0246 35.798 55.7509 36.3091 55.2416C41.3298 50.2373 46.035 45.1296 46.4773 41.6732C46.7836 39.3006 45.5928 36.2212 44.7934 34.1658C55.1392 22.6383 56.437 10.4547 56.5221 5.93614ZM6.24157 23.8219C8.89688 21.1775 14.6643 15.5895 17.2453 15.2578C18.3962 15.111 20.2033 15.6566 21.7294 16.2094C19.0342 18.9952 16.4169 22.3338 13.9773 26.305L6.24157 23.8219ZM24.4916 45.0227C24.2614 45.1351 23.966 45.0843 23.7775 44.8958L13.6021 34.7205C13.4154 34.5338 13.3629 34.2401 13.4771 34.0063C26.1483 7.75952 46.644 5.35252 52.6253 5.24014H52.6398C52.8554 5.24014 52.9968 5.33621 53.0802 5.41958C53.1491 5.48846 53.2669 5.64071 53.2633 5.87633C53.1473 11.8576 50.7384 32.3533 24.4916 45.0227ZM43.242 41.2563C42.9103 43.8355 37.3223 49.6047 34.6779 52.2582L32.1911 44.5243C36.166 42.0846 39.5046 39.4656 42.2904 36.7704C42.845 38.2947 43.3906 40.0981 43.242 41.2563Z" fill="#0073BB"/>
<path d="M44.2319 23.9504C46.8999 21.2806 46.8999 16.9379 44.2319 14.2681C41.6437 11.6834 37.1342 11.6834 34.5495 14.2681C33.2572 15.5604 32.5449 17.2804 32.5449 19.1092C32.5449 20.9381 33.259 22.6581 34.5495 23.9504C35.8419 25.2427 37.5619 25.9551 39.3907 25.9551C41.2195 25.9551 42.9378 25.2427 44.2319 23.9504ZM41.9228 21.6431C40.5689 22.9989 38.2072 22.9989 36.8569 21.6431C36.179 20.9671 35.8056 20.0662 35.8056 19.1092C35.8056 18.1522 36.179 17.2532 36.8569 16.5754C37.5329 15.8993 38.4319 15.5259 39.3889 15.5259C40.3441 15.5259 41.2449 15.8993 41.921 16.5754C43.3202 17.9728 43.3202 20.2457 41.9228 21.6431Z" fill="#0073BB"/>
<script xmlns=""/></svg>