<svg width="38" height="38" viewBox="0 0 38 38" fill="none" xmlns="http://www.w3.org/2000/svg">
<path d="M6.53125 20.2944L11.0378 15.7878C11.5009 15.3247 12.2491 15.3247 12.7122 15.7878L16.625 19.665L23.2572 13.0625H17.8125C17.1594 13.0625 16.625 12.5281 16.625 11.875C16.625 11.2219 17.1594 10.6875 17.8125 10.6875H26.125C26.7781 10.6875 27.3125 11.2219 27.3125 11.875V20.1875C27.3125 20.8406 26.7781 21.375 26.125 21.375C25.4719 21.375 24.9375 20.8406 24.9375 20.1875V14.7487L17.4978 22.1825C17.0347 22.6456 16.2866 22.6456 15.8234 22.1825L11.875 18.2994L6.53125 23.6431V31.4687H10.6875V27.9062C10.6875 27.2531 11.2219 26.7187 11.875 26.7187C12.5281 26.7187 13.0625 27.2531 13.0625 27.9062V31.4687H17.8125V27.9062C17.8125 27.2531 18.3469 26.7187 19 26.7187C19.6531 26.7187 20.1875 27.2531 20.1875 27.9062V31.4687H24.9375V27.9062C24.9375 27.2531 25.4719 26.7187 26.125 26.7187C26.7781 26.7187 27.3125 27.2531 27.3125 27.9062V31.4687H31.4687V6.53125H6.53125V20.2944Z" fill="#04E1CB"/>
<path d="M15.8234 22.1825C16.2866 22.6456 17.0347 22.6456 17.4978 22.1825L24.9375 14.7487V20.1875C24.9375 20.8406 25.4719 21.375 26.125 21.375C26.7781 21.375 27.3125 20.8406 27.3125 20.1875V11.875C27.3125 11.2219 26.7781 10.6875 26.125 10.6875H17.8125C17.1594 10.6875 16.625 11.2219 16.625 11.875C16.625 12.5281 17.1594 13.0625 17.8125 13.0625H23.2572L16.625 19.665L12.7122 15.7878C12.2491 15.3247 11.5009 15.3247 11.0378 15.7878L6.53125 20.2944V23.6431L11.875 18.2994L15.8234 22.1825Z" fill="white"/>
<path d="M32.6562 4.15625H5.34375C4.69062 4.15625 4.15625 4.69062 4.15625 5.34375V32.6562C4.15625 33.3094 4.69062 33.8437 5.34375 33.8437H32.6562C33.3094 33.8437 33.8437 33.3094 33.8437 32.6562V5.34375C33.8437 4.69062 33.3094 4.15625 32.6562 4.15625ZM31.4687 31.4687H27.3125V27.9062C27.3125 27.2531 26.7781 26.7187 26.125 26.7187C25.4719 26.7187 24.9375 27.2531 24.9375 27.9062V31.4687H20.1875V27.9062C20.1875 27.2531 19.6531 26.7187 19 26.7187C18.3469 26.7187 17.8125 27.2531 17.8125 27.9062V31.4687H13.0625V27.9062C13.0625 27.2531 12.5281 26.7187 11.875 26.7187C11.2219 26.7187 10.6875 27.2531 10.6875 27.9062V31.4687H6.53125V6.53125H31.4687V31.4687Z" fill="#0B827C"/>
</svg>
