<svg xmlns="http://www.w3.org/2000/svg" width="113" height="100" viewBox="0 0 113 100" fill="none">
<g filter="url(#filter0_dd_2081_8334)">
<g clip-path="url(#clip0_2081_8334)">
<rect x="16.5" width="80" height="80" rx="40" fill="white"/>
<rect x="13.5" y="-4" width="86" height="88" rx="43" fill="white"/>
<g clip-path="url(#clip1_2081_8334)">
<path d="M67.125 28.8672C66.0716 28.8672 65.0466 29.0384 64.067 29.3773C62.5998 27.8212 60.5319 26.9141 58.375 26.9141C56.9578 26.9141 55.5625 27.3054 54.3541 28.0301C52.6595 26.5659 50.4744 25.7422 48.2188 25.7422C43.0494 25.7422 38.8438 29.9478 38.8438 35.1172C38.8438 35.8026 38.9177 36.4817 39.064 37.1449C37.4459 38.617 36.5 40.7251 36.5 42.9297C36.5 47.1402 39.8478 50.5835 44.0215 50.7369C45.795 52.9523 48.4876 54.2578 51.3438 54.2578C52.983 54.2578 54.5968 53.8281 56.0106 53.0152C57.1124 52.3818 58.0771 51.5267 58.8398 50.5136C59.4523 50.6655 60.0813 50.7423 60.7188 50.7423C63.2096 50.7423 65.498 49.5858 66.9702 47.6159C67.022 47.6168 67.0737 47.6173 67.125 47.6173C72.2944 47.6173 76.5 43.4116 76.5 38.2423C76.5 33.0729 72.2944 28.8672 67.125 28.8672ZM67.125 45.2734C66.9148 45.2734 66.6977 45.2634 66.4797 45.2437L65.7573 45.1781L65.3765 45.7955C64.3711 47.4254 62.6298 48.3984 60.7188 48.3984C60.0513 48.3984 59.3974 48.2784 58.7755 48.0419L57.864 47.6951L57.3574 48.5286C56.069 50.6484 53.8209 51.9141 51.3438 51.9141C49.0437 51.9141 46.8847 50.7848 45.5684 48.8934L45.1998 48.3639L44.5552 48.3921C44.4549 48.3965 44.38 48.3984 44.3125 48.3984C41.297 48.3984 38.8438 45.9452 38.8438 42.9297C38.8438 41.1952 39.6808 39.5459 41.0827 38.5174L41.7584 38.0218L41.5078 37.2221C41.2953 36.5437 41.1875 35.8354 41.1875 35.1172C41.1875 31.2402 44.3417 28.0859 48.2188 28.0859C50.1673 28.0859 52.0461 28.9059 53.3733 30.3358L54.1138 31.1336L54.964 30.4538C55.9425 29.6714 57.122 29.2578 58.375 29.2578C60.126 29.2578 61.7291 30.0666 62.7732 31.4769L63.3387 32.2406L64.2028 31.8451C65.1222 31.4243 66.1054 31.2109 67.125 31.2109C71.002 31.2109 74.1562 34.3652 74.1562 38.2422C74.1562 42.1192 71.002 45.2734 67.125 45.2734Z" fill="#169BD9"/>
</g>
</g>
<rect x="17" y="0.5" width="79" height="79" rx="39.5" stroke="#171717" stroke-opacity="0.04"/>
</g>
<defs>
<filter id="filter0_dd_2081_8334" x="0.5" y="-12" width="112" height="112" filterUnits="userSpaceOnUse" color-interpolation-filters="sRGB">
<feFlood flood-opacity="0" result="BackgroundImageFix"/>
<feColorMatrix in="SourceAlpha" type="matrix" values="0 0 0 0 0 0 0 0 0 0 0 0 0 0 0 0 0 0 127 0" result="hardAlpha"/>
<feMorphology radius="2" operator="erode" in="SourceAlpha" result="effect1_dropShadow_2081_8334"/>
<feOffset dy="4"/>
<feGaussianBlur stdDeviation="9"/>
<feComposite in2="hardAlpha" operator="out"/>
<feColorMatrix type="matrix" values="0 0 0 0 0.0901961 0 0 0 0 0.0901961 0 0 0 0 0.0901961 0 0 0 0.09 0"/>
<feBlend mode="normal" in2="BackgroundImageFix" result="effect1_dropShadow_2081_8334"/>
<feColorMatrix in="SourceAlpha" type="matrix" values="0 0 0 0 0 0 0 0 0 0 0 0 0 0 0 0 0 0 127 0" result="hardAlpha"/>
<feMorphology radius="2" operator="erode" in="SourceAlpha" result="effect2_dropShadow_2081_8334"/>
<feOffset dy="2"/>
<feGaussianBlur stdDeviation="4"/>
<feComposite in2="hardAlpha" operator="out"/>
<feColorMatrix type="matrix" values="0 0 0 0 0.0901961 0 0 0 0 0.0901961 0 0 0 0 0.0901961 0 0 0 0.08 0"/>
<feBlend mode="normal" in2="effect1_dropShadow_2081_8334" result="effect2_dropShadow_2081_8334"/>
<feBlend mode="normal" in="SourceGraphic" in2="effect2_dropShadow_2081_8334" result="shape"/>
</filter>
<clipPath id="clip0_2081_8334">
<rect x="16.5" width="80" height="80" rx="40" fill="white"/>
</clipPath>
<clipPath id="clip1_2081_8334">
<rect width="40" height="40" fill="white" transform="translate(36.5 20)"/>
</clipPath>
</defs>
</svg>