<svg xmlns="http://www.w3.org/2000/svg" width="23" height="22" viewBox="0 0 23 22" fill="none"><script xmlns=""/>
    <path d="M10.5 19C12.8869 19 15.1761 18.0518 16.864 16.364C18.5518 14.6761 19.5 12.3869 19.5 10C19.5 7.61305 18.5518 5.32387 16.864 3.63604C15.1761 1.94821 12.8869 1 10.5 1C8.11305 1 5.82387 1.94821 4.13604 3.63604C2.44821 5.32387 1.5 7.61305 1.5 10C1.5 12.3869 2.44821 14.6761 4.13604 16.364C5.82387 18.0518 8.11305 19 10.5 19ZM18.43 19.69C18.96 21.29 20.17 21.45 21.1 20.05C21.95 18.77 21.39 17.72 19.85 17.72C18.71 17.71 18.07 18.6 18.43 19.69Z" stroke="white" strokeWidth="1.5" strokeLinecap="round" strokeLinejoin="round"/>
<script xmlns=""/></svg>