<svg width="38" height="38" viewBox="0 0 38 38" fill="none" xmlns="http://www.w3.org/2000/svg">
<path d="M31.1031 9.15235C28.7186 6.88945 24.9775 6.88945 22.5949 9.15615L19.5359 12.2152C19.0571 12.6674 18.3104 12.6674 17.8316 12.2152L14.7726 9.15615C13.6174 7.99905 12.048 7.34925 10.4121 7.34925C7.00355 7.34355 4.23525 10.1043 4.23145 13.5129C4.22955 15.1526 4.87935 16.7277 6.04025 17.8867L18.6866 30.533L31.333 17.8867C33.6814 15.411 33.5788 11.5008 31.105 9.15235H31.1031Z" fill="#E26E8C"/>
<path d="M10.8587 12.1601C9.86118 12.1601 9.05178 12.9695 9.05178 13.967C9.05178 14.632 8.51218 15.1716 7.84718 15.1716C7.18218 15.1716 6.64258 14.632 6.64258 13.967C6.64258 11.6395 8.52928 9.75085 10.8587 9.75085C11.5237 9.75085 12.0633 10.2905 12.0633 10.9555C12.0633 11.6205 11.5237 12.1601 10.8587 12.1601Z" fill="#E26E8C"/>
<path d="M33.0294 7.44994C29.6758 4.10214 24.2438 4.10214 20.8903 7.44994L18.6863 9.65394L16.4823 7.44994C13.1687 4.30164 7.97025 4.30164 4.65475 7.44994C1.21575 10.716 1.07705 16.15 4.34125 19.589L17.8351 33.0828C18.0593 33.3089 18.3652 33.4362 18.6844 33.4381C19.0036 33.4381 19.3095 33.3089 19.5337 33.0828L33.0275 19.589C36.3753 16.2355 36.3753 10.8034 33.0275 7.44994H33.0294Z" fill="#8A033E"/>
<path d="M18.6866 30.5311L6.04025 17.8866C4.87935 16.7276 4.22955 15.1525 4.23145 13.5128C4.23715 10.1042 7.00355 7.34545 10.4121 7.34925C12.048 7.34925 13.6155 7.99905 14.7726 9.15615L17.8316 12.2151C18.3104 12.6673 19.0571 12.6673 19.5359 12.2151L22.5949 9.15615C24.9794 6.89135 28.7186 6.88945 31.1031 9.15235C33.5788 11.5007 33.6795 15.4109 31.3311 17.8866L18.6847 30.533L18.6866 30.5311Z" fill="#E26E8C"/>
<path d="M10.8587 9.75085C8.53118 9.75085 6.64258 11.6376 6.64258 13.967C6.64258 14.632 7.18218 15.1716 7.84718 15.1716C8.51218 15.1716 9.05178 14.632 9.05178 13.967C9.05178 12.9695 9.86118 12.1601 10.8587 12.1601C11.5237 12.1601 12.0633 11.6205 12.0633 10.9555C12.0633 10.2905 11.5237 9.75085 10.8587 9.75085Z" fill="white"/>
</svg>
