<svg xmlns="http://www.w3.org/2000/svg" width="81" height="80" viewBox="0 0 81 80" fill="none"><script xmlns=""/>
<g clip-path="url(#clip0_2081_8141)">
<rect x="0.5" width="80" height="80" rx="40" fill="#1C4C81"/>
<path d="M32.2117 27.3599C21.2187 22.8247 39.1582 -2.67871 39.1582 -2.67871H40.6786L71.8247 6.2188L85.5656 61.0698L40.6786 92.9441L37.4068 76.0411C37.4068 76.0411 45.6694 58.7186 49.1204 48.3349C52.5714 37.9511 43.2047 31.8951 32.2117 27.3599Z" fill="#169BD7"/>
<path d="M55.8447 42.0111C55.4975 41.8 55.2105 41.5031 55.0113 41.1489C54.8122 40.7947 54.7076 40.3952 54.7076 39.9889C54.7076 39.5826 54.8122 39.1831 55.0113 38.8289C55.2105 38.4747 55.4975 38.1778 55.8447 37.9667C56.6316 37.5048 57.203 36.7495 57.4336 35.8667C57.5668 35.4321 57.6119 34.9753 57.5661 34.5231C57.5203 34.0709 57.3846 33.6324 57.1669 33.2333L54.678 29C54.212 28.2008 53.4493 27.6178 52.5558 27.3778C51.7386 27.1571 50.8687 27.2441 50.1114 27.6222C49.719 27.87 49.2644 28.0016 48.8003 28.0016C48.3362 28.0016 47.8816 27.87 47.4891 27.6222C47.1549 27.4293 46.8767 27.1526 46.6818 26.8195C46.487 26.4863 46.3823 26.1081 46.378 25.7222C46.3782 24.8035 46.017 23.9216 45.3726 23.2668C44.7282 22.612 43.8522 22.2368 42.9336 22.2222H38.0669C37.1688 22.2241 36.3057 22.5711 35.6562 23.1916C35.0068 23.812 34.6208 24.6584 34.578 25.5556C34.5921 26.0107 34.4777 26.4606 34.2477 26.8537C34.0178 27.2467 33.6817 27.567 33.278 27.7778C32.9402 27.9728 32.557 28.0755 32.1669 28.0755C31.7768 28.0755 31.3936 27.9728 31.0558 27.7778C30.6603 27.5469 30.2226 27.3975 29.7684 27.3383C29.3142 27.2792 28.8528 27.3115 28.4114 27.4333C27.5396 27.6676 26.7915 28.2287 26.3225 29L23.8336 33.2333C23.3764 34.0285 23.2519 34.972 23.487 35.8585C23.7222 36.745 24.298 37.5027 25.0891 37.9667C25.4541 38.1757 25.7522 38.484 25.9489 38.8557C26.1456 39.2275 26.2327 39.6474 26.2003 40.0667C26.2038 40.4601 26.1028 40.8475 25.9076 41.1891C25.7123 41.5307 25.4299 41.8144 25.0891 42.0111C24.2942 42.4773 23.7161 43.239 23.4808 44.13C23.2456 45.021 23.3724 45.9689 23.8336 46.7667L26.278 51C26.7242 51.7673 27.4451 52.3364 28.295 52.5922C29.1449 52.848 30.0603 52.7714 30.8558 52.3778C31.2451 52.1271 31.6983 51.9937 32.1614 51.9937C32.6244 51.9937 33.0776 52.1271 33.4669 52.3778C33.8028 52.5717 34.0821 52.8501 34.277 53.1854C34.4719 53.5206 34.5757 53.9011 34.578 54.2889C34.581 55.2133 34.9495 56.099 35.6031 56.7527C36.2568 57.4063 37.1425 57.7749 38.0669 57.7778H42.9336C43.8227 57.7768 44.6781 57.4374 45.326 56.8286C45.974 56.2199 46.366 55.3873 46.4225 54.5C46.4084 54.0449 46.5229 53.5949 46.7528 53.2019C46.9827 52.8088 47.3188 52.4885 47.7225 52.2778C48.0603 52.0827 48.4435 51.9801 48.8336 51.9801C49.2237 51.9801 49.6069 52.0827 49.9447 52.2778C50.3402 52.5087 50.778 52.6581 51.2321 52.7173C51.6863 52.7764 52.1477 52.7441 52.5891 52.6222C53.4827 52.3822 54.2453 51.7992 54.7114 51L57.1669 46.7778C57.6216 45.9748 57.7452 45.0261 57.5114 44.1333C57.3872 43.6872 57.1761 43.2699 56.89 42.9057C56.604 42.5415 56.2487 42.2375 55.8447 42.0111ZM55.0669 45.5556L52.6225 49.7778C52.5496 49.9053 52.4522 50.0171 52.3359 50.1068C52.2195 50.1964 52.0866 50.2621 51.9447 50.3C51.7995 50.3394 51.6478 50.3488 51.4988 50.3278C51.3498 50.3068 51.2067 50.2558 51.078 50.1778C50.3757 49.771 49.5785 49.5568 48.7669 49.5568C47.9553 49.5568 47.1581 49.771 46.4558 50.1778C45.7363 50.5879 45.1364 51.1789 44.7154 51.8922C44.2945 52.6055 44.0671 53.4163 44.0558 54.2445C44.0558 54.5391 43.9387 54.8218 43.7304 55.0301C43.522 55.2385 43.2394 55.3556 42.9447 55.3556H38.0669C37.7722 55.3556 37.4896 55.2385 37.2812 55.0301C37.0729 54.8218 36.9558 54.5391 36.9558 54.2445C36.9545 53.4352 36.7402 52.6406 36.3345 51.9405C35.9288 51.2403 35.3461 50.6592 34.6447 50.2556C33.9289 49.8349 33.1156 49.6084 32.2854 49.5987C31.4552 49.589 30.6368 49.7962 29.9114 50.2C29.7846 50.2735 29.6445 50.3211 29.4991 50.3402C29.3538 50.3593 29.2062 50.3495 29.0647 50.3113C28.9232 50.273 28.7907 50.2072 28.6747 50.1176C28.5588 50.0279 28.4617 49.9162 28.3891 49.7889L25.9336 45.5556C25.8604 45.429 25.813 45.2893 25.7939 45.1444C25.7748 44.9995 25.7846 44.8523 25.8225 44.7111C25.8604 44.5692 25.9261 44.4363 26.0157 44.3199C26.1054 44.2036 26.2172 44.1062 26.3447 44.0333C27.0465 43.6116 27.6272 43.0155 28.0303 42.3029C28.4335 41.5902 28.6454 40.7854 28.6454 39.9667C28.6454 39.1479 28.4335 38.3431 28.0303 37.6305C27.6272 36.9179 27.0465 36.3217 26.3447 35.9C26.2172 35.8272 26.1054 35.7297 26.0157 35.6134C25.9261 35.4971 25.8604 35.3641 25.8225 35.2222C25.7846 35.0811 25.7748 34.9338 25.7939 34.7889C25.813 34.644 25.8604 34.5043 25.9336 34.3778L28.378 30.1556C28.5317 29.9106 28.7749 29.7352 29.0558 29.6667C29.201 29.6273 29.3527 29.6178 29.5017 29.6389C29.6507 29.6599 29.7938 29.7109 29.9225 29.7889C30.6248 30.1957 31.422 30.4099 32.2336 30.4099C33.0452 30.4099 33.8424 30.1957 34.5447 29.7889C35.2658 29.3778 35.8668 28.7851 36.2878 28.0697C36.7089 27.3543 36.9353 26.5412 36.9447 25.7111C36.9447 25.4164 37.0618 25.1338 37.2701 24.9254C37.4785 24.7171 37.7611 24.6 38.0558 24.6H42.9225C43.2172 24.6 43.4998 24.7171 43.7082 24.9254C43.9165 25.1338 44.0336 25.4164 44.0336 25.7111C44.0361 26.5201 44.2508 27.3143 44.6564 28.0143C45.0619 28.7142 45.6441 29.2955 46.3447 29.7C47.0584 30.1208 47.8699 30.3473 48.6984 30.3571C49.5269 30.3668 50.3435 30.1594 51.0669 29.7556C51.1942 29.6803 51.3352 29.6313 51.4817 29.6112C51.6282 29.5912 51.7772 29.6006 51.92 29.6389C52.0628 29.6772 52.1965 29.7436 52.3133 29.8342C52.4301 29.9248 52.5277 30.0379 52.6003 30.1667L55.0447 34.3889C55.1182 34.5157 55.1658 34.6558 55.1849 34.8011C55.204 34.9464 55.1942 35.0941 55.1559 35.2356C55.1177 35.3771 55.0519 35.5096 54.9623 35.6255C54.8726 35.7415 54.7609 35.8385 54.6336 35.9111C53.9318 36.3328 53.3511 36.929 52.9479 37.6416C52.5448 38.3542 52.3329 39.159 52.3329 39.9778C52.3329 40.7965 52.5448 41.6014 52.9479 42.314C53.3511 43.0266 53.9318 43.6227 54.6336 44.0445C54.7611 44.1173 54.8729 44.2147 54.9626 44.3311C55.0522 44.4474 55.1179 44.5803 55.1558 44.7222C55.2361 45.001 55.2042 45.3 55.0669 45.5556Z" fill="white"/>
<path d="M42.3448 37.7778L40.5003 38.6778L38.6559 37.7778C38.5152 37.6932 38.3586 37.6387 38.1958 37.6177C38.0331 37.5966 37.8678 37.6095 37.7102 37.6555C37.5527 37.7015 37.4064 37.7796 37.2805 37.8849C37.1547 37.9902 37.052 38.1204 36.9789 38.2673C36.9058 38.4142 36.8639 38.5747 36.8559 38.7386C36.8479 38.9025 36.8739 39.0663 36.9323 39.2197C36.9906 39.373 37.0801 39.5127 37.1951 39.6297C37.3101 39.7468 37.448 39.8388 37.6003 39.9L39.3114 40.7556V42.3889C39.3114 42.7042 39.4367 43.0066 39.6596 43.2296C39.8826 43.4525 40.185 43.5778 40.5003 43.5778C40.8156 43.5778 41.118 43.4525 41.341 43.2296C41.5639 43.0066 41.6892 42.7042 41.6892 42.3889V40.7333L43.4003 39.8778C43.5633 39.8249 43.7129 39.7374 43.8389 39.6213C43.965 39.5052 44.0644 39.3632 44.1304 39.2051C44.1965 39.047 44.2275 38.8765 44.2215 38.7053C44.2155 38.534 44.1726 38.3661 44.0956 38.213C44.0187 38.0599 43.9095 37.9253 43.7757 37.8183C43.6419 37.7113 43.4865 37.6345 43.3202 37.5932C43.1539 37.5518 42.9806 37.5469 42.8123 37.5788C42.6439 37.6107 42.4844 37.6785 42.3448 37.7778Z" fill="white"/>
<path d="M46.178 33.0778L42.6224 31.3C41.9633 30.9713 41.2368 30.8002 40.5002 30.8002C39.7636 30.8002 39.0371 30.9713 38.378 31.3L34.8224 33.0778C34.0344 33.4691 33.3713 34.0727 32.908 34.8207C32.4446 35.5687 32.1995 36.4313 32.2002 37.3111V42.7778C32.207 43.6758 32.4684 44.5534 32.9543 45.3087C33.4401 46.064 34.1303 46.6659 34.9446 47.0444L38.5002 48.7556C39.1249 49.0549 39.8075 49.2142 40.5002 49.2222C41.2083 49.2238 41.9074 49.0642 42.5446 48.7556L46.1113 47.0444C46.9153 46.658 47.594 46.0527 48.0696 45.298C48.5452 44.5433 48.7984 43.6698 48.8002 42.7778V37.3111C48.8009 36.4313 48.5558 35.5687 48.0924 34.8207C47.6291 34.0727 46.966 33.4691 46.178 33.0778ZM46.4224 42.7778C46.4235 43.2242 46.2977 43.6618 46.0597 44.0395C45.8217 44.4172 45.4812 44.7195 45.078 44.9111L41.5224 46.6667C41.2035 46.8203 40.8541 46.9 40.5002 46.9C40.1463 46.9 39.7969 46.8203 39.478 46.6667L35.9224 44.9556C35.5192 44.7639 35.1787 44.4616 34.9407 44.0839C34.7027 43.7062 34.5769 43.2687 34.578 42.8222V37.3111C34.578 36.872 34.7008 36.4416 34.9325 36.0686C35.1642 35.6956 35.4955 35.3947 35.8891 35.2C37.0002 34.6667 38.4446 33.9111 39.4446 33.4222C39.7712 33.2545 40.1331 33.1671 40.5002 33.1671C40.8673 33.1671 41.2292 33.2545 41.5558 33.4222C42.5558 33.9111 44.0446 34.6667 45.1113 35.2C45.5049 35.3947 45.8362 35.6956 46.0679 36.0686C46.2996 36.4416 46.4224 36.872 46.4224 37.3111V42.7778Z" fill="white"/>
</g>
<rect x="2.5" y="2" width="76" height="76" rx="38" stroke="#B80556" stroke-width="4"/>
<defs>
<clipPath id="clip0_2081_8141">
<rect x="0.5" width="80" height="80" rx="40" fill="white"/>
</clipPath>
</defs>
<script xmlns=""/></svg>