<svg xmlns="http://www.w3.org/2000/svg" width="18" height="18" viewBox="0 0 18 18" fill="none"><script xmlns="" />
    <path d="M9.00001 9V6.75M9.00001 16.5V14.25M6.75001 16.5H11.25M12.915 1.5H6.72001C6.42001 1.5 6.13501 1.605 5.90251 1.785L4.26001 3.0975C3.60001 3.6225 3.60001 4.62 4.26001 5.145L5.90251 6.4575C6.13501 6.645 6.42751 6.7425 6.72001 6.7425H12.915C13.6425 6.7425 14.2275 6.1575 14.2275 5.43V2.805C14.2275 2.085 13.6425 1.5 12.915 1.5ZM5.10001 9H11.295C11.595 9 11.88 9.105 12.1125 9.285L13.755 10.5975C14.415 11.1225 14.415 12.12 13.755 12.645L12.1125 13.9575C11.88 14.145 11.5875 14.2425 11.295 14.2425H5.10001C4.37251 14.2425 3.78751 13.6575 3.78751 12.93V10.305C3.78751 9.585 4.37251 9 5.10001 9Z" stroke="white" stroke-width="1.5" stroke-linecap="round" stroke-linejoin="round" />
    <script xmlns="" />
</svg>