<svg xmlns="http://www.w3.org/2000/svg" width="81" height="80" viewBox="0 0 81 80" fill="none"><script xmlns=""/>
<g clip-path="url(#clip0_2081_8082)">
<rect x="0.5" width="80" height="80" rx="40" fill="#1C4C81"/>
<path d="M32.2117 27.3599C21.2187 22.8247 39.1582 -2.67871 39.1582 -2.67871H40.6786L71.8247 6.2188L85.5656 61.0698L40.6786 92.9441L37.4068 76.0411C37.4068 76.0411 45.6694 58.7186 49.1204 48.3349C52.5714 37.9511 43.2047 31.8951 32.2117 27.3599Z" fill="#169BD7"/>
<g clip-path="url(#clip1_2081_8082)">
<path d="M60.3986 54.2752C60.2227 53.4304 59.3952 52.8882 58.5505 53.064C57.7055 53.2399 57.1633 54.0673 57.3392 54.9122C57.4405 55.3987 57.3199 55.8976 57.0083 56.2808C56.8277 56.5027 56.4254 56.875 55.7584 56.875H48.7031C47.8402 56.875 47.1406 57.5745 47.1406 58.4375C47.1406 59.3005 47.8402 60 48.7031 60H55.7584C57.1903 60 58.5295 59.363 59.4327 58.2524C60.3404 57.1362 60.6925 55.6866 60.3986 54.2752Z" fill="white"/>
<path d="M42.0864 41.3101C47.2197 41.7829 51.8893 44.5342 54.7975 48.8716C55.278 49.5884 56.2488 49.7799 56.9654 49.2993C57.6822 48.8187 57.8736 47.848 57.3931 47.1313C54.8292 43.3074 51.106 40.5274 46.8609 39.1304C49.448 37.1906 51.125 34.1 51.125 30.625C51.125 24.7663 46.3586 20 40.5 20C34.6414 20 29.875 24.7663 29.875 30.625C29.875 34.1023 31.554 37.1947 34.144 39.1341C31.7712 39.9152 29.5447 41.13 27.5961 42.7327C24.0233 45.6716 21.5391 49.7708 20.6014 54.2752C20.3075 55.6866 20.6596 57.1362 21.5672 58.2524C22.4704 59.363 23.8097 60 25.2416 60H32.0625C32.9254 60 33.625 59.3005 33.625 58.4375C33.625 57.5745 32.9254 56.875 32.0625 56.875H25.2415C24.5744 56.875 24.1721 56.5027 23.9915 56.2808C23.6799 55.8975 23.5593 55.3988 23.6606 54.9121C25.1906 47.563 31.3934 42.0838 38.7533 41.3273L35.7704 54.8984C35.6561 55.4189 35.8149 55.9618 36.1917 56.3386L39.3168 59.4641C39.6098 59.7573 40.0073 59.9219 40.4218 59.9219C40.8363 59.9219 41.2337 59.7572 41.5268 59.4641L44.6516 56.3386C45.0284 55.9617 45.1872 55.4189 45.0728 54.8984L42.0864 41.3101ZM33 30.625C33 26.4895 36.3644 23.125 40.5 23.125C44.6355 23.125 48 26.4895 48 30.625C48 34.6357 44.8355 37.921 40.8722 38.1158C40.7483 38.1135 40.6243 38.112 40.5 38.112C40.378 38.112 40.2562 38.1138 40.1344 38.116C36.168 37.9247 33 34.638 33 30.625ZM40.4218 56.1495L39.0064 54.7338L40.4218 48.2944L41.837 54.7339L40.4218 56.1495Z" fill="white"/>
</g>
</g>
<rect x="2.5" y="2" width="76" height="76" rx="38" stroke="#F58036" stroke-width="4"/>
<defs>
<clipPath id="clip0_2081_8082">
<rect x="0.5" width="80" height="80" rx="40" fill="white"/>
</clipPath>
<clipPath id="clip1_2081_8082">
<rect width="40" height="40" fill="white" transform="translate(20.5 20)"/>
</clipPath>
</defs>
<script xmlns=""/></svg>