<svg width="20" height="21" viewBox="0 0 20 21" fill="none" xmlns="http://www.w3.org/2000/svg">
    <path d="M16.09 5.355L15.95 5.285L14.59 4.505L11.77 2.875C10.91 2.375 9.59 2.375 8.73 2.875L5.91 4.495L4.55 5.295L4.37 5.385C2.62 6.565 2.5 6.785 2.5 8.675V13.195C2.5 15.085 2.62 15.305 4.41 16.515L8.73 19.005C9.16 19.265 9.7 19.375 10.25 19.375C10.79 19.375 11.34 19.255 11.77 19.005L16.13 16.485C17.89 15.305 18 15.095 18 13.195V8.675C18 6.785 17.88 6.565 16.09 5.355ZM13.04 10.885L12.43 11.635C12.33 11.745 12.26 11.955 12.27 12.105L12.33 13.065C12.37 13.655 11.95 13.955 11.4 13.745L10.51 13.385C10.37 13.335 10.14 13.335 10 13.385L9.11 13.735C8.56 13.955 8.14 13.645 8.18 13.055L8.24 12.095C8.25 11.945 8.18 11.735 8.08 11.625L7.46 10.885C7.08 10.435 7.25 9.935 7.82 9.785L8.75 9.545C8.9 9.505 9.07 9.365 9.15 9.245L9.67 8.445C9.99 7.945 10.5 7.945 10.83 8.445L11.35 9.245C11.43 9.375 11.61 9.505 11.75 9.545L12.68 9.785C13.25 9.935 13.42 10.435 13.04 10.885Z" fill="url(#paint0_linear_1427_29223)"></path>
    <defs>
        <linearGradient id="paint0_linear_1427_29223" x1="10.25" y1="2.5" x2="10.25" y2="19.375" gradientUnits="userSpaceOnUse">
            <stop stop-color="#138BD7"></stop>
            <stop offset="1" stop-color="#62AAFB"></stop>
        </linearGradient>
    </defs>
</svg>