<svg xmlns="http://www.w3.org/2000/svg" width="25" height="24" viewBox="0 0 25 24" fill="none"><script xmlns=""/>
    <path d="M3.91 22C3.91 18.13 7.76 15 12.5 15M22.5 22L21.5 21M12.5 12C13.8261 12 15.0979 11.4732 16.0355 10.5355C16.9732 9.59785 17.5 8.32608 17.5 7C17.5 5.67392 16.9732 4.40215 16.0355 3.46447C15.0979 2.52678 13.8261 2 12.5 2C11.1739 2 9.90215 2.52678 8.96447 3.46447C8.02679 4.40215 7.5 5.67392 7.5 7C7.5 8.32608 8.02679 9.59785 8.96447 10.5355C9.90215 11.4732 11.1739 12 12.5 12ZM18.7 21.4C19.5487 21.4 20.3626 21.0629 20.9627 20.4627C21.5629 19.8626 21.9 19.0487 21.9 18.2C21.9 17.3513 21.5629 16.5374 20.9627 15.9373C20.3626 15.3371 19.5487 15 18.7 15C17.8513 15 17.0374 15.3371 16.4373 15.9373C15.8371 16.5374 15.5 17.3513 15.5 18.2C15.5 19.0487 15.8371 19.8626 16.4373 20.4627C17.0374 21.0629 17.8513 21.4 18.7 21.4Z" stroke="white" strokeWidth="1.5" strokeLinecap="round" strokeLinejoin="round"/>
<script xmlns=""/></svg>